{
DisplayStrings = (
"\U00BF",
"?",
"!"
);
copyright = "Copyright (c) 2016 ResearchGate";
customParameters = (
{
name = license;
value = "This Font Software is licensed under the SIL Open Font License, Version 1.1. This license is available with a FAQ at: http://scripts.sil.org/OFL";
},
{
name = licenseURL;
value = "http://scripts.sil.org/OFL";
},
{
name = vendorID;
value = "STC ";
},
{
name = glyphOrder;
value = (
    ".notdef",
    uni0000,
    uni000D,
    NULL,
    HT,
    LF,
    DLE,
    DC1,
    DC2,
    DC3,
    DC4,
    RS,
    US,
    space,
    exclam,
    quotedbl,
    numbersign,
    dollar,
    percent,
    ampersand,
    quotesingle,
    parenleft,
    parenright,
    asterisk,
    plus,
    comma,
    hyphen,
    period,
    slash,
    zero,
    one,
    two,
    three,
    four,
    five,
    six,
    seven,
    eight,
    nine,
    colon,
    semicolon,
    less,
    equal,
    greater,
    question,
    at,
    A,
    B,
    C,
    D,
    E,
    F,
    G,
    H,
    I,
    J,
    K,
    L,
    M,
    N,
    O,
    P,
    Q,
    R,
    S,
    T,
    U,
    V,
    W,
    X,
    Y,
    Z,
    bracketleft,
    backslash,
    bracketright,
    asciicircum,
    underscore,
    grave,
    a,
    b,
    c,
    d,
    e,
    f,
    g,
    h,
    i,
    j,
    k,
    l,
    m,
    n,
    o,
    p,
    q,
    r,
    s,
    t,
    u,
    v,
    w,
    x,
    y,
    z,
    braceleft,
    bar,
    braceright,
    asciitilde,
    DEL,
    uni00A0,
    exclamdown,
    cent,
    sterling,
    currency,
    yen,
    brokenbar,
    section,
    dieresis,
    copyright,
    ordfeminine,
    guillemotleft,
    logicalnot,
    uni00AD,
    registered,
    macron,
    degree,
    plusminus,
    uni00B2,
    uni00B3,
    acute,
    uni00B5,
    paragraph,
    periodcentered,
    cedilla,
    uni00B9,
    ordmasculine,
    guillemotright,
    onequarter,
    onehalf,
    threequarters,
    questiondown,
    Agrave,
    Aacute,
    Acircumflex,
    Atilde,
    Adieresis,

glyphs = (
{
glyphname = A;
layers = (
{
layerId = "8EB560C1-B0F9-428E-B807-264CC4717BB6";
name = "Bold Italic";
paths = (
{
closed = 1;
nodes = (
"822 1309 LINE",
"1037 111 LINE",
"1174 83 LINE",
"1168 0 LINE",
"644 0 LINE",
"648 83 LINE",
"783 108 LINE",
"745 366 LINE",
"295 366 LINE",
"181 109 LINE",
"331 83 LINE",
"325 0 LINE",
"-122 0 LINE",
"-115 83 LINE",
"-3 108 LINE",
"580 1309 LINE"
);
},
{
closed = 1;
nodes = (
"727 484 LINE",
"650 1006 LINE",
"642 1143 LINE",
"347 484 LINE"
);
}
);
width = 1158;
}
);
note = A;
unicode = 0041;
},
{
glyphname = Aacute;
layers = (
{
layerId = "8EB560C1-B0F9-428E-B807-264CC4717BB6";
name = "Bold Italic";
paths = (
{
closed = 1;
nodes = (
"822 1309 LINE",
"1037 111 LINE",
"1174 83 LINE",
"1168 0 LINE",
"644 0 LINE",
"648 83 LINE",
"783 108 LINE",
"745 366 LINE",
"295 366 LINE",
"181 109 LINE",
"331 83 LINE",
"325 0 LINE",
"-122 0 LINE",
"-115 83 LINE",
"-3 108 LINE",
"580 1309 LINE"
);
},
{
closed = 1;
nodes = (
"727 484 LINE",
"650 1006 LINE",
"642 1143 LINE",
"347 484 LINE"
);
},
{
closed = 1;
nodes = (
"868 1727 LINE",
"1006 1593 LINE",
"978 1537 OFFCURVE",
"900 1471 OFFCURVE",
"817 1421 CURVE SMOOTH",
"776 1396 OFFCURVE",
"740 1378 OFFCURVE",
"711 1367 CURVE",
"631 1433 LINE"
);
}
);
width = 1158;
}
);
note = Aacute;
unicode = 00C1;
},
{
glyphname = Abreve;
layers = (
{
layerId = "8EB560C1-B0F9-428E-B807-264CC4717BB6";
name = "Bold Italic";
paths = (
{
closed = 1;
nodes = (
"822 1309 LINE",
"1037 111 LINE",
"1174 83 LINE",
"1168 0 LINE",
"644 0 LINE",
"648 83 LINE",
"783 108 LINE",
"745 366 LINE",
"295 366 LINE",
"181 109 LINE",
"331 83 LINE",
"325 0 LINE",
"-122 0 LINE",
"-115 83 LINE",
"-3 108 LINE",
"580 1309 LINE"
);
},
{
closed = 1;
nodes = (
"727 484 LINE",
"650 1006 LINE",
"642 1143 LINE",
"347 484 LINE"
);
},
{
closed = 1;
nodes = (
"458 1688 OFFCURVE",
"459 1705 OFFCURVE",
"461 1719 CURVE",
"592 1719 LINE",
"595 1656 OFFCURVE",
"600 1616 OFFCURVE",
"638 1586 CURVE SMOOTH",
"657 1571 OFFCURVE",
"685 1563 OFFCURVE",
"724 1563 CURVE SMOOTH",
"817 1563 OFFCURVE",
"871 1615 OFFCURVE",
"886 1719 CURVE",
"1012 1719 LINE",
"1012 1604 OFFCURVE",
"958 1503 OFFCURVE",
"870 1446 CURVE SMOOTH",
"825 1417 OFFCURVE",
"775 1403 OFFCURVE",
"719 1403 CURVE SMOOTH",
"528 1403 OFFCURVE",
"458 1522 OFFCURVE",
"458 1669 CURVE SMOOTH"
);
}
);
width = 1158;
}
);
note = Abreve;
unicode = 0102;
},
{
glyphname = Acircumflex;
layers = (
{
layerId = "8EB560C1-B0F9-428E-B807-264CC4717BB6";
name = "Bold Italic";
paths = (
{
closed = 1;
nodes = (
"822 1309 LINE",
"1037 111 LINE",
"1174 83 LINE",
"1168 0 LINE",
"644 0 LINE",
"648 83 LINE",
"783 108 LINE",
"745 366 LINE",
"295 366 LINE",
"181 109 LINE",
"331 83 LINE",
"325 0 LINE",
"-122 0 LINE",
"-115 83 LINE",
"-3 108 LINE",
"580 1309 LINE"
);
},
{
closed = 1;
nodes = (
"727 484 LINE",
"650 1006 LINE",
"642 1143 LINE",
"347 484 LINE"
);
},
{
closed = 1;
nodes = (
"702 1727 LINE",
"854 1727 LINE",
"1036 1434 LINE",
"950 1385 LINE",
"762 1570 LINE",
"484 1385 LINE",
"410 1434 LINE"
);
}
);
width = 1158;
}
);
note = Acircumflex;
unicode = 00C2;
},
{
glyphname = Adieresis;
layers = (
{
layerId = "8EB560C1-B0F9-428E-B807-264CC4717BB6";
name = "Bold Italic";
paths = (
{
closed = 1;
nodes = (
"822 1309 LINE",
"1037 111 LINE",
"1174 83 LINE",
"1168 0 LINE",
"644 0 LINE",
"648 83 LINE",
"783 108 LINE",
"745 366 LINE",
"295 366 LINE",
"181 109 LINE",
"331 83 LINE",
"325 0 LINE",
"-122 0 LINE",
"-115 83 LINE",
"-3 108 LINE",
"580 1309 LINE"
);
},
{
closed = 1;
nodes = (
"727 484 LINE",
"650 1006 LINE",
"642 1143 LINE",
"347 484 LINE"
);
},
{
closed = 1;
nodes = (
"419 1619 OFFCURVE",
"445 1666 OFFCURVE",
"486 1691 CURVE SMOOTH",
"507 1703 OFFCURVE",
"529 1709 OFFCURVE",
"554 1709 CURVE SMOOTH",
"625 1709 OFFCURVE",
"669 1664 OFFCURVE",
"669 1601 CURVE SMOOTH",
"669 1514 OFFCURVE",
"613 1453 OFFCURVE",
"528 1453 CURVE SMOOTH",
"467 1453 OFFCURVE",
"419 1503 OFFCURVE",
"419 1566 CURVE SMOOTH"
);
},
{
closed = 1;
nodes = (
"795 1621 OFFCURVE",
"822 1667 OFFCURVE",
"863 1691 CURVE SMOOTH",
"884 1703 OFFCURVE",
"906 1709 OFFCURVE",
"931 1709 CURVE SMOOTH",
"1002 1709 OFFCURVE",
"1045 1663 OFFCURVE",
"1045 1600 CURVE SMOOTH",
"1045 1515 OFFCURVE",
"991 1453 OFFCURVE",
"903 1453 CURVE SMOOTH",
"843 1453 OFFCURVE",
"795 1504 OFFCURVE",
"795 1568 CURVE SMOOTH"
);
}
);
width = 1158;
}
);
note = Adieresis;
unicode = 00C4;
},
{
glyphname = Agrave;
layers = (
{
layerId = "8EB560C1-B0F9-428E-B807-264CC4717BB6";
name = "Bold Italic";
paths = (
{
closed = 1;
nodes = (
"822 1309 LINE",
"1037 111 LINE",
"1174 83 LINE",
"1168 0 LINE",
"644 0 LINE",
"648 83 LINE",
"783 108 LINE",
"745 366 LINE",
"295 366 LINE",
"181 109 LINE",
"331 83 LINE",
"325 0 LINE",
"-122 0 LINE",
"-115 83 LINE",
"-3 108 LINE",
"580 1309 LINE"
);
},
{
closed = 1;
nodes = (
"727 484 LINE",
"650 1006 LINE",
"642 1143 LINE",
"347 484 LINE"
);
},
{
closed = 1;
nodes = (
"559 1727 LINE",
"791 1433 LINE",
"710 1367 LINE",
"653 1388 OFFCURVE",
"561 1442 OFFCURVE",
"492 1504 CURVE SMOOTH",
"457 1535 OFFCURVE",
"433 1564 OFFCURVE",
"419 1593 CURVE"
);
}
);
width = 1158;
}
);
note = Agrave;
unicode = 00C0;
},
{
glyphname = Amacron;
layers = (
{
layerId = "8EB560C1-B0F9-428E-B807-264CC4717BB6";
name = "Bold Italic";
paths = (
{
closed = 1;
nodes = (
"822 1309 LINE",
"1037 111 LINE",
"1174 83 LINE",
"1168 0 LINE",
"644 0 LINE",
"648 83 LINE",
"783 108 LINE",
"745 366 LINE",
"295 366 LINE",
"181 109 LINE",
"331 83 LINE",
"325 0 LINE",
"-122 0 LINE",
"-115 83 LINE",
"-3 108 LINE",
"580 1309 LINE"
);
},
{
closed = 1;
nodes = (
"727 484 LINE",
"650 1006 LINE",
"642 1143 LINE",
"347 484 LINE"
);
},
{
closed = 1;
nodes = (
"963 1633 LINE",
"946 1477 LINE",
"478 1477 LINE",
"495 1633 LINE"
);
}
);
width = 1158;
}
);
note = Amacron;
unicode = 0100;
},
{
glyphname = Aogonek;
layers = (
{
layerId = "8EB560C1-B0F9-428E-B807-264CC4717BB6";
name = "Bold Italic";
paths = (
{
closed = 1;
nodes = (
"822 1309 LINE",
"1037 111 LINE",
"1174 83 LINE",
"1168 0 LINE",
"987 0 LINE",
"891 -71 OFFCURVE",
"834 -129 OFFCURVE",
"833 -180 CURVE SMOOTH",
"832 -228 OFFCURVE",
"855 -247 OFFCURVE",
"886 -247 CURVE SMOOTH",
"923 -247 OFFCURVE",
"957 -228 OFFCURVE",
"1009 -188 CURVE",
"1035 -279 LINE",
"970 -344 OFFCURVE",
"881 -389 OFFCURVE",
"776 -389 CURVE SMOOTH",
"679 -389 OFFCURVE",
"624 -332 OFFCURVE",
"624 -255 CURVE SMOOTH",
"624 -223 OFFCURVE",
"640 -178 OFFCURVE",
"661 -147 CURVE SMOOTH",
"714 -74 OFFCURVE",
"767 -37 OFFCURVE",
"839 0 CURVE",
"644 0 LINE",
"648 83 LINE",
"783 108 LINE",
"745 366 LINE",
"295 366 LINE",
"181 109 LINE",
"331 83 LINE",
"325 0 LINE",
"-122 0 LINE",
"-115 83 LINE",
"-3 108 LINE",
"580 1309 LINE"
);
},
{
closed = 1;
nodes = (
"727 484 LINE",
"650 1006 LINE",
"642 1143 LINE",
"347 484 LINE"
);
}
);
width = 1158;
}
);
note = Aogonek;
unicode = 0104;
},
{
glyphname = Aring;
layers = (
{
layerId = "8EB560C1-B0F9-428E-B807-264CC4717BB6";
name = "Bold Italic";
paths = (
{
closed = 1;
nodes = (
"576 1301 LINE",
"484 1330 OFFCURVE",
"433 1393 OFFCURVE",
"433 1484 CURVE SMOOTH",
"433 1593 OFFCURVE",
"507 1666 OFFCURVE",
"607 1701 CURVE SMOOTH",
"656 1718 OFFCURVE",
"706 1727 OFFCURVE",
"756 1727 CURVE SMOOTH",
"856 1727 OFFCURVE",
"937 1695 OFFCURVE",
"979 1638 CURVE SMOOTH",
"1000 1609 OFFCURVE",
"1010 1576 OFFCURVE",
"1010 1537 CURVE SMOOTH",
"1010 1417 OFFCURVE",
"934 1339 OFFCURVE",
"823 1304 CURVE",
"1037 111 LINE",
"1174 83 LINE",
"1168 0 LINE",
"644 0 LINE",
"648 83 LINE",
"783 108 LINE",
"745 366 LINE",
"295 366 LINE",
"181 109 LINE",
"331 83 LINE",
"325 0 LINE",
"-122 0 LINE",
"-115 83 LINE",
"-3 108 LINE"
);
},
{
closed = 1;
nodes = (
"864 1561 OFFCURVE",
"840 1595 OFFCURVE",
"801 1614 CURVE SMOOTH",
"781 1623 OFFCURVE",
"760 1628 OFFCURVE",
"738 1628 CURVE SMOOTH",
"685 1628 OFFCURVE",
"634 1610 OFFCURVE",
"603 1571 CURVE SMOOTH",
"588 1552 OFFCURVE",
"580 1527 OFFCURVE",
"580 1498 CURVE SMOOTH",
"580 1454 OFFCURVE",
"605 1418 OFFCURVE",
"645 1399 CURVE",
"664 1389 OFFCURVE",
"686 1384 OFFCURVE",
"709 1384 CURVE SMOOTH",
"797 1384 OFFCURVE",
"864 1423 OFFCURVE",
"864 1520 CURVE SMOOTH"
);
},
{
closed = 1;
nodes = (
"727 484 LINE",
"650 1006 LINE",
"642 1143 LINE",
"347 484 LINE"
);
}
);
width = 1158;
}
);
note = Aring;
unicode = 00C5;
},
{
glyphname = Atilde;
layers = (
{
layerId = "8EB560C1-B0F9-428E-B807-264CC4717BB6";
name = "Bold Italic";
paths = (
{
closed = 1;
nodes = (
"822 1309 LINE",
"1037 111 LINE",
"1174 83 LINE",
"1168 0 LINE",
"644 0 LINE",
"648 83 LINE",
"783 108 LINE",
"745 366 LINE",
"295 366 LINE",
"181 109 LINE",
"331 83 LINE",
"325 0 LINE",
"-122 0 LINE",
"-115 83 LINE",
"-3 108 LINE",
"580 1309 LINE"
);
},
{
closed = 1;
nodes = (
"727 484 LINE",
"650 1006 LINE",
"642 1143 LINE",
"347 484 LINE"
);
},
{
closed = 1;
nodes = (
"412 1549 LINE",
"431 1600 OFFCURVE",
"471 1646 OFFCURVE",
"528 1674 CURVE SMOOTH",
"556 1687 OFFCURVE",
"587 1694 OFFCURVE",
"620 1694 CURVE SMOOTH",
"681 1694 OFFCURVE",
"718 1668 OFFCURVE",
"767 1623 CURVE SMOOTH",
"810 1584 OFFCURVE",
"831 1569 OFFCURVE",
"866 1569 CURVE SMOOTH",
"923 1569 OFFCURVE",
"956 1601 OFFCURVE",
"995 1650 CURVE",
"1059 1557 LINE",
"1039 1508 OFFCURVE",
"1000 1458 OFFCURVE",
"944 1428 CURVE SMOOTH",
"916 1413 OFFCURVE",
"886 1405 OFFCURVE",
"854 1405 CURVE SMOOTH",
"806 1405 OFFCURVE",
"770 1420 OFFCURVE",
"746 1439 CURVE",
"733 1448 OFFCURVE",
"718 1461 OFFCURVE",
"701 1476 CURVE SMOOTH",
"661 1512 OFFCURVE",
"636 1531 OFFCURVE",
"595 1531 CURVE SMOOTH",
"547 1531 OFFCURVE",
"509 1503 OFFCURVE",
"470 1459 CURVE"
);
}
);
width = 1158;
}
);
note = Atilde;
unicode = 00C3;
},
{
glyphname = AE;
layers = (
{
layerId = "8EB560C1-B0F9-428E-B807-264CC4717BB6";
name = "Bold Italic";
paths = (
{
closed = 1;
nodes = (
"710 109 LINE",
"743 380 LINE",
"335 380 LINE",
"195 109 LINE",
"358 83 LINE",
"352 0 LINE",
"-161 0 LINE",
"-151 83 LINE",
"-17 109 LINE",
"598 1193 LINE",
"347 1213 LINE",
"359 1309 LINE",
"1610 1309 LINE",
"1590 1022 LINE",
"1443 1022 LINE",
"1409 1193 LINE",
"1094 1210 LINE",
"1031 738 LINE",
"1401 766 LINE",
"1379 594 LINE",
"1018 616 LINE",
"953 109 LINE",
"1370 135 LINE",
"1463 348 LINE",
"1604 330 LINE",
"1546 0 LINE",
"577 0 LINE",
"587 83 LINE"
);
},
{
closed = 1;
nodes = (
"396 499 LINE",
"758 499 LINE",
"845 1201 LINE",
"761 1203 LINE"
);
}
);
width = 1653;
}
);
note = AE;
unicode = 00C6;
},
{
glyphname = AEacute;
layers = (
{
layerId = "8EB560C1-B0F9-428E-B807-264CC4717BB6";
name = "Bold Italic";
paths = (
{
closed = 1;
nodes = (
"1229 1727 LINE",
"1367 1593 LINE",
"1339 1537 OFFCURVE",
"1261 1471 OFFCURVE",
"1178 1421 CURVE SMOOTH",
"1137 1396 OFFCURVE",
"1101 1378 OFFCURVE",
"1072 1367 CURVE",
"992 1433 LINE"
);
},
{
closed = 1;
nodes = (
"710 109 LINE",
"743 380 LINE",
"335 380 LINE",
"195 109 LINE",
"358 83 LINE",
"352 0 LINE",
"-161 0 LINE",
"-151 83 LINE",
"-17 109 LINE",
"598 1193 LINE",
"347 1213 LINE",
"359 1309 LINE",
"1610 1309 LINE",
"1590 1022 LINE",
"1443 1022 LINE",
"1409 1193 LINE",
"1094 1210 LINE",
"1031 738 LINE",
"1401 766 LINE",
"1379 594 LINE",
"1018 616 LINE",
"953 109 LINE",
"1370 135 LINE",
"1463 348 LINE",
"1604 330 LINE",
"1546 0 LINE",
"577 0 LINE",
"587 83 LINE"
);
},
{
closed = 1;
nodes = (
"396 499 LINE",
"758 499 LINE",
"845 1201 LINE",
"761 1203 LINE"
);
}
);
width = 1653;
}
);
note = AEacute;
unicode = 01FC;
},
{
glyphname = B;
layers = (
{
layerId = "8EB560C1-B0F9-428E-B807-264CC4717BB6";
name = "Bold Italic";
paths = (
{
closed = 1;
nodes = (
"136 109 LINE",
"278 1196 LINE",
"157 1218 LINE",
"169 1309 LINE",
"421 1309 LINE SMOOTH",
"450 1309 OFFCURVE",
"493 1311 OFFCURVE",
"550 1316 CURVE SMOOTH",
"615 1321 OFFCURVE",
"666 1323 OFFCURVE",
"703 1323 CURVE SMOOTH",
"992 1323 OFFCURVE",
"1101 1200 OFFCURVE",
"1101 1031 CURVE SMOOTH",
"1101 856 OFFCURVE",
"1000 748 OFFCURVE",
"808 693 CURVE",
"921 689 OFFCURVE",
"1011 637 OFFCURVE",
"1059 556 CURVE SMOOTH",
"1082 515 OFFCURVE",
"1094 471 OFFCURVE",
"1094 423 CURVE SMOOTH",
"1094 119 OFFCURVE",
"872 -15 OFFCURVE",
"488 -15 CURVE SMOOTH",
"455 -15 OFFCURVE",
"412 -12 OFFCURVE",
"359 -7 CURVE SMOOTH",
"300 -2 OFFCURVE",
"260 0 OFFCURVE",
"237 0 CURVE SMOOTH",
"5 0 LINE",
"13 83 LINE"
);
},
{
closed = 1;
nodes = (
"453 735 LINE",
"477 734 OFFCURVE",
"495 734 OFFCURVE",
"507 734 CURVE SMOOTH",
"580 734 LINE SMOOTH",
"688 734 OFFCURVE",
"778 771 OFFCURVE",
"830 854 CURVE SMOOTH",
"855 895 OFFCURVE",
"868 947 OFFCURVE",
"868 1010 CURVE SMOOTH",
"868 1150 OFFCURVE",
"799 1218 OFFCURVE",
"648 1218 CURVE SMOOTH",
"616 1218 OFFCURVE",
"552 1214 OFFCURVE",
"515 1207 CURVE"
);
},
{
closed = 1;
nodes = (
"372 109 LINE",
"411 98 OFFCURVE",
"484 91 OFFCURVE",
"525 91 CURVE SMOOTH",
"733 91 OFFCURVE",
"837 189 OFFCURVE",
"837 384 CURVE SMOOTH",
"837 548 OFFCURVE",
"764 621 OFFCURVE",
"584 621 CURVE SMOOTH",
"528 621 OFFCURVE",
"479 619 OFFCURVE",
"438 616 CURVE"
);
}
);
width = 1164;
}
);
note = B;
unicode = 0042;
},
{
glyphname = C;
layers = (
{
layerId = "8EB560C1-B0F9-428E-B807-264CC4717BB6";
name = "Bold Italic";
paths = (
{
closed = 1;
nodes = (
"906 1324 OFFCURVE",
"976 1310 OFFCURVE",
"1055 1290 CURVE",
"1058 1289 OFFCURVE",
"1066 1287 OFFCURVE",
"1078 1284 CURVE",
"1109 1275 LINE",
"1054 943 LINE",
"888 943 LINE",
"860 1190 LINE",
"821 1209 OFFCURVE",
"779 1218 OFFCURVE",
"734 1218 CURVE SMOOTH",
"549 1218 OFFCURVE",
"425 1065 OFFCURVE",
"370 863 CURVE SMOOTH",
"314 661 OFFCURVE",
"315 393 OFFCURVE",
"400 230 CURVE SMOOTH",
"443 149 OFFCURVE",
"507 108 OFFCURVE",
"594 108 CURVE SMOOTH",
"670 108 OFFCURVE",
"753 127 OFFCURVE",
"800 183 CURVE",
"816 200 OFFCURVE",
"848 298 OFFCURVE",
"864 354 CURVE",
"1007 354 LINE",
"971 92 LINE",
"878 35 OFFCURVE",
"753 -14 OFFCURVE",
"554 -14 CURVE SMOOTH",
"326 -14 OFFCURVE",
"180 101 OFFCURVE",
"114 272 CURVE SMOOTH",
"81 357 OFFCURVE",
"64 452 OFFCURVE",
"64 555 CURVE SMOOTH",
"64 866 OFFCURVE",
"192 1106 OFFCURVE",
"407 1231 CURVE SMOOTH",
"514 1293 OFFCURVE",
"636 1324 OFFCURVE",
"771 1324 CURVE SMOOTH"
);
}
);
width = 1088;
}
);
note = C;
unicode = 0043;
},
{
glyphname = Cacute;
layers = (
{
layerId = "8EB560C1-B0F9-428E-B807-264CC4717BB6";
name = "Bold Italic";
paths = (
{
closed = 1;
nodes = (
"906 1324 OFFCURVE",
"976 1310 OFFCURVE",
"1055 1290 CURVE",
"1058 1289 OFFCURVE",
"1066 1287 OFFCURVE",
"1078 1284 CURVE",
"1109 1275 LINE",
"1054 943 LINE",
"888 943 LINE",
"860 1190 LINE",
"821 1209 OFFCURVE",
"779 1218 OFFCURVE",
"734 1218 CURVE SMOOTH",
"549 1218 OFFCURVE",
"425 1065 OFFCURVE",
"370 863 CURVE SMOOTH",
"314 661 OFFCURVE",
"315 393 OFFCURVE",
"400 230 CURVE SMOOTH",
"443 149 OFFCURVE",
"507 108 OFFCURVE",
"594 108 CURVE SMOOTH",
"670 108 OFFCURVE",
"753 127 OFFCURVE",
"800 183 CURVE",
"816 200 OFFCURVE",
"848 298 OFFCURVE",
"864 354 CURVE",
"1007 354 LINE",
"971 92 LINE",
"878 35 OFFCURVE",
"753 -14 OFFCURVE",
"554 -14 CURVE SMOOTH",
"326 -14 OFFCURVE",
"180 101 OFFCURVE",
"114 272 CURVE SMOOTH",
"81 357 OFFCURVE",
"64 452 OFFCURVE",
"64 555 CURVE SMOOTH",
"64 866 OFFCURVE",
"192 1106 OFFCURVE",
"407 1231 CURVE SMOOTH",
"514 1293 OFFCURVE",
"636 1324 OFFCURVE",
"771 1324 CURVE SMOOTH"
);
},
{
closed = 1;
nodes = (
"908 1727 LINE",
"1046 1593 LINE",
"1018 1537 OFFCURVE",
"940 1471 OFFCURVE",
"857 1421 CURVE SMOOTH",
"816 1396 OFFCURVE",
"780 1378 OFFCURVE",
"751 1367 CURVE",
"671 1433 LINE"
);
}
);
width = 1088;
}
);
note = Cacute;
unicode = 0106;
},
{
glyphname = Ccaron;
layers = (
{
layerId = "8EB560C1-B0F9-428E-B807-264CC4717BB6";
name = "Bold Italic";
paths = (
{
closed = 1;
nodes = (
"906 1324 OFFCURVE",
"976 1310 OFFCURVE",
"1055 1290 CURVE",
"1058 1289 OFFCURVE",
"1066 1287 OFFCURVE",
"1078 1284 CURVE",
"1109 1275 LINE",
"1054 943 LINE",
"888 943 LINE",
"860 1190 LINE",
"821 1209 OFFCURVE",
"779 1218 OFFCURVE",
"734 1218 CURVE SMOOTH",
"549 1218 OFFCURVE",
"425 1065 OFFCURVE",
"370 863 CURVE SMOOTH",
"314 661 OFFCURVE",
"315 393 OFFCURVE",
"400 230 CURVE SMOOTH",
"443 149 OFFCURVE",
"507 108 OFFCURVE",
"594 108 CURVE SMOOTH",
"670 108 OFFCURVE",
"753 127 OFFCURVE",
"800 183 CURVE",
"816 200 OFFCURVE",
"848 298 OFFCURVE",
"864 354 CURVE",
"1007 354 LINE",
"971 92 LINE",
"878 35 OFFCURVE",
"753 -14 OFFCURVE",
"554 -14 CURVE SMOOTH",
"326 -14 OFFCURVE",
"180 101 OFFCURVE",
"114 272 CURVE SMOOTH",
"81 357 OFFCURVE",
"64 452 OFFCURVE",
"64 555 CURVE SMOOTH",
"64 866 OFFCURVE",
"192 1106 OFFCURVE",
"407 1231 CURVE SMOOTH",
"514 1293 OFFCURVE",
"636 1324 OFFCURVE",
"771 1324 CURVE SMOOTH"
);
},
{
closed = 1;
nodes = (
"578 1727 LINE",
"764 1555 LINE",
"1040 1727 LINE",
"1115 1678 LINE",
"826 1385 LINE",
"675 1385 LINE",
"490 1677 LINE"
);
}
);
width = 1088;
}
);
note = Ccaron;
unicode = 010C;
},
{
glyphname = Ccedilla;
layers = (
{
layerId = "8EB560C1-B0F9-428E-B807-264CC4717BB6";
name = "Bold Italic";
paths = (
{
closed = 1;
nodes = (
"549 1218 OFFCURVE",
"425 1065 OFFCURVE",
"370 863 CURVE SMOOTH",
"314 661 OFFCURVE",
"315 393 OFFCURVE",
"400 230 CURVE SMOOTH",
"443 149 OFFCURVE",
"507 108 OFFCURVE",
"594 108 CURVE SMOOTH",
"670 108 OFFCURVE",
"753 127 OFFCURVE",
"800 183 CURVE",
"816 200 OFFCURVE",
"848 298 OFFCURVE",
"864 354 CURVE",
"1007 354 LINE",
"971 92 LINE",
"882 37 OFFCURVE",
"778 3 OFFCURVE",
"659 -9 CURVE",
"671 -49 OFFCURVE",
"680 -107 OFFCURVE",
"680 -155 CURVE SMOOTH",
"680 -318 OFFCURVE",
"594 -407 OFFCURVE",
"430 -407 CURVE SMOOTH",
"381 -407 OFFCURVE",
"305 -395 OFFCURVE",
"286 -383 CURVE",
"309 -252 LINE",
"324 -260 OFFCURVE",
"353 -265 OFFCURVE",
"381 -265 CURVE SMOOTH",
"480 -265 OFFCURVE",
"538 -200 OFFCURVE",
"538 -75 CURVE SMOOTH",
"538 -58 OFFCURVE",
"537 -38 OFFCURVE",
"535 -14 CURVE",
"316 -7 OFFCURVE",
"176 108 OFFCURVE",
"112 277 CURVE SMOOTH",
"80 361 OFFCURVE",
"64 454 OFFCURVE",
"64 555 CURVE SMOOTH",
"64 866 OFFCURVE",
"192 1106 OFFCURVE",
"407 1231 CURVE SMOOTH",
"514 1293 OFFCURVE",
"636 1324 OFFCURVE",
"771 1324 CURVE SMOOTH",
"906 1324 OFFCURVE",
"976 1310 OFFCURVE",
"1055 1290 CURVE",
"1058 1289 OFFCURVE",
"1066 1287 OFFCURVE",
"1078 1284 CURVE",
"1109 1275 LINE",
"1054 943 LINE",
"888 943 LINE",
"860 1190 LINE",
"821 1209 OFFCURVE",
"779 1218 OFFCURVE",
"734 1218 CURVE SMOOTH"
);
}
);
width = 1088;
}
);
note = Ccedilla;
unicode = 00C7;
},
{
glyphname = Ccircumflex;
layers = (
{
layerId = "8EB560C1-B0F9-428E-B807-264CC4717BB6";
name = "Bold Italic";
paths = (
{
closed = 1;
nodes = (
"906 1324 OFFCURVE",
"976 1310 OFFCURVE",
"1055 1290 CURVE",
"1058 1289 OFFCURVE",
"1066 1287 OFFCURVE",
"1078 1284 CURVE",
"1109 1275 LINE",
"1054 943 LINE",
"888 943 LINE",
"860 1190 LINE",
"821 1209 OFFCURVE",
"779 1218 OFFCURVE",
"734 1218 CURVE SMOOTH",
"549 1218 OFFCURVE",
"425 1065 OFFCURVE",
"370 863 CURVE SMOOTH",
"314 661 OFFCURVE",
"315 393 OFFCURVE",
"400 230 CURVE SMOOTH",
"443 149 OFFCURVE",
"507 108 OFFCURVE",
"594 108 CURVE SMOOTH",
"670 108 OFFCURVE",
"753 127 OFFCURVE",
"800 183 CURVE",
"816 200 OFFCURVE",
"848 298 OFFCURVE",
"864 354 CURVE",
"1007 354 LINE",
"971 92 LINE",
"878 35 OFFCURVE",
"753 -14 OFFCURVE",
"554 -14 CURVE SMOOTH",
"326 -14 OFFCURVE",
"180 101 OFFCURVE",
"114 272 CURVE SMOOTH",
"81 357 OFFCURVE",
"64 452 OFFCURVE",
"64 555 CURVE SMOOTH",
"64 866 OFFCURVE",
"192 1106 OFFCURVE",
"407 1231 CURVE SMOOTH",
"514 1293 OFFCURVE",
"636 1324 OFFCURVE",
"771 1324 CURVE SMOOTH"
);
},
{
closed = 1;
nodes = (
"741 1727 LINE",
"893 1727 LINE",
"1075 1434 LINE",
"989 1385 LINE",
"801 1570 LINE",
"523 1385 LINE",
"449 1434 LINE"
);
}
);
width = 1088;
}
);
note = Ccircumflex;
unicode = 0108;
},
{
glyphname = Cdotaccent;
layers = (
{
layerId = "8EB560C1-B0F9-428E-B807-264CC4717BB6";
name = "Bold Italic";
paths = (
{
closed = 1;
nodes = (
"622 1593 OFFCURVE",
"652 1642 OFFCURVE",
"700 1670 CURVE SMOOTH",
"723 1684 OFFCURVE",
"749 1691 OFFCURVE",
"777 1691 CURVE SMOOTH",
"828 1691 OFFCURVE",
"870 1666 OFFCURVE",
"893 1630 CURVE SMOOTH",
"904 1612 OFFCURVE",
"910 1593 OFFCURVE",
"910 1573 CURVE SMOOTH",
"910 1517 OFFCURVE",
"883 1466 OFFCURVE",
"834 1438 CURVE SMOOTH",
"809 1423 OFFCURVE",
"781 1416 OFFCURVE",
"749 1416 CURVE SMOOTH",
"706 1416 OFFCURVE",
"664 1442 OFFCURVE",
"640 1480 CURVE SMOOTH",
"628 1499 OFFCURVE",
"622 1518 OFFCURVE",
"622 1538 CURVE SMOOTH"
);
},
{
closed = 1;
nodes = (
"906 1324 OFFCURVE",
"976 1310 OFFCURVE",
"1055 1290 CURVE",
"1058 1289 OFFCURVE",
"1066 1287 OFFCURVE",
"1078 1284 CURVE",
"1109 1275 LINE",
"1054 943 LINE",
"888 943 LINE",
"860 1190 LINE",
"821 1209 OFFCURVE",
"779 1218 OFFCURVE",
"734 1218 CURVE SMOOTH",
"549 1218 OFFCURVE",
"425 1065 OFFCURVE",
"370 863 CURVE SMOOTH",
"314 661 OFFCURVE",
"315 393 OFFCURVE",
"400 230 CURVE SMOOTH",
"443 149 OFFCURVE",
"507 108 OFFCURVE",
"594 108 CURVE SMOOTH",
"670 108 OFFCURVE",
"753 127 OFFCURVE",
"800 183 CURVE",
"816 200 OFFCURVE",
"848 298 OFFCURVE",
"864 354 CURVE",
"1007 354 LINE",
"971 92 LINE",
"878 35 OFFCURVE",
"753 -14 OFFCURVE",
"554 -14 CURVE SMOOTH",
"326 -14 OFFCURVE",
"180 101 OFFCURVE",
"114 272 CURVE SMOOTH",
"81 357 OFFCURVE",
"64 452 OFFCURVE",
"64 555 CURVE SMOOTH",
"64 866 OFFCURVE",
"192 1106 OFFCURVE",
"407 1231 CURVE SMOOTH",
"514 1293 OFFCURVE",
"636 1324 OFFCURVE",
"771 1324 CURVE SMOOTH"
);
}
);
width = 1088;
}
);
note = Cdotaccent;
unicode = 010A;
},
{
glyphname = D;
layers = (
{
layerId = "8EB560C1-B0F9-428E-B807-264CC4717BB6";
name = "Bold Italic";
paths = (
{
closed = 1;
nodes = (
"135 109 LINE",
"278 1196 LINE",
"158 1218 LINE",
"168 1309 LINE",
"433 1309 LINE SMOOTH",
"460 1309 OFFCURVE",
"502 1311 OFFCURVE",
"561 1316 CURVE SMOOTH",
"625 1321 OFFCURVE",
"674 1323 OFFCURVE",
"708 1323 CURVE SMOOTH",
"1079 1323 OFFCURVE",
"1238 1117 OFFCURVE",
"1238 780 CURVE SMOOTH",
"1238 472 OFFCURVE",
"1128 224 OFFCURVE",
"913 88 CURVE SMOOTH",
"805 20 OFFCURVE",
"674 -14 OFFCURVE",
"519 -14 CURVE SMOOTH",
"499 -14 OFFCURVE",
"456 -11 OFFCURVE",
"432 -8 CURVE SMOOTH",
"381 -3 OFFCURVE",
"301 0 OFFCURVE",
"252 0 CURVE SMOOTH",
"-6 0 LINE",
"3 83 LINE"
);
},
{
closed = 1;
nodes = (
"380 115 LINE",
"420 102 OFFCURVE",
"496 92 OFFCURVE",
"541 92 CURVE",
"741 99 OFFCURVE",
"873 245 OFFCURVE",
"934 446 CURVE SMOOTH",
"965 546 OFFCURVE",
"980 651 OFFCURVE",
"980 760 CURVE SMOOTH",
"980 984 OFFCURVE",
"938 1113 OFFCURVE",
"847 1173 CURVE SMOOTH",
"801 1203 OFFCURVE",
"741 1218 OFFCURVE",
"666 1218 CURVE SMOOTH",
"613 1218 OFFCURVE",
"549 1208 OFFCURVE",
"520 1199 CURVE"
);
}
);
width = 1267;
}
);
note = D;
unicode = 0044;
},
{
glyphname = Eth;
layers = (
{
layerId = "8EB560C1-B0F9-428E-B807-264CC4717BB6";
name = "Bold Italic";
paths = (
{
closed = 1;
nodes = (
"214 742 LINE",
"274 1198 LINE",
"155 1219 LINE",
"164 1311 LINE",
"430 1311 LINE SMOOTH",
"457 1311 OFFCURVE",
"499 1313 OFFCURVE",
"557 1318 CURVE SMOOTH",
"622 1322 OFFCURVE",
"671 1324 OFFCURVE",
"704 1324 CURVE SMOOTH",
"1075 1324 OFFCURVE",
"1234 1119 OFFCURVE",
"1234 782 CURVE SMOOTH",
"1234 473 OFFCURVE",
"1125 226 OFFCURVE",
"909 90 CURVE SMOOTH",
"801 22 OFFCURVE",
"670 -12 OFFCURVE",
"516 -12 CURVE SMOOTH",
"496 -12 OFFCURVE",
"452 -10 OFFCURVE",
"428 -6 CURVE",
"377 -2 OFFCURVE",
"298 2 OFFCURVE",
"249 2 CURVE SMOOTH",
"-9 2 LINE",
"0 85 LINE",
"132 111 LINE",
"197 611 LINE",
"74 611 LINE",
"93 742 LINE"
);
},
{
closed = 1;
nodes = (
"377 117 LINE",
"417 104 OFFCURVE",
"491 94 OFFCURVE",
"538 94 CURVE",
"738 101 OFFCURVE",
"870 247 OFFCURVE",
"931 448 CURVE SMOOTH",
"961 548 OFFCURVE",
"976 653 OFFCURVE",
"976 762 CURVE SMOOTH",
"976 986 OFFCURVE",
"935 1115 OFFCURVE",
"844 1175 CURVE SMOOTH",
"798 1204 OFFCURVE",
"738 1219 OFFCURVE",
"663 1219 CURVE SMOOTH",
"610 1219 OFFCURVE",
"545 1209 OFFCURVE",
"517 1201 CURVE",
"458 742 LINE",
"747 742 LINE",
"729 611 LINE",
"440 611 LINE"
);
}
);
width = 1265;
}
);
note = Eth;
unicode = 00D0;
},
{
glyphname = Dcaron;
layers = (
{
layerId = "8EB560C1-B0F9-428E-B807-264CC4717BB6";
name = "Bold Italic";
paths = (
{
closed = 1;
nodes = (
"562 1727 LINE",
"748 1555 LINE",
"1024 1727 LINE",
"1099 1678 LINE",
"810 1385 LINE",
"659 1385 LINE",
"474 1677 LINE"
);
},
{
closed = 1;
nodes = (
"132 109 LINE",
"275 1196 LINE",
"155 1218 LINE",
"165 1309 LINE",
"430 1309 LINE SMOOTH",
"457 1309 OFFCURVE",
"499 1311 OFFCURVE",
"558 1316 CURVE SMOOTH",
"622 1321 OFFCURVE",
"671 1323 OFFCURVE",
"705 1323 CURVE SMOOTH",
"1076 1323 OFFCURVE",
"1235 1117 OFFCURVE",
"1235 780 CURVE SMOOTH",
"1235 472 OFFCURVE",
"1125 224 OFFCURVE",
"910 88 CURVE SMOOTH",
"802 20 OFFCURVE",
"671 -14 OFFCURVE",
"516 -14 CURVE SMOOTH",
"496 -14 OFFCURVE",
"453 -11 OFFCURVE",
"429 -8 CURVE SMOOTH",
"378 -3 OFFCURVE",
"298 0 OFFCURVE",
"249 0 CURVE SMOOTH",
"-9 0 LINE",
"0 83 LINE"
);
},
{
closed = 1;
nodes = (
"377 115 LINE",
"417 102 OFFCURVE",
"493 92 OFFCURVE",
"538 92 CURVE",
"738 99 OFFCURVE",
"870 245 OFFCURVE",
"931 446 CURVE SMOOTH",
"962 546 OFFCURVE",
"977 651 OFFCURVE",
"977 760 CURVE SMOOTH",
"977 984 OFFCURVE",
"935 1113 OFFCURVE",
"844 1173 CURVE SMOOTH",
"798 1203 OFFCURVE",
"738 1218 OFFCURVE",
"663 1218 CURVE SMOOTH",
"610 1218 OFFCURVE",
"546 1208 OFFCURVE",
"517 1199 CURVE"
);
}
);
width = 1270;
}
);
note = Dcaron;
unicode = 010E;
},
{
glyphname = Dcroat;
layers = (
{
layerId = "8EB560C1-B0F9-428E-B807-264CC4717BB6";
name = "Bold Italic";
paths = (
{
closed = 1;
nodes = (
"214 742 LINE",
"274 1198 LINE",
"155 1219 LINE",
"164 1311 LINE",
"430 1311 LINE SMOOTH",
"457 1311 OFFCURVE",
"499 1313 OFFCURVE",
"557 1318 CURVE SMOOTH",
"622 1322 OFFCURVE",
"671 1324 OFFCURVE",
"704 1324 CURVE SMOOTH",
"1075 1324 OFFCURVE",
"1234 1119 OFFCURVE",
"1234 782 CURVE SMOOTH",
"1234 473 OFFCURVE",
"1125 226 OFFCURVE",
"909 90 CURVE SMOOTH",
"801 22 OFFCURVE",
"670 -12 OFFCURVE",
"516 -12 CURVE SMOOTH",
"496 -12 OFFCURVE",
"452 -10 OFFCURVE",
"428 -6 CURVE",
"377 -2 OFFCURVE",
"298 2 OFFCURVE",
"249 2 CURVE SMOOTH",
"-9 2 LINE",
"0 85 LINE",
"132 111 LINE",
"197 611 LINE",
"74 611 LINE",
"93 742 LINE"
);
},
{
closed = 1;
nodes = (
"377 117 LINE",
"417 104 OFFCURVE",
"491 94 OFFCURVE",
"538 94 CURVE",
"738 101 OFFCURVE",
"870 247 OFFCURVE",
"931 448 CURVE SMOOTH",
"961 548 OFFCURVE",
"976 653 OFFCURVE",
"976 762 CURVE SMOOTH",
"976 986 OFFCURVE",
"935 1115 OFFCURVE",
"844 1175 CURVE SMOOTH",
"798 1204 OFFCURVE",
"738 1219 OFFCURVE",
"663 1219 CURVE SMOOTH",
"610 1219 OFFCURVE",
"545 1209 OFFCURVE",
"517 1201 CURVE",
"458 742 LINE",
"747 742 LINE",
"729 611 LINE",
"440 611 LINE"
);
}
);
width = 1270;
}
);
note = Dcroat;
unicode = 0110;
},
{
glyphname = E;
layers = (
{
layerId = "8EB560C1-B0F9-428E-B807-264CC4717BB6";
name = "Bold Italic";
paths = (
{
closed = 1;
nodes = (
"137 109 LINE",
"276 1196 LINE",
"157 1218 LINE",
"166 1309 LINE",
"1055 1309 LINE",
"1035 1013 LINE",
"888 1013 LINE",
"854 1193 LINE",
"524 1210 LINE",
"461 741 LINE",
"851 766 LINE",
"829 596 LINE",
"447 616 LINE",
"378 109 LINE",
"810 135 LINE",
"912 357 LINE",
"1054 338 LINE",
"986 0 LINE",
"-7 0 LINE",
"3 83 LINE"
);
}
);
width = 1093;
}
);
note = E;
unicode = 0045;
},
{
glyphname = Eacute;
layers = (
{
layerId = "8EB560C1-B0F9-428E-B807-264CC4717BB6";
name = "Bold Italic";
paths = (
{
closed = 1;
nodes = (
"845 1727 LINE",
"983 1593 LINE",
"955 1537 OFFCURVE",
"877 1471 OFFCURVE",
"794 1421 CURVE SMOOTH",
"753 1396 OFFCURVE",
"717 1378 OFFCURVE",
"688 1367 CURVE",
"608 1433 LINE"
);
},
{
closed = 1;
nodes = (
"137 109 LINE",
"276 1196 LINE",
"157 1218 LINE",
"166 1309 LINE",
"1055 1309 LINE",
"1035 1013 LINE",
"888 1013 LINE",
"854 1193 LINE",
"524 1210 LINE",
"461 741 LINE",
"851 766 LINE",
"829 596 LINE",
"447 616 LINE",
"378 109 LINE",
"810 135 LINE",
"912 357 LINE",
"1054 338 LINE",
"986 0 LINE",
"-7 0 LINE",
"3 83 LINE"
);
}
);
width = 1093;
}
);
note = Eacute;
unicode = 00C9;
},
{
glyphname = Ebreve;
layers = (
{
layerId = "8EB560C1-B0F9-428E-B807-264CC4717BB6";
name = "Bold Italic";
paths = (
{
closed = 1;
nodes = (
"434 1688 OFFCURVE",
"435 1705 OFFCURVE",
"437 1719 CURVE",
"568 1719 LINE",
"571 1656 OFFCURVE",
"576 1616 OFFCURVE",
"614 1586 CURVE SMOOTH",
"633 1571 OFFCURVE",
"661 1563 OFFCURVE",
"700 1563 CURVE SMOOTH",
"793 1563 OFFCURVE",
"847 1615 OFFCURVE",
"862 1719 CURVE",
"988 1719 LINE",
"988 1604 OFFCURVE",
"934 1503 OFFCURVE",
"846 1446 CURVE SMOOTH",
"801 1417 OFFCURVE",
"751 1403 OFFCURVE",
"695 1403 CURVE SMOOTH",
"504 1403 OFFCURVE",
"434 1522 OFFCURVE",
"434 1669 CURVE SMOOTH"
);
},
{
closed = 1;
nodes = (
"137 109 LINE",
"276 1196 LINE",
"157 1218 LINE",
"166 1309 LINE",
"1055 1309 LINE",
"1035 1013 LINE",
"888 1013 LINE",
"854 1193 LINE",
"524 1210 LINE",
"461 741 LINE",
"851 766 LINE",
"829 596 LINE",
"447 616 LINE",
"378 109 LINE",
"810 135 LINE",
"912 357 LINE",
"1054 338 LINE",
"986 0 LINE",
"-7 0 LINE",
"3 83 LINE"
);
}
);
width = 1093;
}
);
note = Ebreve;
unicode = 0114;
},
{
glyphname = Ecaron;
layers = (
{
layerId = "8EB560C1-B0F9-428E-B807-264CC4717BB6";
name = "Bold Italic";
paths = (
{
closed = 1;
nodes = (
"516 1727 LINE",
"702 1555 LINE",
"978 1727 LINE",
"1053 1678 LINE",
"764 1385 LINE",
"613 1385 LINE",
"428 1677 LINE"
);
},
{
closed = 1;
nodes = (
"137 109 LINE",
"276 1196 LINE",
"157 1218 LINE",
"166 1309 LINE",
"1055 1309 LINE",
"1035 1013 LINE",
"888 1013 LINE",
"854 1193 LINE",
"524 1210 LINE",
"461 741 LINE",
"851 766 LINE",
"829 596 LINE",
"447 616 LINE",
"378 109 LINE",
"810 135 LINE",
"912 357 LINE",
"1054 338 LINE",
"986 0 LINE",
"-7 0 LINE",
"3 83 LINE"
);
}
);
width = 1093;
}
);
note = Ecaron;
unicode = 011A;
},
{
glyphname = Ecircumflex;
layers = (
{
layerId = "8EB560C1-B0F9-428E-B807-264CC4717BB6";
name = "Bold Italic";
paths = (
{
closed = 1;
nodes = (
"137 109 LINE",
"276 1196 LINE",
"157 1218 LINE",
"166 1309 LINE",
"1055 1309 LINE",
"1035 1013 LINE",
"888 1013 LINE",
"854 1193 LINE",
"524 1210 LINE",
"461 741 LINE",
"851 766 LINE",
"829 596 LINE",
"447 616 LINE",
"378 109 LINE",
"810 135 LINE",
"912 357 LINE",
"1054 338 LINE",
"986 0 LINE",
"-7 0 LINE",
"3 83 LINE"
);
},
{
closed = 1;
nodes = (
"679 1727 LINE",
"831 1727 LINE",
"1013 1434 LINE",
"927 1385 LINE",
"739 1570 LINE",
"461 1385 LINE",
"387 1434 LINE"
);
}
);
width = 1093;
}
);
note = Ecircumflex;
unicode = 00CA;
},
{
glyphname = Edieresis;
layers = (
{
layerId = "8EB560C1-B0F9-428E-B807-264CC4717BB6";
name = "Bold Italic";
paths = (
{
closed = 1;
nodes = (
"395 1619 OFFCURVE",
"421 1666 OFFCURVE",
"462 1691 CURVE SMOOTH",
"483 1703 OFFCURVE",
"505 1709 OFFCURVE",
"530 1709 CURVE SMOOTH",
"601 1709 OFFCURVE",
"645 1664 OFFCURVE",
"645 1601 CURVE SMOOTH",
"645 1514 OFFCURVE",
"589 1453 OFFCURVE",
"504 1453 CURVE SMOOTH",
"443 1453 OFFCURVE",
"395 1503 OFFCURVE",
"395 1566 CURVE SMOOTH"
);
},
{
closed = 1;
nodes = (
"771 1621 OFFCURVE",
"798 1667 OFFCURVE",
"839 1691 CURVE SMOOTH",
"860 1703 OFFCURVE",
"882 1709 OFFCURVE",
"907 1709 CURVE SMOOTH",
"978 1709 OFFCURVE",
"1021 1663 OFFCURVE",
"1021 1600 CURVE SMOOTH",
"1021 1515 OFFCURVE",
"967 1453 OFFCURVE",
"879 1453 CURVE SMOOTH",
"819 1453 OFFCURVE",
"771 1504 OFFCURVE",
"771 1568 CURVE SMOOTH"
);
},
{
closed = 1;
nodes = (
"137 109 LINE",
"276 1196 LINE",
"157 1218 LINE",
"166 1309 LINE",
"1055 1309 LINE",
"1035 1013 LINE",
"888 1013 LINE",
"854 1193 LINE",
"524 1210 LINE",
"461 741 LINE",
"851 766 LINE",
"829 596 LINE",
"447 616 LINE",
"378 109 LINE",
"810 135 LINE",
"912 357 LINE",
"1054 338 LINE",
"986 0 LINE",
"-7 0 LINE",
"3 83 LINE"
);
}
);
width = 1093;
}
);
note = Edieresis;
unicode = 00CB;
},
{
glyphname = Edotaccent;
layers = (
{
layerId = "8EB560C1-B0F9-428E-B807-264CC4717BB6";
name = "Bold Italic";
paths = (
{
closed = 1;
nodes = (
"561 1593 OFFCURVE",
"591 1642 OFFCURVE",
"639 1670 CURVE SMOOTH",
"662 1684 OFFCURVE",
"688 1691 OFFCURVE",
"716 1691 CURVE SMOOTH",
"767 1691 OFFCURVE",
"809 1666 OFFCURVE",
"832 1630 CURVE SMOOTH",
"843 1612 OFFCURVE",
"849 1593 OFFCURVE",
"849 1573 CURVE SMOOTH",
"849 1517 OFFCURVE",
"822 1466 OFFCURVE",
"773 1438 CURVE SMOOTH",
"748 1423 OFFCURVE",
"720 1416 OFFCURVE",
"688 1416 CURVE SMOOTH",
"645 1416 OFFCURVE",
"603 1442 OFFCURVE",
"579 1480 CURVE SMOOTH",
"567 1499 OFFCURVE",
"561 1518 OFFCURVE",
"561 1538 CURVE SMOOTH"
);
},
{
closed = 1;
nodes = (
"137 109 LINE",
"276 1196 LINE",
"157 1218 LINE",
"166 1309 LINE",
"1055 1309 LINE",
"1035 1013 LINE",
"888 1013 LINE",
"854 1193 LINE",
"524 1210 LINE",
"461 741 LINE",
"851 766 LINE",
"829 596 LINE",
"447 616 LINE",
"378 109 LINE",
"810 135 LINE",
"912 357 LINE",
"1054 338 LINE",
"986 0 LINE",
"-7 0 LINE",
"3 83 LINE"
);
}
);
width = 1093;
}
);
note = Edotaccent;
unicode = 0116;
},
{
glyphname = Egrave;
layers = (
{
layerId = "8EB560C1-B0F9-428E-B807-264CC4717BB6";
name = "Bold Italic";
paths = (
{
closed = 1;
nodes = (
"536 1727 LINE",
"768 1433 LINE",
"687 1367 LINE",
"630 1388 OFFCURVE",
"538 1442 OFFCURVE",
"469 1504 CURVE SMOOTH",
"434 1535 OFFCURVE",
"410 1564 OFFCURVE",
"396 1593 CURVE"
);
},
{
closed = 1;
nodes = (
"137 109 LINE",
"276 1196 LINE",
"157 1218 LINE",
"166 1309 LINE",
"1055 1309 LINE",
"1035 1013 LINE",
"888 1013 LINE",
"854 1193 LINE",
"524 1210 LINE",
"461 741 LINE",
"851 766 LINE",
"829 596 LINE",
"447 616 LINE",
"378 109 LINE",
"810 135 LINE",
"912 357 LINE",
"1054 338 LINE",
"986 0 LINE",
"-7 0 LINE",
"3 83 LINE"
);
}
);
width = 1093;
}
);
note = Egrave;
unicode = 00C8;
},
{
glyphname = Emacron;
layers = (
{
layerId = "8EB560C1-B0F9-428E-B807-264CC4717BB6";
name = "Bold Italic";
paths = (
{
closed = 1;
nodes = (
"940 1633 LINE",
"923 1477 LINE",
"455 1477 LINE",
"472 1633 LINE"
);
},
{
closed = 1;
nodes = (
"137 109 LINE",
"276 1196 LINE",
"157 1218 LINE",
"166 1309 LINE",
"1055 1309 LINE",
"1035 1013 LINE",
"888 1013 LINE",
"854 1193 LINE",
"524 1210 LINE",
"461 741 LINE",
"851 766 LINE",
"829 596 LINE",
"447 616 LINE",
"378 109 LINE",
"810 135 LINE",
"912 357 LINE",
"1054 338 LINE",
"986 0 LINE",
"-7 0 LINE",
"3 83 LINE"
);
}
);
width = 1093;
}
);
note = Emacron;
unicode = 0112;
},
{
glyphname = Eogonek;
layers = (
{
layerId = "8EB560C1-B0F9-428E-B807-264CC4717BB6";
name = "Bold Italic";
paths = (
{
closed = 1;
nodes = (
"137 109 LINE",
"276 1196 LINE",
"157 1218 LINE",
"166 1309 LINE",
"1055 1309 LINE",
"1035 1013 LINE",
"888 1013 LINE",
"854 1193 LINE",
"524 1210 LINE",
"461 741 LINE",
"851 766 LINE",
"829 596 LINE",
"447 616 LINE",
"378 109 LINE",
"810 135 LINE",
"912 357 LINE",
"1054 338 LINE",
"986 0 LINE",
"905 0 LINE",
"808 -71 OFFCURVE",
"752 -129 OFFCURVE",
"751 -180 CURVE SMOOTH",
"750 -227 OFFCURVE",
"771 -247 OFFCURVE",
"802 -247 CURVE SMOOTH",
"841 -247 OFFCURVE",
"874 -229 OFFCURVE",
"925 -188 CURVE",
"953 -279 LINE",
"888 -344 OFFCURVE",
"799 -389 OFFCURVE",
"692 -389 CURVE SMOOTH",
"595 -389 OFFCURVE",
"542 -332 OFFCURVE",
"542 -255 CURVE SMOOTH",
"542 -223 OFFCURVE",
"556 -178 OFFCURVE",
"579 -147 CURVE SMOOTH",
"631 -74 OFFCURVE",
"685 -37 OFFCURVE",
"757 0 CURVE",
"-7 0 LINE",
"3 83 LINE"
);
}
);
width = 1103;
}
);
note = Eogonek;
unicode = 0118;
},
{
glyphname = F;
layers = (
{
layerId = "8EB560C1-B0F9-428E-B807-264CC4717BB6";
name = "Bold Italic";
paths = (
{
closed = 1;
nodes = (
"137 109 LINE",
"276 1196 LINE",
"157 1218 LINE",
"168 1309 LINE",
"1080 1309 LINE",
"1052 1007 LINE",
"900 1007 LINE",
"874 1190 LINE",
"523 1209 LINE",
"461 737 LINE",
"870 752 LINE",
"851 585 LINE",
"447 611 LINE",
"381 110 LINE",
"617 84 LINE",
"610 0 LINE",
"5 0 LINE",
"14 84 LINE"
);
}
);
width = 1029;
}
);
note = F;
unicode = 0046;
},
{
glyphname = G;
layers = (
{
layerId = "8EB560C1-B0F9-428E-B807-264CC4717BB6";
name = "Bold Italic";
paths = (
{
closed = 1;
nodes = (
"906 1324 OFFCURVE",
"992 1306 OFFCURVE",
"1088 1281 CURVE SMOOTH",
"1111 1275 LINE",
"1155 1265 LINE",
"1103 992 LINE",
"938 992 LINE",
"925 1173 LINE",
"878 1203 OFFCURVE",
"818 1218 OFFCURVE",
"743 1218 CURVE SMOOTH",
"542 1218 OFFCURVE",
"419 1080 OFFCURVE",
"366 886 CURVE SMOOTH",
"339 789 OFFCURVE",
"326 683 OFFCURVE",
"326 570 CURVE SMOOTH",
"326 399 OFFCURVE",
"361 252 OFFCURVE",
"440 167 CURVE SMOOTH",
"479 124 OFFCURVE",
"529 103 OFFCURVE",
"589 103 CURVE SMOOTH",
"681 103 OFFCURVE",
"749 113 OFFCURVE",
"805 144 CURVE",
"853 507 LINE",
"667 522 LINE",
"681 636 LINE",
"1116 636 LINE",
"1039 76 LINE",
"1000 72 OFFCURVE",
"953 62 OFFCURVE",
"900 47 CURVE SMOOTH",
"800 20 OFFCURVE",
"753 7 OFFCURVE",
"668 -5 CURVE SMOOTH",
"625 -11 OFFCURVE",
"581 -14 OFFCURVE",
"534 -14 CURVE SMOOTH",
"318 -14 OFFCURVE",
"179 104 OFFCURVE",
"115 278 CURVE SMOOTH",
"83 365 OFFCURVE",
"67 459 OFFCURVE",
"67 561 CURVE SMOOTH",
"67 865 OFFCURVE",
"184 1102 OFFCURVE",
"391 1229 CURVE SMOOTH",
"494 1292 OFFCURVE",
"614 1324 OFFCURVE",
"751 1324 CURVE SMOOTH"
);
}
);
width = 1189;
}
);
note = G;
unicode = 0047;
},
{
glyphname = Gbreve;
layers = (
{
layerId = "8EB560C1-B0F9-428E-B807-264CC4717BB6";
name = "Bold Italic";
paths = (
{
closed = 1;
nodes = (
"498 1688 OFFCURVE",
"499 1705 OFFCURVE",
"501 1719 CURVE",
"632 1719 LINE",
"635 1656 OFFCURVE",
"640 1616 OFFCURVE",
"678 1586 CURVE SMOOTH",
"697 1571 OFFCURVE",
"725 1563 OFFCURVE",
"764 1563 CURVE SMOOTH",
"857 1563 OFFCURVE",
"911 1615 OFFCURVE",
"926 1719 CURVE",
"1052 1719 LINE",
"1052 1604 OFFCURVE",
"998 1503 OFFCURVE",
"910 1446 CURVE SMOOTH",
"865 1417 OFFCURVE",
"815 1403 OFFCURVE",
"759 1403 CURVE SMOOTH",
"568 1403 OFFCURVE",
"498 1522 OFFCURVE",
"498 1669 CURVE SMOOTH"
);
},
{
closed = 1;
nodes = (
"906 1324 OFFCURVE",
"992 1306 OFFCURVE",
"1088 1281 CURVE SMOOTH",
"1111 1275 LINE",
"1155 1265 LINE",
"1103 992 LINE",
"938 992 LINE",
"925 1173 LINE",
"878 1203 OFFCURVE",
"818 1218 OFFCURVE",
"743 1218 CURVE SMOOTH",
"542 1218 OFFCURVE",
"419 1080 OFFCURVE",
"366 886 CURVE SMOOTH",
"339 789 OFFCURVE",
"326 683 OFFCURVE",
"326 570 CURVE SMOOTH",
"326 399 OFFCURVE",
"361 252 OFFCURVE",
"440 167 CURVE SMOOTH",
"479 124 OFFCURVE",
"529 103 OFFCURVE",
"589 103 CURVE SMOOTH",
"681 103 OFFCURVE",
"749 113 OFFCURVE",
"805 144 CURVE",
"853 507 LINE",
"667 522 LINE",
"681 636 LINE",
"1116 636 LINE",
"1039 76 LINE",
"1000 72 OFFCURVE",
"953 62 OFFCURVE",
"900 47 CURVE SMOOTH",
"800 20 OFFCURVE",
"753 7 OFFCURVE",
"668 -5 CURVE SMOOTH",
"625 -11 OFFCURVE",
"581 -14 OFFCURVE",
"534 -14 CURVE SMOOTH",
"318 -14 OFFCURVE",
"179 104 OFFCURVE",
"115 278 CURVE SMOOTH",
"83 365 OFFCURVE",
"67 459 OFFCURVE",
"67 561 CURVE SMOOTH",
"67 865 OFFCURVE",
"184 1102 OFFCURVE",
"391 1229 CURVE SMOOTH",
"494 1292 OFFCURVE",
"614 1324 OFFCURVE",
"751 1324 CURVE SMOOTH"
);
}
);
width = 1196;
}
);
note = Gbreve;
unicode = 011E;
},
{
glyphname = Gcaron;
layers = (
{
layerId = "8EB560C1-B0F9-428E-B807-264CC4717BB6";
name = "Bold Italic";
paths = (
{
closed = 1;
nodes = (
"906 1324 OFFCURVE",
"992 1306 OFFCURVE",
"1088 1281 CURVE SMOOTH",
"1111 1275 LINE",
"1155 1265 LINE",
"1103 992 LINE",
"938 992 LINE",
"925 1173 LINE",
"878 1203 OFFCURVE",
"818 1218 OFFCURVE",
"743 1218 CURVE SMOOTH",
"542 1218 OFFCURVE",
"419 1080 OFFCURVE",
"366 886 CURVE SMOOTH",
"339 789 OFFCURVE",
"326 683 OFFCURVE",
"326 570 CURVE SMOOTH",
"326 399 OFFCURVE",
"361 252 OFFCURVE",
"440 167 CURVE SMOOTH",
"479 124 OFFCURVE",
"529 103 OFFCURVE",
"589 103 CURVE SMOOTH",
"681 103 OFFCURVE",
"749 113 OFFCURVE",
"805 144 CURVE",
"853 507 LINE",
"667 522 LINE",
"681 636 LINE",
"1116 636 LINE",
"1039 76 LINE",
"1000 72 OFFCURVE",
"953 62 OFFCURVE",
"900 47 CURVE SMOOTH",
"800 20 OFFCURVE",
"753 7 OFFCURVE",
"668 -5 CURVE SMOOTH",
"625 -11 OFFCURVE",
"581 -14 OFFCURVE",
"534 -14 CURVE SMOOTH",
"318 -14 OFFCURVE",
"179 104 OFFCURVE",
"115 278 CURVE SMOOTH",
"83 365 OFFCURVE",
"67 459 OFFCURVE",
"67 561 CURVE SMOOTH",
"67 865 OFFCURVE",
"184 1102 OFFCURVE",
"391 1229 CURVE SMOOTH",
"494 1292 OFFCURVE",
"614 1324 OFFCURVE",
"751 1324 CURVE SMOOTH"
);
},
{
closed = 1;
nodes = (
"579 1727 LINE",
"765 1555 LINE",
"1041 1727 LINE",
"1116 1678 LINE",
"827 1385 LINE",
"676 1385 LINE",
"491 1677 LINE"
);
}
);
width = 1189;
}
);
note = Gcaron;
unicode = 01E6;
},
{
glyphname = Gcircumflex;
layers = (
{
layerId = "8EB560C1-B0F9-428E-B807-264CC4717BB6";
name = "Bold Italic";
paths = (
{
closed = 1;
nodes = (
"906 1324 OFFCURVE",
"992 1306 OFFCURVE",
"1088 1281 CURVE SMOOTH",
"1111 1275 LINE",
"1155 1265 LINE",
"1103 992 LINE",
"938 992 LINE",
"925 1173 LINE",
"878 1203 OFFCURVE",
"818 1218 OFFCURVE",
"743 1218 CURVE SMOOTH",
"542 1218 OFFCURVE",
"419 1080 OFFCURVE",
"366 886 CURVE SMOOTH",
"339 789 OFFCURVE",
"326 683 OFFCURVE",
"326 570 CURVE SMOOTH",
"326 399 OFFCURVE",
"361 252 OFFCURVE",
"440 167 CURVE SMOOTH",
"479 124 OFFCURVE",
"529 103 OFFCURVE",
"589 103 CURVE SMOOTH",
"681 103 OFFCURVE",
"749 113 OFFCURVE",
"805 144 CURVE",
"853 507 LINE",
"667 522 LINE",
"681 636 LINE",
"1116 636 LINE",
"1039 76 LINE",
"1000 72 OFFCURVE",
"953 62 OFFCURVE",
"900 47 CURVE SMOOTH",
"800 20 OFFCURVE",
"753 7 OFFCURVE",
"668 -5 CURVE SMOOTH",
"625 -11 OFFCURVE",
"581 -14 OFFCURVE",
"534 -14 CURVE SMOOTH",
"318 -14 OFFCURVE",
"179 104 OFFCURVE",
"115 278 CURVE SMOOTH",
"83 365 OFFCURVE",
"67 459 OFFCURVE",
"67 561 CURVE SMOOTH",
"67 865 OFFCURVE",
"184 1102 OFFCURVE",
"391 1229 CURVE SMOOTH",
"494 1292 OFFCURVE",
"614 1324 OFFCURVE",
"751 1324 CURVE SMOOTH"
);
},
{
closed = 1;
nodes = (
"742 1727 LINE",
"894 1727 LINE",
"1076 1434 LINE",
"990 1385 LINE",
"802 1570 LINE",
"524 1385 LINE",
"450 1434 LINE"
);
}
);
width = 1189;
}
);
note = Gcircumflex;
unicode = 011C;
},
{
glyphname = Gcommaaccent;
layers = (
{
layerId = "8EB560C1-B0F9-428E-B807-264CC4717BB6";
name = "Bold Italic";
paths = (
{
closed = 1;
nodes = (
"459 -410 LINE",
"492 -386 OFFCURVE",
"520 -343 OFFCURVE",
"520 -288 CURVE SMOOTH",
"520 -244 OFFCURVE",
"493 -199 OFFCURVE",
"460 -194 CURVE",
"466 -125 LINE",
"589 -37 LINE",
"662 -53 OFFCURVE",
"712 -130 OFFCURVE",
"712 -218 CURVE SMOOTH",
"712 -309 OFFCURVE",
"671 -389 OFFCURVE",
"616 -437 CURVE SMOOTH",
"588 -461 OFFCURVE",
"561 -476 OFFCURVE",
"534 -482 CURVE",
"457 -433 LINE"
);
},
{
closed = 1;
nodes = (
"906 1324 OFFCURVE",
"992 1306 OFFCURVE",
"1088 1281 CURVE SMOOTH",
"1111 1275 LINE",
"1155 1265 LINE",
"1103 992 LINE",
"938 992 LINE",
"925 1173 LINE",
"878 1203 OFFCURVE",
"818 1218 OFFCURVE",
"743 1218 CURVE SMOOTH",
"542 1218 OFFCURVE",
"419 1080 OFFCURVE",
"366 886 CURVE SMOOTH",
"339 789 OFFCURVE",
"326 683 OFFCURVE",
"326 570 CURVE SMOOTH",
"326 399 OFFCURVE",
"361 252 OFFCURVE",
"440 167 CURVE SMOOTH",
"479 124 OFFCURVE",
"529 103 OFFCURVE",
"589 103 CURVE SMOOTH",
"681 103 OFFCURVE",
"749 113 OFFCURVE",
"805 144 CURVE",
"853 507 LINE",
"667 522 LINE",
"681 636 LINE",
"1116 636 LINE",
"1039 76 LINE",
"1000 72 OFFCURVE",
"953 62 OFFCURVE",
"900 47 CURVE SMOOTH",
"800 20 OFFCURVE",
"753 7 OFFCURVE",
"668 -5 CURVE SMOOTH",
"625 -11 OFFCURVE",
"581 -14 OFFCURVE",
"534 -14 CURVE SMOOTH",
"318 -14 OFFCURVE",
"179 104 OFFCURVE",
"115 278 CURVE SMOOTH",
"83 365 OFFCURVE",
"67 459 OFFCURVE",
"67 561 CURVE SMOOTH",
"67 865 OFFCURVE",
"184 1102 OFFCURVE",
"391 1229 CURVE SMOOTH",
"494 1292 OFFCURVE",
"614 1324 OFFCURVE",
"751 1324 CURVE SMOOTH"
);
}
);
width = 1196;
}
);
note = Gcommaaccent;
unicode = 0122;
},
{
glyphname = Gdotaccent;
layers = (
{
layerId = "8EB560C1-B0F9-428E-B807-264CC4717BB6";
name = "Bold Italic";
paths = (
{
closed = 1;
nodes = (
"624 1593 OFFCURVE",
"654 1642 OFFCURVE",
"702 1670 CURVE SMOOTH",
"725 1684 OFFCURVE",
"751 1691 OFFCURVE",
"779 1691 CURVE SMOOTH",
"830 1691 OFFCURVE",
"872 1666 OFFCURVE",
"895 1630 CURVE SMOOTH",
"906 1612 OFFCURVE",
"912 1593 OFFCURVE",
"912 1573 CURVE SMOOTH",
"912 1517 OFFCURVE",
"885 1466 OFFCURVE",
"836 1438 CURVE SMOOTH",
"811 1423 OFFCURVE",
"783 1416 OFFCURVE",
"751 1416 CURVE SMOOTH",
"708 1416 OFFCURVE",
"666 1442 OFFCURVE",
"642 1480 CURVE SMOOTH",
"630 1499 OFFCURVE",
"624 1518 OFFCURVE",
"624 1538 CURVE SMOOTH"
);
},
{
closed = 1;
nodes = (
"906 1324 OFFCURVE",
"992 1306 OFFCURVE",
"1088 1281 CURVE SMOOTH",
"1111 1275 LINE",
"1155 1265 LINE",
"1103 992 LINE",
"938 992 LINE",
"925 1173 LINE",
"878 1203 OFFCURVE",
"818 1218 OFFCURVE",
"743 1218 CURVE SMOOTH",
"542 1218 OFFCURVE",
"419 1080 OFFCURVE",
"366 886 CURVE SMOOTH",
"339 789 OFFCURVE",
"326 683 OFFCURVE",
"326 570 CURVE SMOOTH",
"326 399 OFFCURVE",
"361 252 OFFCURVE",
"440 167 CURVE SMOOTH",
"479 124 OFFCURVE",
"529 103 OFFCURVE",
"589 103 CURVE SMOOTH",
"681 103 OFFCURVE",
"749 113 OFFCURVE",
"805 144 CURVE",
"853 507 LINE",
"667 522 LINE",
"681 636 LINE",
"1116 636 LINE",
"1039 76 LINE",
"1000 72 OFFCURVE",
"953 62 OFFCURVE",
"900 47 CURVE SMOOTH",
"800 20 OFFCURVE",
"753 7 OFFCURVE",
"668 -5 CURVE SMOOTH",
"625 -11 OFFCURVE",
"581 -14 OFFCURVE",
"534 -14 CURVE SMOOTH",
"318 -14 OFFCURVE",
"179 104 OFFCURVE",
"115 278 CURVE SMOOTH",
"83 365 OFFCURVE",
"67 459 OFFCURVE",
"67 561 CURVE SMOOTH",
"67 865 OFFCURVE",
"184 1102 OFFCURVE",
"391 1229 CURVE SMOOTH",
"494 1292 OFFCURVE",
"614 1324 OFFCURVE",
"751 1324 CURVE SMOOTH"
);
}
);
width = 1196;
}
);
note = Gdotaccent;
unicode = 0120;
},
{
glyphname = H;
layers = (
{
layerId = "8EB560C1-B0F9-428E-B807-264CC4717BB6";
name = "Bold Italic";
paths = (
{
closed = 1;
nodes = (
"897 110 LINE",
"961 609 LINE",
"447 609 LINE",
"383 109 LINE",
"526 84 LINE",
"519 0 LINE",
"8 0 LINE",
"16 83 LINE",
"138 109 LINE",
"280 1196 LINE",
"159 1218 LINE",
"170 1309 LINE",
"679 1309 LINE",
"668 1218 LINE",
"524 1196 LINE",
"463 726 LINE",
"976 726 LINE",
"1037 1196 LINE",
"895 1218 LINE",
"905 1309 LINE",
"1418 1309 LINE",
"1408 1218 LINE",
"1281 1196 LINE",
"1141 110 LINE",
"1275 83 LINE",
"1265 0 LINE",
"734 0 LINE",
"743 84 LINE"
);
}
);
width = 1377;
}
);
note = H;
unicode = 0048;
},
{
glyphname = Hbar;
layers = (
{
layerId = "8EB560C1-B0F9-428E-B807-264CC4717BB6";
name = "Bold Italic";
paths = (
{
closed = 1;
nodes = (
"894 110 LINE",
"948 536 LINE",
"434 536 LINE",
"380 109 LINE",
"524 84 LINE",
"517 0 LINE",
"4 0 LINE",
"14 83 LINE",
"136 109 LINE",
"229 848 LINE",
"72 848 LINE",
"84 965 LINE",
"243 965 LINE",
"273 1201 LINE",
"154 1221 LINE",
"165 1312 LINE",
"673 1312 LINE",
"663 1221 LINE",
"519 1201 LINE",
"488 965 LINE",
"1002 965 LINE",
"1032 1201 LINE",
"889 1221 LINE",
"900 1312 LINE",
"1412 1312 LINE",
"1402 1221 LINE",
"1275 1201 LINE",
"1245 965 LINE",
"1408 965 LINE",
"1396 848 LINE",
"1231 848 LINE",
"1139 110 LINE",
"1271 83 LINE",
"1262 0 LINE",
"730 0 LINE",
"740 84 LINE"
);
},
{
closed = 1;
nodes = (
"962 652 LINE",
"987 848 LINE",
"474 848 LINE",
"449 652 LINE"
);
}
);
width = 1377;
}
);
note = Hbar;
unicode = 0126;
},
{
glyphname = Hcircumflex;
layers = (
{
layerId = "8EB560C1-B0F9-428E-B807-264CC4717BB6";
name = "Bold Italic";
paths = (
{
closed = 1;
nodes = (
"897 110 LINE",
"961 609 LINE",
"447 609 LINE",
"383 109 LINE",
"526 84 LINE",
"519 0 LINE",
"8 0 LINE",
"16 83 LINE",
"138 109 LINE",
"280 1196 LINE",
"159 1218 LINE",
"170 1309 LINE",
"679 1309 LINE",
"668 1218 LINE",
"524 1196 LINE",
"463 726 LINE",
"976 726 LINE",
"1037 1196 LINE",
"895 1218 LINE",
"905 1309 LINE",
"1418 1309 LINE",
"1408 1218 LINE",
"1281 1196 LINE",
"1141 110 LINE",
"1275 83 LINE",
"1265 0 LINE",
"734 0 LINE",
"743 84 LINE"
);
},
{
closed = 1;
nodes = (
"805 1727 LINE",
"957 1727 LINE",
"1139 1434 LINE",
"1053 1385 LINE",
"865 1570 LINE",
"587 1385 LINE",
"513 1434 LINE"
);
}
);
width = 1377;
}
);
note = Hcircumflex;
unicode = 0124;
},
{
glyphname = I;
layers = (
{
layerId = "8EB560C1-B0F9-428E-B807-264CC4717BB6";
name = "Bold Italic";
paths = (
{
closed = 1;
nodes = (
"140 109 LINE",
"281 1196 LINE",
"160 1218 LINE",
"170 1309 LINE",
"676 1309 LINE",
"666 1218 LINE",
"525 1196 LINE",
"385 109 LINE",
"529 84 LINE",
"522 0 LINE",
"3 0 LINE",
"12 83 LINE"
);
}
);
width = 636;
}
);
note = I;
unicode = 0049;
},
{
glyphname = IJ;
layers = (
{
layerId = "8EB560C1-B0F9-428E-B807-264CC4717BB6";
name = "Bold Italic";
paths = (
{
closed = 1;
nodes = (
"140 109 LINE",
"281 1196 LINE",
"160 1218 LINE",
"170 1309 LINE",
"676 1309 LINE",
"666 1218 LINE",
"525 1196 LINE",
"385 109 LINE",
"529 84 LINE",
"522 0 LINE",
"3 0 LINE",
"12 83 LINE"
);
},
{
closed = 1;
nodes = (
"802 1218 LINE",
"815 1309 LINE",
"1304 1309 LINE",
"1295 1218 LINE",
"1167 1197 LINE",
"1163 1164 LINE SMOOTH",
"1123 819 OFFCURVE",
"1092 559 OFFCURVE",
"1070 383 CURVE SMOOTH",
"1026 30 OFFCURVE",
"1009 -14 OFFCURVE",
"910 -114 CURVE SMOOTH",
"810 -215 OFFCURVE",
"674 -274 OFFCURVE",
"527 -297 CURVE",
"489 -212 LINE",
"600 -179 OFFCURVE",
"682 -114 OFFCURVE",
"730 -40 CURVE SMOOTH",
"754 -3 OFFCURVE",
"770 35 OFFCURVE",
"778 74 CURVE SMOOTH",
"826 313 OFFCURVE",
"854 538 OFFCURVE",
"902 973 CURVE SMOOTH",
"909 1037 OFFCURVE",
"916 1112 OFFCURVE",
"927 1196 CURVE"
);
}
);
width = 1266;
}
);
note = IJ;
unicode = 0132;
},
{
glyphname = Iacute;
layers = (
{
layerId = "8EB560C1-B0F9-428E-B807-264CC4717BB6";
name = "Bold Italic";
paths = (
{
closed = 1;
nodes = (
"140 109 LINE",
"281 1196 LINE",
"160 1218 LINE",
"170 1309 LINE",
"676 1309 LINE",
"666 1218 LINE",
"525 1196 LINE",
"385 109 LINE",
"529 84 LINE",
"522 0 LINE",
"3 0 LINE",
"12 83 LINE"
);
},
{
closed = 1;
nodes = (
"609 1727 LINE",
"747 1593 LINE",
"719 1537 OFFCURVE",
"641 1471 OFFCURVE",
"558 1421 CURVE SMOOTH",
"517 1396 OFFCURVE",
"481 1378 OFFCURVE",
"452 1367 CURVE",
"372 1433 LINE"
);
}
);
width = 636;
}
);
note = Iacute;
unicode = 00CD;
},
{
glyphname = Ibreve;
layers = (
{
layerId = "8EB560C1-B0F9-428E-B807-264CC4717BB6";
name = "Bold Italic";
paths = (
{
closed = 1;
nodes = (
"140 109 LINE",
"281 1196 LINE",
"160 1218 LINE",
"170 1309 LINE",
"676 1309 LINE",
"666 1218 LINE",
"525 1196 LINE",
"385 109 LINE",
"529 84 LINE",
"522 0 LINE",
"3 0 LINE",
"12 83 LINE"
);
},
{
closed = 1;
nodes = (
"199 1688 OFFCURVE",
"200 1705 OFFCURVE",
"202 1719 CURVE",
"333 1719 LINE",
"336 1656 OFFCURVE",
"341 1616 OFFCURVE",
"379 1586 CURVE SMOOTH",
"398 1571 OFFCURVE",
"426 1563 OFFCURVE",
"465 1563 CURVE SMOOTH",
"558 1563 OFFCURVE",
"612 1615 OFFCURVE",
"627 1719 CURVE",
"753 1719 LINE",
"753 1604 OFFCURVE",
"699 1503 OFFCURVE",
"611 1446 CURVE SMOOTH",
"566 1417 OFFCURVE",
"516 1403 OFFCURVE",
"460 1403 CURVE SMOOTH",
"269 1403 OFFCURVE",
"199 1522 OFFCURVE",
"199 1669 CURVE SMOOTH"
);
}
);
width = 636;
}
);
note = Ibreve;
unicode = 012C;
},
{
glyphname = Icircumflex;
layers = (
{
layerId = "8EB560C1-B0F9-428E-B807-264CC4717BB6";
name = "Bold Italic";
paths = (
{
closed = 1;
nodes = (
"140 109 LINE",
"281 1196 LINE",
"160 1218 LINE",
"170 1309 LINE",
"676 1309 LINE",
"666 1218 LINE",
"525 1196 LINE",
"385 109 LINE",
"529 84 LINE",
"522 0 LINE",
"3 0 LINE",
"12 83 LINE"
);
},
{
closed = 1;
nodes = (
"443 1727 LINE",
"595 1727 LINE",
"777 1434 LINE",
"691 1385 LINE",
"503 1570 LINE",
"225 1385 LINE",
"151 1434 LINE"
);
}
);
width = 636;
}
);
note = Icircumflex;
unicode = 00CE;
},
{
glyphname = Idieresis;
layers = (
{
layerId = "8EB560C1-B0F9-428E-B807-264CC4717BB6";
name = "Bold Italic";
paths = (
{
closed = 1;
nodes = (
"140 109 LINE",
"281 1196 LINE",
"160 1218 LINE",
"170 1309 LINE",
"676 1309 LINE",
"666 1218 LINE",
"525 1196 LINE",
"385 109 LINE",
"529 84 LINE",
"522 0 LINE",
"3 0 LINE",
"12 83 LINE"
);
},
{
closed = 1;
nodes = (
"160 1619 OFFCURVE",
"186 1666 OFFCURVE",
"227 1691 CURVE SMOOTH",
"248 1703 OFFCURVE",
"270 1709 OFFCURVE",
"295 1709 CURVE SMOOTH",
"366 1709 OFFCURVE",
"410 1664 OFFCURVE",
"410 1601 CURVE SMOOTH",
"410 1514 OFFCURVE",
"354 1453 OFFCURVE",
"269 1453 CURVE SMOOTH",
"208 1453 OFFCURVE",
"160 1503 OFFCURVE",
"160 1566 CURVE SMOOTH"
);
},
{
closed = 1;
nodes = (
"536 1621 OFFCURVE",
"563 1667 OFFCURVE",
"604 1691 CURVE SMOOTH",
"625 1703 OFFCURVE",
"647 1709 OFFCURVE",
"672 1709 CURVE SMOOTH",
"743 1709 OFFCURVE",
"786 1663 OFFCURVE",
"786 1600 CURVE SMOOTH",
"786 1515 OFFCURVE",
"732 1453 OFFCURVE",
"644 1453 CURVE SMOOTH",
"584 1453 OFFCURVE",
"536 1504 OFFCURVE",
"536 1568 CURVE SMOOTH"
);
}
);
width = 636;
}
);
note = Idieresis;
unicode = 00CF;
},
{
glyphname = Idotaccent;
layers = (
{
layerId = "8EB560C1-B0F9-428E-B807-264CC4717BB6";
name = "Bold Italic";
paths = (
{
closed = 1;
nodes = (
"140 109 LINE",
"281 1196 LINE",
"160 1218 LINE",
"170 1309 LINE",
"676 1309 LINE",
"666 1218 LINE",
"525 1196 LINE",
"385 109 LINE",
"529 84 LINE",
"522 0 LINE",
"3 0 LINE",
"12 83 LINE"
);
},
{
closed = 1;
nodes = (
"325 1593 OFFCURVE",
"355 1642 OFFCURVE",
"403 1670 CURVE SMOOTH",
"426 1684 OFFCURVE",
"452 1691 OFFCURVE",
"480 1691 CURVE SMOOTH",
"531 1691 OFFCURVE",
"573 1666 OFFCURVE",
"596 1630 CURVE SMOOTH",
"607 1612 OFFCURVE",
"613 1593 OFFCURVE",
"613 1573 CURVE SMOOTH",
"613 1517 OFFCURVE",
"586 1466 OFFCURVE",
"537 1438 CURVE SMOOTH",
"512 1423 OFFCURVE",
"484 1416 OFFCURVE",
"452 1416 CURVE SMOOTH",
"409 1416 OFFCURVE",
"367 1442 OFFCURVE",
"343 1480 CURVE SMOOTH",
"331 1499 OFFCURVE",
"325 1518 OFFCURVE",
"325 1538 CURVE SMOOTH"
);
}
);
width = 636;
}
);
note = Idotaccent;
unicode = 0130;
},
{
glyphname = Igrave;
layers = (
{
layerId = "8EB560C1-B0F9-428E-B807-264CC4717BB6";
name = "Bold Italic";
paths = (
{
closed = 1;
nodes = (
"140 109 LINE",
"281 1196 LINE",
"160 1218 LINE",
"170 1309 LINE",
"676 1309 LINE",
"666 1218 LINE",
"525 1196 LINE",
"385 109 LINE",
"529 84 LINE",
"522 0 LINE",
"3 0 LINE",
"12 83 LINE"
);
},
{
closed = 1;
nodes = (
"300 1727 LINE",
"532 1433 LINE",
"451 1367 LINE",
"394 1388 OFFCURVE",
"302 1442 OFFCURVE",
"233 1504 CURVE SMOOTH",
"198 1535 OFFCURVE",
"174 1564 OFFCURVE",
"160 1593 CURVE"
);
}
);
width = 636;
}
);
note = Igrave;
unicode = 00CC;
},
{
glyphname = Imacron;
layers = (
{
layerId = "8EB560C1-B0F9-428E-B807-264CC4717BB6";
name = "Bold Italic";
paths = (
{
closed = 1;
nodes = (
"140 109 LINE",
"281 1196 LINE",
"160 1218 LINE",
"170 1309 LINE",
"676 1309 LINE",
"666 1218 LINE",
"525 1196 LINE",
"385 109 LINE",
"529 84 LINE",
"522 0 LINE",
"3 0 LINE",
"12 83 LINE"
);
},
{
closed = 1;
nodes = (
"705 1633 LINE",
"688 1477 LINE",
"220 1477 LINE",
"237 1633 LINE"
);
}
);
width = 636;
}
);
note = Imacron;
unicode = 012A;
},
{
glyphname = Iogonek;
layers = (
{
layerId = "8EB560C1-B0F9-428E-B807-264CC4717BB6";
name = "Bold Italic";
paths = (
{
closed = 1;
nodes = (
"140 109 LINE",
"281 1196 LINE",
"160 1218 LINE",
"170 1309 LINE",
"676 1309 LINE",
"666 1218 LINE",
"525 1196 LINE",
"385 109 LINE",
"529 84 LINE",
"522 0 LINE",
"343 0 LINE",
"247 -71 OFFCURVE",
"190 -129 OFFCURVE",
"189 -180 CURVE SMOOTH",
"188 -228 OFFCURVE",
"210 -247 OFFCURVE",
"242 -247 CURVE SMOOTH",
"279 -247 OFFCURVE",
"313 -228 OFFCURVE",
"365 -188 CURVE",
"391 -279 LINE",
"326 -344 OFFCURVE",
"237 -389 OFFCURVE",
"132 -389 CURVE SMOOTH",
"33 -389 OFFCURVE",
"-20 -332 OFFCURVE",
"-20 -255 CURVE SMOOTH",
"-20 -223 OFFCURVE",
"-4 -178 OFFCURVE",
"17 -147 CURVE SMOOTH",
"70 -74 OFFCURVE",
"123 -37 OFFCURVE",
"195 0 CURVE",
"3 0 LINE",
"12 83 LINE"
);
}
);
width = 636;
}
);
note = Iogonek;
unicode = 012E;
},
{
glyphname = Itilde;
layers = (
{
layerId = "8EB560C1-B0F9-428E-B807-264CC4717BB6";
name = "Bold Italic";
paths = (
{
closed = 1;
nodes = (
"140 109 LINE",
"281 1196 LINE",
"160 1218 LINE",
"170 1309 LINE",
"676 1309 LINE",
"666 1218 LINE",
"525 1196 LINE",
"385 109 LINE",
"529 84 LINE",
"522 0 LINE",
"3 0 LINE",
"12 83 LINE"
);
},
{
closed = 1;
nodes = (
"153 1549 LINE",
"172 1600 OFFCURVE",
"212 1646 OFFCURVE",
"269 1674 CURVE SMOOTH",
"297 1687 OFFCURVE",
"328 1694 OFFCURVE",
"361 1694 CURVE SMOOTH",
"422 1694 OFFCURVE",
"459 1668 OFFCURVE",
"508 1623 CURVE SMOOTH",
"551 1584 OFFCURVE",
"572 1569 OFFCURVE",
"607 1569 CURVE SMOOTH",
"664 1569 OFFCURVE",
"697 1601 OFFCURVE",
"736 1650 CURVE",
"800 1557 LINE",
"780 1508 OFFCURVE",
"741 1458 OFFCURVE",
"685 1428 CURVE SMOOTH",
"657 1413 OFFCURVE",
"627 1405 OFFCURVE",
"595 1405 CURVE SMOOTH",
"547 1405 OFFCURVE",
"511 1420 OFFCURVE",
"487 1439 CURVE",
"474 1448 OFFCURVE",
"459 1461 OFFCURVE",
"442 1476 CURVE SMOOTH",
"402 1512 OFFCURVE",
"377 1531 OFFCURVE",
"336 1531 CURVE SMOOTH",
"288 1531 OFFCURVE",
"250 1503 OFFCURVE",
"211 1459 CURVE"
);
}
);
width = 636;
}
);
note = Itilde;
unicode = 0128;
},
{
glyphname = J;
layers = (
{
layerId = "8EB560C1-B0F9-428E-B807-264CC4717BB6";
name = "Bold Italic";
paths = (
{
closed = 1;
nodes = (
"166 1218 LINE",
"179 1309 LINE",
"668 1309 LINE",
"659 1218 LINE",
"531 1197 LINE",
"527 1164 LINE SMOOTH",
"487 819 OFFCURVE",
"456 559 OFFCURVE",
"434 383 CURVE SMOOTH",
"390 30 OFFCURVE",
"373 -14 OFFCURVE",
"274 -114 CURVE SMOOTH",
"174 -215 OFFCURVE",
"38 -274 OFFCURVE",
"-109 -297 CURVE",
"-147 -212 LINE",
"-36 -179 OFFCURVE",
"46 -114 OFFCURVE",
"94 -40 CURVE SMOOTH",
"118 -3 OFFCURVE",
"134 35 OFFCURVE",
"142 74 CURVE SMOOTH",
"190 313 OFFCURVE",
"218 538 OFFCURVE",
"266 973 CURVE SMOOTH",
"273 1037 OFFCURVE",
"280 1112 OFFCURVE",
"291 1196 CURVE"
);
}
);
width = 630;
}
);
note = J;
unicode = 004A;
},
{
glyphname = Jcircumflex;
layers = (
{
layerId = "8EB560C1-B0F9-428E-B807-264CC4717BB6";
name = "Bold Italic";
paths = (
{
closed = 1;
nodes = (
"166 1218 LINE",
"179 1309 LINE",
"668 1309 LINE",
"659 1218 LINE",
"531 1197 LINE",
"527 1164 LINE SMOOTH",
"487 819 OFFCURVE",
"456 559 OFFCURVE",
"434 383 CURVE SMOOTH",
"390 30 OFFCURVE",
"373 -14 OFFCURVE",
"274 -114 CURVE SMOOTH",
"174 -215 OFFCURVE",
"38 -274 OFFCURVE",
"-109 -297 CURVE",
"-147 -212 LINE",
"-36 -179 OFFCURVE",
"46 -114 OFFCURVE",
"94 -40 CURVE SMOOTH",
"118 -3 OFFCURVE",
"134 35 OFFCURVE",
"142 74 CURVE SMOOTH",
"190 313 OFFCURVE",
"218 538 OFFCURVE",
"266 973 CURVE SMOOTH",
"273 1037 OFFCURVE",
"280 1112 OFFCURVE",
"291 1196 CURVE"
);
},
{
closed = 1;
nodes = (
"427 1727 LINE",
"579 1727 LINE",
"761 1434 LINE",
"675 1385 LINE",
"487 1570 LINE",
"209 1385 LINE",
"135 1434 LINE"
);
}
);
width = 630;
}
);
note = Jcircumflex;
unicode = 0134;
},
{
glyphname = K;
layers = (
{
layerId = "8EB560C1-B0F9-428E-B807-264CC4717BB6";
name = "Bold Italic";
paths = (
{
closed = 1;
nodes = (
"696 341 LINE SMOOTH",
"643 463 OFFCURVE",
"605 547 OFFCURVE",
"581 592 CURVE",
"421 426 LINE",
"381 109 LINE",
"525 84 LINE",
"517 0 LINE",
"1 0 LINE",
"10 83 LINE",
"137 109 LINE",
"277 1196 LINE",
"157 1218 LINE",
"169 1309 LINE",
"676 1309 LINE",
"666 1218 LINE",
"521 1196 LINE",
"445 606 LINE",
"976 1196 LINE",
"867 1219 LINE",
"877 1309 LINE",
"1276 1309 LINE",
"1264 1218 LINE",
"1164 1197 LINE",
"740 757 LINE",
"763 720 OFFCURVE",
"807 637 OFFCURVE",
"874 508 CURVE SMOOTH",
"939 384 LINE",
"948 369 LINE",
"998 278 OFFCURVE",
"1034 216 OFFCURVE",
"1055 183 CURVE SMOOTH",
"1076 149 OFFCURVE",
"1096 127 OFFCURVE",
"1113 118 CURVE",
"1219 86 LINE",
"1207 0 LINE",
"896 0 LINE",
"874 3 OFFCURVE",
"851 23 OFFCURVE",
"828 62 CURVE SMOOTH",
"805 101 OFFCURVE",
"776 158 OFFCURVE",
"743 234 CURVE SMOOTH"
);
}
);
width = 1230;
}
);
note = K;
unicode = 004B;
},
{
glyphname = Kcommaaccent;
layers = (
{
layerId = "8EB560C1-B0F9-428E-B807-264CC4717BB6";
name = "Bold Italic";
paths = (
{
closed = 1;
nodes = (
"492 -408 LINE",
"525 -384 OFFCURVE",
"553 -341 OFFCURVE",
"553 -286 CURVE SMOOTH",
"553 -242 OFFCURVE",
"526 -197 OFFCURVE",
"493 -192 CURVE",
"499 -123 LINE",
"622 -35 LINE",
"695 -51 OFFCURVE",
"745 -128 OFFCURVE",
"745 -216 CURVE SMOOTH",
"745 -307 OFFCURVE",
"704 -387 OFFCURVE",
"649 -435 CURVE SMOOTH",
"621 -459 OFFCURVE",
"594 -474 OFFCURVE",
"567 -480 CURVE",
"490 -431 LINE"
);
},
{
closed = 1;
nodes = (
"693 341 LINE SMOOTH",
"640 463 OFFCURVE",
"602 547 OFFCURVE",
"578 592 CURVE",
"418 426 LINE",
"378 109 LINE",
"522 84 LINE",
"514 0 LINE",
"-2 0 LINE",
"7 83 LINE",
"134 109 LINE",
"274 1196 LINE",
"154 1218 LINE",
"166 1309 LINE",
"673 1309 LINE",
"663 1218 LINE",
"518 1196 LINE",
"442 606 LINE",
"973 1196 LINE",
"864 1219 LINE",
"874 1309 LINE",
"1273 1309 LINE",
"1261 1218 LINE",
"1161 1197 LINE",
"737 757 LINE",
"760 720 OFFCURVE",
"804 637 OFFCURVE",
"871 508 CURVE SMOOTH",
"936 384 LINE",
"945 369 LINE",
"995 278 OFFCURVE",
"1031 216 OFFCURVE",
"1052 183 CURVE SMOOTH",
"1073 149 OFFCURVE",
"1093 127 OFFCURVE",
"1110 118 CURVE",
"1216 86 LINE",
"1204 0 LINE",
"893 0 LINE",
"871 3 OFFCURVE",
"848 23 OFFCURVE",
"825 62 CURVE SMOOTH",
"802 101 OFFCURVE",
"773 158 OFFCURVE",
"740 234 CURVE SMOOTH"
);
}
);
width = 1227;
}
);
note = Kcommaaccent;
unicode = 0136;
},
{
glyphname = L;
layers = (
{
layerId = "8EB560C1-B0F9-428E-B807-264CC4717BB6";
name = "Bold Italic";
paths = (
{
closed = 1;
nodes = (
"137 109 LINE",
"277 1196 LINE",
"157 1218 LINE",
"168 1309 LINE",
"691 1309 LINE",
"680 1218 LINE",
"521 1196 LINE",
"381 106 LINE",
"731 120 LINE",
"884 461 LINE",
"1015 441 LINE",
"929 0 LINE",
"5 0 LINE",
"15 84 LINE"
);
}
);
width = 1056;
}
);
note = L;
unicode = 004C;
},
{
glyphname = Lacute;
layers = (
{
layerId = "8EB560C1-B0F9-428E-B807-264CC4717BB6";
name = "Bold Italic";
paths = (
{
closed = 1;
nodes = (
"628 1729 LINE",
"766 1595 LINE",
"738 1539 OFFCURVE",
"660 1473 OFFCURVE",
"577 1423 CURVE SMOOTH",
"536 1398 OFFCURVE",
"500 1380 OFFCURVE",
"471 1369 CURVE",
"391 1435 LINE"
);
},
{
closed = 1;
nodes = (
"137 109 LINE",
"277 1196 LINE",
"157 1218 LINE",
"168 1309 LINE",
"691 1309 LINE",
"680 1218 LINE",
"521 1196 LINE",
"381 106 LINE",
"731 120 LINE",
"884 461 LINE",
"1015 441 LINE",
"929 0 LINE",
"5 0 LINE",
"15 84 LINE"
);
}
);
width = 1056;
}
);
note = Lacute;
unicode = 0139;
},
{
glyphname = Lcaron;
layers = (
{
layerId = "8EB560C1-B0F9-428E-B807-264CC4717BB6";
name = "Bold Italic";
paths = (
{
closed = 1;
nodes = (
"137 109 LINE",
"277 1196 LINE",
"157 1218 LINE",
"168 1309 LINE",
"691 1309 LINE",
"680 1218 LINE",
"521 1196 LINE",
"381 106 LINE",
"731 120 LINE",
"884 461 LINE",
"1015 441 LINE",
"929 0 LINE",
"5 0 LINE",
"15 84 LINE"
);
},
{
closed = 1;
nodes = (
"803 915 LINE",
"820 980 OFFCURVE",
"837 1078 OFFCURVE",
"841 1170 CURVE",
"842 1176 OFFCURVE",
"842 1185 OFFCURVE",
"842 1198 CURVE SMOOTH",
"842 1258 OFFCURVE",
"831 1322 OFFCURVE",
"818 1343 CURVE",
"834 1379 LINE",
"994 1419 LINE",
"1014 1398 OFFCURVE",
"1024 1342 OFFCURVE",
"1024 1274 CURVE SMOOTH",
"1024 1259 OFFCURVE",
"1024 1248 OFFCURVE",
"1023 1241 CURVE",
"1015 1097 OFFCURVE",
"962 945 OFFCURVE",
"893 868 CURVE",
"808 893 LINE"
);
}
);
width = 1056;
}
);
note = Lcaron;
unicode = 013D;
},
{
glyphname = Lcommaaccent;
layers = (
{
layerId = "8EB560C1-B0F9-428E-B807-264CC4717BB6";
name = "Bold Italic";
paths = (
{
closed = 1;
nodes = (
"346 -408 LINE",
"379 -384 OFFCURVE",
"407 -341 OFFCURVE",
"407 -286 CURVE SMOOTH",
"407 -242 OFFCURVE",
"380 -197 OFFCURVE",
"347 -192 CURVE",
"353 -123 LINE",
"476 -35 LINE",
"549 -51 OFFCURVE",
"599 -128 OFFCURVE",
"599 -216 CURVE SMOOTH",
"599 -307 OFFCURVE",
"558 -387 OFFCURVE",
"503 -435 CURVE SMOOTH",
"475 -459 OFFCURVE",
"448 -474 OFFCURVE",
"421 -480 CURVE",
"344 -431 LINE"
);
},
{
closed = 1;
nodes = (
"137 109 LINE",
"277 1196 LINE",
"157 1218 LINE",
"168 1309 LINE",
"691 1309 LINE",
"680 1218 LINE",
"521 1196 LINE",
"381 106 LINE",
"731 120 LINE",
"884 461 LINE",
"1015 441 LINE",
"929 0 LINE",
"5 0 LINE",
"15 84 LINE"
);
}
);
width = 1056;
}
);
note = Lcommaaccent;
unicode = 013B;
},
{
glyphname = Ldot;
layers = (
{
layerId = "8EB560C1-B0F9-428E-B807-264CC4717BB6";
name = "Bold Italic";
paths = (
{
closed = 1;
nodes = (
"137 109 LINE",
"277 1196 LINE",
"157 1218 LINE",
"168 1309 LINE",
"691 1309 LINE",
"680 1218 LINE",
"521 1196 LINE",
"381 106 LINE",
"731 120 LINE",
"884 461 LINE",
"1015 441 LINE",
"929 0 LINE",
"5 0 LINE",
"15 84 LINE"
);
},
{
closed = 1;
nodes = (
"1019 910 OFFCURVE",
"1060 861 OFFCURVE",
"1060 794 CURVE SMOOTH",
"1060 726 OFFCURVE",
"1026 677 OFFCURVE",
"977 652 CURVE SMOOTH",
"952 639 OFFCURVE",
"926 633 OFFCURVE",
"899 633 CURVE SMOOTH",
"836 633 OFFCURVE",
"791 681 OFFCURVE",
"791 750 CURVE SMOOTH",
"791 811 OFFCURVE",
"823 862 OFFCURVE",
"870 890 CURVE SMOOTH",
"893 903 OFFCURVE",
"918 910 OFFCURVE",
"943 910 CURVE SMOOTH"
);
}
);
width = 1056;
}
);
note = Ldot;
unicode = 013F;
},
{
glyphname = Lslash;
layers = (
{
layerId = "8EB560C1-B0F9-428E-B807-264CC4717BB6";
name = "Bold Italic";
paths = (
{
closed = 1;
nodes = (
"199 591 LINE",
"277 1198 LINE",
"157 1219 LINE",
"168 1311 LINE",
"691 1311 LINE",
"680 1219 LINE",
"521 1198 LINE",
"457 698 LINE",
"755 823 LINE",
"785 714 LINE",
"440 574 LINE",
"381 108 LINE",
"731 121 LINE",
"884 463 LINE",
"1015 443 LINE",
"929 2 LINE",
"5 2 LINE",
"15 86 LINE",
"137 111 LINE",
"182 468 LINE",
"52 415 LINE",
"22 517 LINE"
);
}
);
width = 1056;
}
);
note = Lslash;
unicode = 0141;
},
{
glyphname = M;
layers = (
{
layerId = "8EB560C1-B0F9-428E-B807-264CC4717BB6";
name = "Bold Italic";
paths = (
{
closed = 1;
nodes = (
"85 109 LINE",
"362 1196 LINE",
"208 1218 LINE",
"220 1309 LINE",
"719 1309 LINE",
"829 506 LINE",
"845 359 LINE",
"896 506 LINE",
"998 749 LINE",
"1232 1309 LINE",
"1682 1309 LINE",
"1672 1218 LINE",
"1525 1196 LINE",
"1496 110 LINE",
"1642 84 LINE",
"1634 0 LINE",
"1091 0 LINE",
"1099 85 LINE",
"1256 109 LINE",
"1298 861 LINE",
"1319 1205 LINE",
"1199 902 LINE",
"808 -3 LINE",
"685 -15 LINE",
"554 882 LINE",
"505 1205 LINE",
"436 873 LINE",
"255 109 LINE",
"433 84 LINE",
"426 0 LINE",
"-63 0 LINE",
"-52 84 LINE"
);
}
);
width = 1681;
}
);
note = M;
unicode = 004D;
},
{
glyphname = N;
layers = (
{
layerId = "8EB560C1-B0F9-428E-B807-264CC4717BB6";
name = "Bold Italic";
paths = (
{
closed = 1;
nodes = (
"134 108 LINE",
"287 1196 LINE",
"150 1218 LINE",
"164 1309 LINE",
"561 1309 LINE",
"917 416 LINE",
"981 217 LINE",
"1101 1197 LINE",
"961 1218 LINE",
"971 1309 LINE",
"1384 1309 LINE",
"1374 1218 LINE",
"1260 1196 LINE",
"1081 0 LINE",
"838 0 LINE",
"470 910 LINE",
"409 1116 LINE",
"302 109 LINE",
"453 84 LINE",
"445 0 LINE",
"3 0 LINE",
"10 83 LINE"
);
}
);
width = 1322;
}
);
note = N;
unicode = 004E;
},
{
glyphname = Nacute;
layers = (
{
layerId = "8EB560C1-B0F9-428E-B807-264CC4717BB6";
name = "Bold Italic";
paths = (
{
closed = 1;
nodes = (
"936 1727 LINE",
"1074 1593 LINE",
"1046 1537 OFFCURVE",
"968 1471 OFFCURVE",
"885 1421 CURVE SMOOTH",
"844 1396 OFFCURVE",
"808 1378 OFFCURVE",
"779 1367 CURVE",
"699 1433 LINE"
);
},
{
closed = 1;
nodes = (
"134 108 LINE",
"287 1196 LINE",
"150 1218 LINE",
"164 1309 LINE",
"561 1309 LINE",
"917 416 LINE",
"981 217 LINE",
"1101 1197 LINE",
"961 1218 LINE",
"971 1309 LINE",
"1384 1309 LINE",
"1374 1218 LINE",
"1260 1196 LINE",
"1081 0 LINE",
"838 0 LINE",
"470 910 LINE",
"409 1116 LINE",
"302 109 LINE",
"453 84 LINE",
"445 0 LINE",
"3 0 LINE",
"10 83 LINE"
);
}
);
width = 1322;
}
);
note = Nacute;
unicode = 0143;
},
{
glyphname = Ncaron;
layers = (
{
layerId = "8EB560C1-B0F9-428E-B807-264CC4717BB6";
name = "Bold Italic";
paths = (
{
closed = 1;
nodes = (
"607 1727 LINE",
"793 1555 LINE",
"1069 1727 LINE",
"1144 1678 LINE",
"855 1385 LINE",
"704 1385 LINE",
"519 1677 LINE"
);
},
{
closed = 1;
nodes = (
"134 108 LINE",
"287 1196 LINE",
"150 1218 LINE",
"164 1309 LINE",
"561 1309 LINE",
"917 416 LINE",
"981 217 LINE",
"1101 1197 LINE",
"961 1218 LINE",
"971 1309 LINE",
"1384 1309 LINE",
"1374 1218 LINE",
"1260 1196 LINE",
"1081 0 LINE",
"838 0 LINE",
"470 910 LINE",
"409 1116 LINE",
"302 109 LINE",
"453 84 LINE",
"445 0 LINE",
"3 0 LINE",
"10 83 LINE"
);
}
);
width = 1322;
}
);
note = Ncaron;
unicode = 0147;
},
{
glyphname = Ncommaaccent;
layers = (
{
layerId = "8EB560C1-B0F9-428E-B807-264CC4717BB6";
name = "Bold Italic";
paths = (
{
closed = 1;
nodes = (
"472 -410 LINE",
"505 -386 OFFCURVE",
"533 -343 OFFCURVE",
"533 -288 CURVE SMOOTH",
"533 -244 OFFCURVE",
"506 -199 OFFCURVE",
"473 -194 CURVE",
"479 -125 LINE",
"602 -37 LINE",
"675 -53 OFFCURVE",
"725 -130 OFFCURVE",
"725 -218 CURVE SMOOTH",
"725 -309 OFFCURVE",
"684 -389 OFFCURVE",
"629 -437 CURVE SMOOTH",
"601 -461 OFFCURVE",
"574 -476 OFFCURVE",
"547 -482 CURVE",
"470 -433 LINE"
);
},
{
closed = 1;
nodes = (
"134 108 LINE",
"287 1196 LINE",
"150 1218 LINE",
"164 1309 LINE",
"561 1309 LINE",
"917 416 LINE",
"981 217 LINE",
"1101 1197 LINE",
"961 1218 LINE",
"971 1309 LINE",
"1384 1309 LINE",
"1374 1218 LINE",
"1260 1196 LINE",
"1081 0 LINE",
"838 0 LINE",
"470 910 LINE",
"409 1116 LINE",
"302 109 LINE",
"453 84 LINE",
"445 0 LINE",
"3 0 LINE",
"10 83 LINE"
);
}
);
width = 1322;
}
);
note = Ncommaaccent;
unicode = 0145;
},
{
glyphname = Eng;
layers = (
{
layerId = "8EB560C1-B0F9-428E-B807-264CC4717BB6";
name = "Bold Italic";
paths = (
{
closed = 1;
nodes = (
"132 108 LINE",
"285 1201 LINE",
"145 1221 LINE",
"160 1312 LINE",
"557 1312 LINE",
"925 457 LINE",
"983 263 LINE",
"1093 1201 LINE",
"957 1221 LINE",
"968 1312 LINE",
"1378 1312 LINE",
"1369 1221 LINE",
"1255 1201 LINE",
"1080 0 LINE SMOOTH",
"1061 -135 OFFCURVE",
"976 -244 OFFCURVE",
"852 -310 CURVE SMOOTH",
"790 -343 OFFCURVE",
"722 -364 OFFCURVE",
"649 -372 CURVE",
"612 -281 LINE",
"693 -260 OFFCURVE",
"778 -206 OFFCURVE",
"830 -129 CURVE SMOOTH",
"856 -90 OFFCURVE",
"869 -47 OFFCURVE",
"870 0 CURVE",
"464 906 LINE",
"406 1098 LINE",
"302 109 LINE",
"452 84 LINE",
"444 0 LINE",
"2 0 LINE",
"9 83 LINE"
);
}
);
width = 1321;
}
);
note = Eng;
unicode = 014A;
},
{
glyphname = Ntilde;
layers = (
{
layerId = "8EB560C1-B0F9-428E-B807-264CC4717BB6";
name = "Bold Italic";
paths = (
{
closed = 1;
nodes = (
"480 1549 LINE",
"499 1600 OFFCURVE",
"539 1646 OFFCURVE",
"596 1674 CURVE SMOOTH",
"624 1687 OFFCURVE",
"655 1694 OFFCURVE",
"688 1694 CURVE SMOOTH",
"749 1694 OFFCURVE",
"786 1668 OFFCURVE",
"835 1623 CURVE SMOOTH",
"878 1584 OFFCURVE",
"899 1569 OFFCURVE",
"934 1569 CURVE SMOOTH",
"991 1569 OFFCURVE",
"1024 1601 OFFCURVE",
"1063 1650 CURVE",
"1127 1557 LINE",
"1107 1508 OFFCURVE",
"1068 1458 OFFCURVE",
"1012 1428 CURVE SMOOTH",
"984 1413 OFFCURVE",
"954 1405 OFFCURVE",
"922 1405 CURVE SMOOTH",
"874 1405 OFFCURVE",
"838 1420 OFFCURVE",
"814 1439 CURVE",
"801 1448 OFFCURVE",
"786 1461 OFFCURVE",
"769 1476 CURVE SMOOTH",
"729 1512 OFFCURVE",
"704 1531 OFFCURVE",
"663 1531 CURVE SMOOTH",
"615 1531 OFFCURVE",
"577 1503 OFFCURVE",
"538 1459 CURVE"
);
},
{
closed = 1;
nodes = (
"134 108 LINE",
"287 1196 LINE",
"150 1218 LINE",
"164 1309 LINE",
"561 1309 LINE",
"917 416 LINE",
"981 217 LINE",
"1101 1197 LINE",
"961 1218 LINE",
"971 1309 LINE",
"1384 1309 LINE",
"1374 1218 LINE",
"1260 1196 LINE",
"1081 0 LINE",
"838 0 LINE",
"470 910 LINE",
"409 1116 LINE",
"302 109 LINE",
"453 84 LINE",
"445 0 LINE",
"3 0 LINE",
"10 83 LINE"
);
}
);
width = 1322;
}
);
note = Ntilde;
unicode = 00D1;
},
{
glyphname = O;
layers = (
{
layerId = "8EB560C1-B0F9-428E-B807-264CC4717BB6";
name = "Bold Italic";
paths = (
{
closed = 1;
nodes = (
"929 1326 OFFCURVE",
"1070 1218 OFFCURVE",
"1135 1050 CURVE SMOOTH",
"1168 965 OFFCURVE",
"1184 870 OFFCURVE",
"1184 765 CURVE SMOOTH",
"1184 481 OFFCURVE",
"1083 230 OFFCURVE",
"890 89 CURVE SMOOTH",
"793 18 OFFCURVE",
"678 -17 OFFCURVE",
"543 -17 CURVE SMOOTH",
"331 -17 OFFCURVE",
"192 88 OFFCURVE",
"125 259 CURVE SMOOTH",
"92 344 OFFCURVE",
"75 441 OFFCURVE",
"75 550 CURVE SMOOTH",
"75 834 OFFCURVE",
"180 1082 OFFCURVE",
"374 1222 CURVE SMOOTH",
"471 1291 OFFCURVE",
"585 1326 OFFCURVE",
"716 1326 CURVE SMOOTH"
);
},
{
closed = 1;
nodes = (
"922 1046 OFFCURVE",
"847 1219 OFFCURVE",
"691 1219 CURVE SMOOTH",
"551 1219 OFFCURVE",
"438 1093 OFFCURVE",
"379 894 CURVE SMOOTH",
"350 794 OFFCURVE",
"335 685 OFFCURVE",
"335 567 CURVE SMOOTH",
"335 286 OFFCURVE",
"404 87 OFFCURVE",
"568 87 CURVE SMOOTH",
"712 87 OFFCURVE",
"823 208 OFFCURVE",
"880 407 CURVE SMOOTH",
"908 506 OFFCURVE",
"922 618 OFFCURVE",
"922 742 CURVE SMOOTH"
);
}
);
width = 1226;
}
);
note = O;
unicode = 004F;
},
{
glyphname = Oacute;
layers = (
{
layerId = "8EB560C1-B0F9-428E-B807-264CC4717BB6";
name = "Bold Italic";
paths = (
{
closed = 1;
nodes = (
"885 1727 LINE",
"1023 1593 LINE",
"995 1537 OFFCURVE",
"917 1471 OFFCURVE",
"834 1421 CURVE SMOOTH",
"793 1396 OFFCURVE",
"757 1378 OFFCURVE",
"728 1367 CURVE",
"648 1433 LINE"
);
},
{
closed = 1;
nodes = (
"931 1326 OFFCURVE",
"1072 1218 OFFCURVE",
"1137 1050 CURVE SMOOTH",
"1170 965 OFFCURVE",
"1186 870 OFFCURVE",
"1186 765 CURVE SMOOTH",
"1186 481 OFFCURVE",
"1085 230 OFFCURVE",
"892 89 CURVE SMOOTH",
"795 18 OFFCURVE",
"680 -17 OFFCURVE",
"545 -17 CURVE SMOOTH",
"333 -17 OFFCURVE",
"194 88 OFFCURVE",
"127 259 CURVE SMOOTH",
"94 344 OFFCURVE",
"77 441 OFFCURVE",
"77 550 CURVE SMOOTH",
"77 834 OFFCURVE",
"182 1082 OFFCURVE",
"376 1222 CURVE SMOOTH",
"473 1291 OFFCURVE",
"587 1326 OFFCURVE",
"718 1326 CURVE SMOOTH"
);
},
{
closed = 1;
nodes = (
"924 1046 OFFCURVE",
"849 1219 OFFCURVE",
"693 1219 CURVE SMOOTH",
"553 1219 OFFCURVE",
"440 1093 OFFCURVE",
"381 894 CURVE SMOOTH",
"352 794 OFFCURVE",
"337 685 OFFCURVE",
"337 567 CURVE SMOOTH",
"337 286 OFFCURVE",
"406 87 OFFCURVE",
"570 87 CURVE SMOOTH",
"714 87 OFFCURVE",
"825 208 OFFCURVE",
"882 407 CURVE SMOOTH",
"910 506 OFFCURVE",
"924 618 OFFCURVE",
"924 742 CURVE SMOOTH"
);
}
);
width = 1226;
}
);
note = Oacute;
unicode = 00D3;
},
{
glyphname = Obreve;
layers = (
{
layerId = "8EB560C1-B0F9-428E-B807-264CC4717BB6";
name = "Bold Italic";
paths = (
{
closed = 1;
nodes = (
"474 1688 OFFCURVE",
"475 1705 OFFCURVE",
"477 1719 CURVE",
"608 1719 LINE",
"611 1656 OFFCURVE",
"616 1616 OFFCURVE",
"654 1586 CURVE SMOOTH",
"673 1571 OFFCURVE",
"701 1563 OFFCURVE",
"740 1563 CURVE SMOOTH",
"833 1563 OFFCURVE",
"887 1615 OFFCURVE",
"902 1719 CURVE",
"1028 1719 LINE",
"1028 1604 OFFCURVE",
"974 1503 OFFCURVE",
"886 1446 CURVE SMOOTH",
"841 1417 OFFCURVE",
"791 1403 OFFCURVE",
"735 1403 CURVE SMOOTH",
"544 1403 OFFCURVE",
"474 1522 OFFCURVE",
"474 1669 CURVE SMOOTH"
);
},
{
closed = 1;
nodes = (
"931 1326 OFFCURVE",
"1072 1218 OFFCURVE",
"1137 1050 CURVE SMOOTH",
"1170 965 OFFCURVE",
"1186 870 OFFCURVE",
"1186 765 CURVE SMOOTH",
"1186 481 OFFCURVE",
"1085 230 OFFCURVE",
"892 89 CURVE SMOOTH",
"795 18 OFFCURVE",
"680 -17 OFFCURVE",
"545 -17 CURVE SMOOTH",
"333 -17 OFFCURVE",
"194 88 OFFCURVE",
"127 259 CURVE SMOOTH",
"94 344 OFFCURVE",
"77 441 OFFCURVE",
"77 550 CURVE SMOOTH",
"77 834 OFFCURVE",
"182 1082 OFFCURVE",
"376 1222 CURVE SMOOTH",
"473 1291 OFFCURVE",
"587 1326 OFFCURVE",
"718 1326 CURVE SMOOTH"
);
},
{
closed = 1;
nodes = (
"924 1046 OFFCURVE",
"849 1219 OFFCURVE",
"693 1219 CURVE SMOOTH",
"553 1219 OFFCURVE",
"440 1093 OFFCURVE",
"381 894 CURVE SMOOTH",
"352 794 OFFCURVE",
"337 685 OFFCURVE",
"337 567 CURVE SMOOTH",
"337 286 OFFCURVE",
"406 87 OFFCURVE",
"570 87 CURVE SMOOTH",
"714 87 OFFCURVE",
"825 208 OFFCURVE",
"882 407 CURVE SMOOTH",
"910 506 OFFCURVE",
"924 618 OFFCURVE",
"924 742 CURVE SMOOTH"
);
}
);
width = 1226;
}
);
note = Obreve;
unicode = 014E;
},
{
glyphname = Ocircumflex;
layers = (
{
layerId = "8EB560C1-B0F9-428E-B807-264CC4717BB6";
name = "Bold Italic";
paths = (
{
closed = 1;
nodes = (
"929 1326 OFFCURVE",
"1070 1218 OFFCURVE",
"1135 1050 CURVE SMOOTH",
"1168 965 OFFCURVE",
"1184 870 OFFCURVE",
"1184 765 CURVE SMOOTH",
"1184 481 OFFCURVE",
"1083 230 OFFCURVE",
"890 89 CURVE SMOOTH",
"793 18 OFFCURVE",
"678 -17 OFFCURVE",
"543 -17 CURVE SMOOTH",
"331 -17 OFFCURVE",
"192 88 OFFCURVE",
"125 259 CURVE SMOOTH",
"92 344 OFFCURVE",
"75 441 OFFCURVE",
"75 550 CURVE SMOOTH",
"75 834 OFFCURVE",
"180 1082 OFFCURVE",
"374 1222 CURVE SMOOTH",
"471 1291 OFFCURVE",
"585 1326 OFFCURVE",
"716 1326 CURVE SMOOTH"
);
},
{
closed = 1;
nodes = (
"922 1046 OFFCURVE",
"847 1219 OFFCURVE",
"691 1219 CURVE SMOOTH",
"551 1219 OFFCURVE",
"438 1093 OFFCURVE",
"379 894 CURVE SMOOTH",
"350 794 OFFCURVE",
"335 685 OFFCURVE",
"335 567 CURVE SMOOTH",
"335 286 OFFCURVE",
"404 87 OFFCURVE",
"568 87 CURVE SMOOTH",
"712 87 OFFCURVE",
"823 208 OFFCURVE",
"880 407 CURVE SMOOTH",
"908 506 OFFCURVE",
"922 618 OFFCURVE",
"922 742 CURVE SMOOTH"
);
},
{
closed = 1;
nodes = (
"717 1727 LINE",
"869 1727 LINE",
"1051 1434 LINE",
"965 1385 LINE",
"777 1570 LINE",
"499 1385 LINE",
"425 1434 LINE"
);
}
);
width = 1226;
}
);
note = Ocircumflex;
unicode = 00D4;
},
{
glyphname = Odieresis;
layers = (
{
layerId = "8EB560C1-B0F9-428E-B807-264CC4717BB6";
name = "Bold Italic";
paths = (
{
closed = 1;
nodes = (
"435 1619 OFFCURVE",
"461 1666 OFFCURVE",
"502 1691 CURVE SMOOTH",
"523 1703 OFFCURVE",
"545 1709 OFFCURVE",
"570 1709 CURVE SMOOTH",
"641 1709 OFFCURVE",
"685 1664 OFFCURVE",
"685 1601 CURVE SMOOTH",
"685 1514 OFFCURVE",
"629 1453 OFFCURVE",
"544 1453 CURVE SMOOTH",
"483 1453 OFFCURVE",
"435 1503 OFFCURVE",
"435 1566 CURVE SMOOTH"
);
},
{
closed = 1;
nodes = (
"811 1621 OFFCURVE",
"838 1667 OFFCURVE",
"879 1691 CURVE SMOOTH",
"900 1703 OFFCURVE",
"922 1709 OFFCURVE",
"947 1709 CURVE SMOOTH",
"1018 1709 OFFCURVE",
"1061 1663 OFFCURVE",
"1061 1600 CURVE SMOOTH",
"1061 1515 OFFCURVE",
"1007 1453 OFFCURVE",
"919 1453 CURVE SMOOTH",
"859 1453 OFFCURVE",
"811 1504 OFFCURVE",
"811 1568 CURVE SMOOTH"
);
},
{
closed = 1;
nodes = (
"931 1326 OFFCURVE",
"1072 1218 OFFCURVE",
"1137 1050 CURVE SMOOTH",
"1170 965 OFFCURVE",
"1186 870 OFFCURVE",
"1186 765 CURVE SMOOTH",
"1186 481 OFFCURVE",
"1085 230 OFFCURVE",
"892 89 CURVE SMOOTH",
"795 18 OFFCURVE",
"680 -17 OFFCURVE",
"545 -17 CURVE SMOOTH",
"333 -17 OFFCURVE",
"194 88 OFFCURVE",
"127 259 CURVE SMOOTH",
"94 344 OFFCURVE",
"77 441 OFFCURVE",
"77 550 CURVE SMOOTH",
"77 834 OFFCURVE",
"182 1082 OFFCURVE",
"376 1222 CURVE SMOOTH",
"473 1291 OFFCURVE",
"587 1326 OFFCURVE",
"718 1326 CURVE SMOOTH"
);
},
{
closed = 1;
nodes = (
"924 1046 OFFCURVE",
"849 1219 OFFCURVE",
"693 1219 CURVE SMOOTH",
"553 1219 OFFCURVE",
"440 1093 OFFCURVE",
"381 894 CURVE SMOOTH",
"352 794 OFFCURVE",
"337 685 OFFCURVE",
"337 567 CURVE SMOOTH",
"337 286 OFFCURVE",
"406 87 OFFCURVE",
"570 87 CURVE SMOOTH",
"714 87 OFFCURVE",
"825 208 OFFCURVE",
"882 407 CURVE SMOOTH",
"910 506 OFFCURVE",
"924 618 OFFCURVE",
"924 742 CURVE SMOOTH"
);
}
);
width = 1226;
}
);
note = Odieresis;
unicode = 00D6;
},
{
glyphname = Ograve;
layers = (
{
layerId = "8EB560C1-B0F9-428E-B807-264CC4717BB6";
name = "Bold Italic";
paths = (
{
closed = 1;
nodes = (
"575 1727 LINE",
"807 1433 LINE",
"726 1367 LINE",
"669 1388 OFFCURVE",
"577 1442 OFFCURVE",
"508 1504 CURVE SMOOTH",
"473 1535 OFFCURVE",
"449 1564 OFFCURVE",
"435 1593 CURVE"
);
},
{
closed = 1;
nodes = (
"931 1326 OFFCURVE",
"1072 1218 OFFCURVE",
"1137 1050 CURVE SMOOTH",
"1170 965 OFFCURVE",
"1186 870 OFFCURVE",
"1186 765 CURVE SMOOTH",
"1186 481 OFFCURVE",
"1085 230 OFFCURVE",
"892 89 CURVE SMOOTH",
"795 18 OFFCURVE",
"680 -17 OFFCURVE",
"545 -17 CURVE SMOOTH",
"333 -17 OFFCURVE",
"194 88 OFFCURVE",
"127 259 CURVE SMOOTH",
"94 344 OFFCURVE",
"77 441 OFFCURVE",
"77 550 CURVE SMOOTH",
"77 834 OFFCURVE",
"182 1082 OFFCURVE",
"376 1222 CURVE SMOOTH",
"473 1291 OFFCURVE",
"587 1326 OFFCURVE",
"718 1326 CURVE SMOOTH"
);
},
{
closed = 1;
nodes = (
"924 1046 OFFCURVE",
"849 1219 OFFCURVE",
"693 1219 CURVE SMOOTH",
"553 1219 OFFCURVE",
"440 1093 OFFCURVE",
"381 894 CURVE SMOOTH",
"352 794 OFFCURVE",
"337 685 OFFCURVE",
"337 567 CURVE SMOOTH",
"337 286 OFFCURVE",
"406 87 OFFCURVE",
"570 87 CURVE SMOOTH",
"714 87 OFFCURVE",
"825 208 OFFCURVE",
"882 407 CURVE SMOOTH",
"910 506 OFFCURVE",
"924 618 OFFCURVE",
"924 742 CURVE SMOOTH"
);
}
);
width = 1226;
}
);
note = Ograve;
unicode = 00D2;
},
{
glyphname = Ohungarumlaut;
layers = (
{
layerId = "8EB560C1-B0F9-428E-B807-264CC4717BB6";
name = "Bold Italic";
paths = (
{
closed = 1;
nodes = (
"929 1326 OFFCURVE",
"1070 1218 OFFCURVE",
"1135 1050 CURVE SMOOTH",
"1168 965 OFFCURVE",
"1184 870 OFFCURVE",
"1184 765 CURVE SMOOTH",
"1184 481 OFFCURVE",
"1083 230 OFFCURVE",
"890 89 CURVE SMOOTH",
"793 18 OFFCURVE",
"678 -17 OFFCURVE",
"543 -17 CURVE SMOOTH",
"331 -17 OFFCURVE",
"192 88 OFFCURVE",
"125 259 CURVE SMOOTH",
"92 344 OFFCURVE",
"75 441 OFFCURVE",
"75 550 CURVE SMOOTH",
"75 834 OFFCURVE",
"180 1082 OFFCURVE",
"374 1222 CURVE SMOOTH",
"471 1291 OFFCURVE",
"585 1326 OFFCURVE",
"716 1326 CURVE SMOOTH"
);
},
{
closed = 1;
nodes = (
"922 1046 OFFCURVE",
"847 1219 OFFCURVE",
"691 1219 CURVE SMOOTH",
"551 1219 OFFCURVE",
"438 1093 OFFCURVE",
"379 894 CURVE SMOOTH",
"350 794 OFFCURVE",
"335 685 OFFCURVE",
"335 567 CURVE SMOOTH",
"335 286 OFFCURVE",
"404 87 OFFCURVE",
"568 87 CURVE SMOOTH",
"712 87 OFFCURVE",
"823 208 OFFCURVE",
"880 407 CURVE SMOOTH",
"908 506 OFFCURVE",
"922 618 OFFCURVE",
"922 742 CURVE SMOOTH"
);
},
{
closed = 1;
nodes = (
"685 1727 LINE",
"814 1619 LINE",
"786 1555 OFFCURVE",
"711 1480 OFFCURVE",
"631 1425 CURVE SMOOTH",
"591 1397 OFFCURVE",
"556 1378 OFFCURVE",
"526 1367 CURVE",
"445 1428 LINE"
);
},
{
closed = 1;
nodes = (
"1085 1727 LINE",
"1213 1618 LINE",
"1174 1553 OFFCURVE",
"1104 1478 OFFCURVE",
"1030 1424 CURVE SMOOTH",
"993 1397 OFFCURVE",
"959 1378 OFFCURVE",
"928 1367 CURVE",
"845 1428 LINE"
);
}
);
width = 1226;
}
);
note = Ohungarumlaut;
unicode = 0150;
},
{
glyphname = Omacron;
layers = (
{
layerId = "8EB560C1-B0F9-428E-B807-264CC4717BB6";
name = "Bold Italic";
paths = (
{
closed = 1;
nodes = (
"980 1633 LINE",
"963 1477 LINE",
"495 1477 LINE",
"512 1633 LINE"
);
},
{
closed = 1;
nodes = (
"931 1326 OFFCURVE",
"1072 1218 OFFCURVE",
"1137 1050 CURVE SMOOTH",
"1170 965 OFFCURVE",
"1186 870 OFFCURVE",
"1186 765 CURVE SMOOTH",
"1186 481 OFFCURVE",
"1085 230 OFFCURVE",
"892 89 CURVE SMOOTH",
"795 18 OFFCURVE",
"680 -17 OFFCURVE",
"545 -17 CURVE SMOOTH",
"333 -17 OFFCURVE",
"194 88 OFFCURVE",
"127 259 CURVE SMOOTH",
"94 344 OFFCURVE",
"77 441 OFFCURVE",
"77 550 CURVE SMOOTH",
"77 834 OFFCURVE",
"182 1082 OFFCURVE",
"376 1222 CURVE SMOOTH",
"473 1291 OFFCURVE",
"587 1326 OFFCURVE",
"718 1326 CURVE SMOOTH"
);
},
{
closed = 1;
nodes = (
"924 1046 OFFCURVE",
"849 1219 OFFCURVE",
"693 1219 CURVE SMOOTH",
"553 1219 OFFCURVE",
"440 1093 OFFCURVE",
"381 894 CURVE SMOOTH",
"352 794 OFFCURVE",
"337 685 OFFCURVE",
"337 567 CURVE SMOOTH",
"337 286 OFFCURVE",
"406 87 OFFCURVE",
"570 87 CURVE SMOOTH",
"714 87 OFFCURVE",
"825 208 OFFCURVE",
"882 407 CURVE SMOOTH",
"910 506 OFFCURVE",
"924 618 OFFCURVE",
"924 742 CURVE SMOOTH"
);
}
);
width = 1226;
}
);
note = Omacron;
unicode = 014C;
},
{
glyphname = Oslash;
layers = (
{
layerId = "8EB560C1-B0F9-428E-B807-264CC4717BB6";
name = "Bold Italic";
paths = (
{
closed = 1;
nodes = (
"803 1328 OFFCURVE",
"878 1311 OFFCURVE",
"941 1277 CURVE",
"1056 1456 LINE",
"1133 1412 LINE",
"1014 1228 LINE",
"1130 1128 OFFCURVE",
"1186 960 OFFCURVE",
"1186 767 CURVE SMOOTH",
"1186 483 OFFCURVE",
"1086 232 OFFCURVE",
"892 91 CURVE SMOOTH",
"795 20 OFFCURVE",
"679 -15 OFFCURVE",
"544 -15 CURVE SMOOTH",
"449 -15 OFFCURVE",
"368 5 OFFCURVE",
"299 46 CURVE",
"182 -134 LINE",
"104 -89 LINE",
"229 102 LINE",
"126 203 OFFCURVE",
"77 361 OFFCURVE",
"77 552 CURVE SMOOTH",
"77 836 OFFCURVE",
"182 1084 OFFCURVE",
"375 1224 CURVE SMOOTH",
"472 1293 OFFCURVE",
"586 1328 OFFCURVE",
"718 1328 CURVE SMOOTH"
);
},
{
closed = 1;
nodes = (
"849 1129 LINE",
"810 1190 OFFCURVE",
"758 1221 OFFCURVE",
"692 1221 CURVE SMOOTH",
"552 1221 OFFCURVE",
"440 1095 OFFCURVE",
"381 896 CURVE SMOOTH",
"351 796 OFFCURVE",
"336 687 OFFCURVE",
"336 568 CURVE SMOOTH",
"336 457 OFFCURVE",
"347 364 OFFCURVE",
"369 288 CURVE"
);
},
{
closed = 1;
nodes = (
"924 869 OFFCURVE",
"911 970 OFFCURVE",
"886 1047 CURVE",
"403 200 LINE",
"443 126 OFFCURVE",
"498 89 OFFCURVE",
"569 89 CURVE SMOOTH",
"714 89 OFFCURVE",
"824 211 OFFCURVE",
"881 409 CURVE SMOOTH",
"910 508 OFFCURVE",
"924 619 OFFCURVE",
"924 744 CURVE SMOOTH"
);
}
);
width = 1228;
}
);
note = Oslash;
unicode = 00D8;
},
{
glyphname = Otilde;
layers = (
{
layerId = "8EB560C1-B0F9-428E-B807-264CC4717BB6";
name = "Bold Italic";
paths = (
{
closed = 1;
nodes = (
"428 1549 LINE",
"447 1600 OFFCURVE",
"487 1646 OFFCURVE",
"544 1674 CURVE SMOOTH",
"572 1687 OFFCURVE",
"603 1694 OFFCURVE",
"636 1694 CURVE SMOOTH",
"697 1694 OFFCURVE",
"734 1668 OFFCURVE",
"783 1623 CURVE SMOOTH",
"826 1584 OFFCURVE",
"847 1569 OFFCURVE",
"882 1569 CURVE SMOOTH",
"939 1569 OFFCURVE",
"972 1601 OFFCURVE",
"1011 1650 CURVE",
"1075 1557 LINE",
"1055 1508 OFFCURVE",
"1016 1458 OFFCURVE",
"960 1428 CURVE SMOOTH",
"932 1413 OFFCURVE",
"902 1405 OFFCURVE",
"870 1405 CURVE SMOOTH",
"822 1405 OFFCURVE",
"786 1420 OFFCURVE",
"762 1439 CURVE",
"749 1448 OFFCURVE",
"734 1461 OFFCURVE",
"717 1476 CURVE SMOOTH",
"677 1512 OFFCURVE",
"652 1531 OFFCURVE",
"611 1531 CURVE SMOOTH",
"563 1531 OFFCURVE",
"525 1503 OFFCURVE",
"486 1459 CURVE"
);
},
{
closed = 1;
nodes = (
"931 1326 OFFCURVE",
"1072 1218 OFFCURVE",
"1137 1050 CURVE SMOOTH",
"1170 965 OFFCURVE",
"1186 870 OFFCURVE",
"1186 765 CURVE SMOOTH",
"1186 481 OFFCURVE",
"1085 230 OFFCURVE",
"892 89 CURVE SMOOTH",
"795 18 OFFCURVE",
"680 -17 OFFCURVE",
"545 -17 CURVE SMOOTH",
"333 -17 OFFCURVE",
"194 88 OFFCURVE",
"127 259 CURVE SMOOTH",
"94 344 OFFCURVE",
"77 441 OFFCURVE",
"77 550 CURVE SMOOTH",
"77 834 OFFCURVE",
"182 1082 OFFCURVE",
"376 1222 CURVE SMOOTH",
"473 1291 OFFCURVE",
"587 1326 OFFCURVE",
"718 1326 CURVE SMOOTH"
);
},
{
closed = 1;
nodes = (
"924 1046 OFFCURVE",
"849 1219 OFFCURVE",
"693 1219 CURVE SMOOTH",
"553 1219 OFFCURVE",
"440 1093 OFFCURVE",
"381 894 CURVE SMOOTH",
"352 794 OFFCURVE",
"337 685 OFFCURVE",
"337 567 CURVE SMOOTH",
"337 286 OFFCURVE",
"406 87 OFFCURVE",
"570 87 CURVE SMOOTH",
"714 87 OFFCURVE",
"825 208 OFFCURVE",
"882 407 CURVE SMOOTH",
"910 506 OFFCURVE",
"924 618 OFFCURVE",
"924 742 CURVE SMOOTH"
);
}
);
width = 1226;
}
);
note = Otilde;
unicode = 00D5;
},
{
glyphname = OE;
layers = (
{
layerId = "8EB560C1-B0F9-428E-B807-264CC4717BB6";
name = "Bold Italic";
paths = (
{
closed = 1;
nodes = (
"902 1325 OFFCURVE",
"1021 1243 OFFCURVE",
"1086 1103 CURVE",
"1112 1309 LINE",
"1863 1309 LINE",
"1843 1021 LINE",
"1696 1021 LINE",
"1662 1193 LINE",
"1348 1210 LINE",
"1284 738 LINE",
"1655 768 LINE",
"1631 593 LINE",
"1271 616 LINE",
"1205 109 LINE",
"1622 135 LINE",
"1715 348 LINE",
"1857 330 LINE",
"1798 0 LINE",
"950 0 LINE",
"972 175 LINE",
"869 52 OFFCURVE",
"728 -17 OFFCURVE",
"547 -17 CURVE SMOOTH",
"339 -17 OFFCURVE",
"193 83 OFFCURVE",
"122 253 CURVE SMOOTH",
"86 338 OFFCURVE",
"68 437 OFFCURVE",
"68 550 CURVE SMOOTH",
"68 835 OFFCURVE",
"175 1082 OFFCURVE",
"372 1221 CURVE SMOOTH",
"470 1290 OFFCURVE",
"586 1325 OFFCURVE",
"719 1325 CURVE SMOOTH"
);
},
{
closed = 1;
nodes = (
"936 1060 OFFCURVE",
"860 1218 OFFCURVE",
"693 1218 CURVE SMOOTH",
"550 1218 OFFCURVE",
"433 1095 OFFCURVE",
"371 903 CURVE SMOOTH",
"340 807 OFFCURVE",
"324 704 OFFCURVE",
"324 593 CURVE SMOOTH",
"324 284 OFFCURVE",
"388 88 OFFCURVE",
"572 87 CURVE SMOOTH",
"721 87 OFFCURVE",
"833 208 OFFCURVE",
"892 407 CURVE SMOOTH",
"921 506 OFFCURVE",
"936 618 OFFCURVE",
"936 741 CURVE SMOOTH"
);
}
);
width = 1897;
}
);
note = OE;
unicode = 0152;
},
{
glyphname = P;
layers = (
{
layerId = "8EB560C1-B0F9-428E-B807-264CC4717BB6";
name = "Bold Italic";
paths = (
{
closed = 1;
nodes = (
"136 109 LINE",
"278 1196 LINE",
"157 1218 LINE",
"168 1309 LINE",
"415 1309 LINE SMOOTH",
"448 1309 OFFCURVE",
"493 1311 OFFCURVE",
"552 1316 CURVE SMOOTH",
"609 1321 OFFCURVE",
"652 1323 OFFCURVE",
"681 1323 CURVE SMOOTH",
"989 1323 OFFCURVE",
"1123 1206 OFFCURVE",
"1123 962 CURVE SMOOTH",
"1123 749 OFFCURVE",
"1019 593 OFFCURVE",
"846 513 CURVE SMOOTH",
"759 473 OFFCURVE",
"660 453 OFFCURVE",
"547 453 CURVE SMOOTH",
"489 453 OFFCURVE",
"449 454 OFFCURVE",
"426 457 CURVE",
"384 109 LINE",
"593 84 LINE",
"586 0 LINE",
"5 0 LINE",
"14 83 LINE"
);
},
{
closed = 1;
nodes = (
"766 565 OFFCURVE",
"870 714 OFFCURVE",
"870 975 CURVE SMOOTH",
"870 1139 OFFCURVE",
"798 1218 OFFCURVE",
"645 1218 CURVE SMOOTH",
"606 1218 OFFCURVE",
"565 1214 OFFCURVE",
"524 1205 CURVE",
"439 572 LINE",
"476 565 OFFCURVE",
"514 561 OFFCURVE",
"555 562 CURVE SMOOTH"
);
}
);
width = 1112;
}
);
note = P;
unicode = 0050;
},
{
glyphname = Thorn;
layers = (
{
layerId = "8EB560C1-B0F9-428E-B807-264CC4717BB6";
name = "Bold Italic";
paths = (
{
closed = 1;
nodes = (
"138 109 LINE",
"280 1200 LINE",
"159 1220 LINE",
"170 1312 LINE",
"679 1312 LINE",
"668 1220 LINE",
"524 1200 LINE",
"501 1024 LINE",
"574 1031 OFFCURVE",
"635 1034 OFFCURVE",
"684 1034 CURVE SMOOTH",
"983 1034 OFFCURVE",
"1096 917 OFFCURVE",
"1096 722 CURVE SMOOTH",
"1096 566 OFFCURVE",
"1021 431 OFFCURVE",
"850 353 CURVE SMOOTH",
"765 314 OFFCURVE",
"657 294 OFFCURVE",
"527 294 CURVE SMOOTH",
"479 294 OFFCURVE",
"439 295 OFFCURVE",
"407 298 CURVE",
"383 109 LINE",
"532 84 LINE",
"525 0 LINE",
"8 0 LINE",
"16 83 LINE"
);
},
{
closed = 1;
nodes = (
"421 406 LINE",
"448 403 OFFCURVE",
"486 402 OFFCURVE",
"535 402 CURVE SMOOTH",
"660 402 OFFCURVE",
"754 448 OFFCURVE",
"805 534 CURVE SMOOTH",
"830 577 OFFCURVE",
"843 628 OFFCURVE",
"843 688 CURVE SMOOTH",
"843 851 OFFCURVE",
"775 926 OFFCURVE",
"611 926 CURVE SMOOTH",
"570 926 OFFCURVE",
"528 921 OFFCURVE",
"487 912 CURVE"
);
}
);
width = 1097;
}
);
note = Thorn;
unicode = 00DE;
},
{
glyphname = Q;
layers = (
{
layerId = "8EB560C1-B0F9-428E-B807-264CC4717BB6";
name = "Bold Italic";
paths = (
{
closed = 1;
nodes = (
"928 1326 OFFCURVE",
"1069 1218 OFFCURVE",
"1134 1050 CURVE SMOOTH",
"1167 966 OFFCURVE",
"1183 872 OFFCURVE",
"1183 767 CURVE SMOOTH",
"1183 512 OFFCURVE",
"1102 284 OFFCURVE",
"946 136 CURVE SMOOTH",
"867 61 OFFCURVE",
"773 14 OFFCURVE",
"663 -6 CURVE",
"664 -93 OFFCURVE",
"711 -133 OFFCURVE",
"780 -146 CURVE SMOOTH",
"814 -153 OFFCURVE",
"857 -156 OFFCURVE",
"910 -156 CURVE SMOOTH",
"967 -156 OFFCURVE",
"1070 -143 OFFCURVE",
"1127 -120 CURVE",
"1129 -261 LINE",
"1076 -304 OFFCURVE",
"962 -347 OFFCURVE",
"837 -347 CURVE SMOOTH",
"634 -347 OFFCURVE",
"519 -267 OFFCURVE",
"519 -116 CURVE SMOOTH",
"519 -87 OFFCURVE",
"524 -54 OFFCURVE",
"533 -17 CURVE",
"326 -14 OFFCURVE",
"188 92 OFFCURVE",
"123 261 CURVE SMOOTH",
"90 346 OFFCURVE",
"74 442 OFFCURVE",
"74 550 CURVE SMOOTH",
"74 834 OFFCURVE",
"179 1082 OFFCURVE",
"373 1222 CURVE SMOOTH",
"470 1291 OFFCURVE",
"584 1326 OFFCURVE",
"716 1326 CURVE SMOOTH"
);
},
{
closed = 1;
nodes = (
"921 1046 OFFCURVE",
"847 1219 OFFCURVE",
"690 1219 CURVE SMOOTH",
"550 1219 OFFCURVE",
"437 1093 OFFCURVE",
"378 894 CURVE SMOOTH",
"349 794 OFFCURVE",
"334 685 OFFCURVE",
"334 567 CURVE SMOOTH",
"334 286 OFFCURVE",
"403 87 OFFCURVE",
"567 87 CURVE SMOOTH",
"711 87 OFFCURVE",
"822 208 OFFCURVE",
"879 407 CURVE SMOOTH",
"907 506 OFFCURVE",
"921 618 OFFCURVE",
"921 742 CURVE SMOOTH"
);
}
);
width = 1229;
}
);
note = Q;
unicode = 0051;
},
{
glyphname = R;
layers = (
{
layerId = "8EB560C1-B0F9-428E-B807-264CC4717BB6";
name = "Bold Italic";
paths = (
{
closed = 1;
nodes = (
"137 109 LINE",
"277 1196 LINE",
"157 1218 LINE",
"168 1309 LINE",
"420 1309 LINE SMOOTH",
"467 1309 OFFCURVE",
"523 1314 OFFCURVE",
"539 1315 CURVE",
"590 1320 OFFCURVE",
"638 1323 OFFCURVE",
"685 1323 CURVE SMOOTH",
"902 1323 OFFCURVE",
"1027 1273 OFFCURVE",
"1083 1181 CURVE SMOOTH",
"1111 1134 OFFCURVE",
"1125 1075 OFFCURVE",
"1125 1004 CURVE SMOOTH",
"1125 812 OFFCURVE",
"1011 662 OFFCURVE",
"820 601 CURVE",
"854 566 OFFCURVE",
"902 476 OFFCURVE",
"963 330 CURVE",
"987 278 LINE SMOOTH",
"1013 221 OFFCURVE",
"1033 181 OFFCURVE",
"1047 158 CURVE SMOOTH",
"1074 110 OFFCURVE",
"1108 89 OFFCURVE",
"1176 88 CURVE",
"1170 -1 LINE",
"884 1 LINE",
"868 0 OFFCURVE",
"852 15 OFFCURVE",
"835 46 CURVE SMOOTH",
"818 76 OFFCURVE",
"796 127 OFFCURVE",
"769 199 CURVE",
"763 213 OFFCURVE",
"758 226 OFFCURVE",
"754 238 CURVE",
"715 342 OFFCURVE",
"683 421 OFFCURVE",
"658 476 CURVE SMOOTH",
"633 531 OFFCURVE",
"610 563 OFFCURVE",
"589 573 CURVE",
"432 572 LINE",
"376 109 LINE",
"535 84 LINE",
"529 0 LINE",
"13 0 LINE",
"21 83 LINE"
);
},
{
closed = 1;
nodes = (
"601 681 LINE SMOOTH",
"776 686 OFFCURVE",
"873 806 OFFCURVE",
"873 994 CURVE SMOOTH",
"873 1146 OFFCURVE",
"804 1217 OFFCURVE",
"636 1217 CURVE SMOOTH",
"611 1217 OFFCURVE",
"549 1212 OFFCURVE",
"517 1207 CURVE",
"446 684 LINE",
"473 682 OFFCURVE",
"515 681 OFFCURVE",
"570 681 CURVE SMOOTH"
);
}
);
width = 1209;
}
);
note = R;
unicode = 0052;
},
{
glyphname = Racute;
layers = (
{
layerId = "8EB560C1-B0F9-428E-B807-264CC4717BB6";
name = "Bold Italic";
paths = (
{
closed = 1;
nodes = (
"137 109 LINE",
"277 1196 LINE",
"157 1218 LINE",
"168 1309 LINE",
"420 1309 LINE SMOOTH",
"467 1309 OFFCURVE",
"523 1314 OFFCURVE",
"539 1315 CURVE",
"590 1320 OFFCURVE",
"638 1323 OFFCURVE",
"685 1323 CURVE SMOOTH",
"902 1323 OFFCURVE",
"1027 1273 OFFCURVE",
"1083 1181 CURVE SMOOTH",
"1111 1134 OFFCURVE",
"1125 1075 OFFCURVE",
"1125 1004 CURVE SMOOTH",
"1125 812 OFFCURVE",
"1011 662 OFFCURVE",
"820 601 CURVE",
"854 566 OFFCURVE",
"902 476 OFFCURVE",
"963 330 CURVE",
"987 278 LINE SMOOTH",
"1013 221 OFFCURVE",
"1033 181 OFFCURVE",
"1047 158 CURVE SMOOTH",
"1074 110 OFFCURVE",
"1108 89 OFFCURVE",
"1176 88 CURVE",
"1170 -1 LINE",
"884 1 LINE",
"868 0 OFFCURVE",
"852 15 OFFCURVE",
"835 46 CURVE SMOOTH",
"818 76 OFFCURVE",
"796 127 OFFCURVE",
"769 199 CURVE",
"763 213 OFFCURVE",
"758 226 OFFCURVE",
"754 238 CURVE",
"715 342 OFFCURVE",
"683 421 OFFCURVE",
"658 476 CURVE SMOOTH",
"633 531 OFFCURVE",
"610 563 OFFCURVE",
"589 573 CURVE",
"432 572 LINE",
"376 109 LINE",
"535 84 LINE",
"529 0 LINE",
"13 0 LINE",
"21 83 LINE"
);
},
{
closed = 1;
nodes = (
"601 681 LINE SMOOTH",
"776 686 OFFCURVE",
"873 806 OFFCURVE",
"873 994 CURVE SMOOTH",
"873 1146 OFFCURVE",
"804 1217 OFFCURVE",
"636 1217 CURVE SMOOTH",
"611 1217 OFFCURVE",
"549 1212 OFFCURVE",
"517 1207 CURVE",
"446 684 LINE",
"473 682 OFFCURVE",
"515 681 OFFCURVE",
"570 681 CURVE SMOOTH"
);
},
{
closed = 1;
nodes = (
"893 1727 LINE",
"1031 1593 LINE",
"1003 1537 OFFCURVE",
"925 1471 OFFCURVE",
"842 1421 CURVE SMOOTH",
"801 1396 OFFCURVE",
"765 1378 OFFCURVE",
"736 1367 CURVE",
"656 1433 LINE"
);
}
);
width = 1209;
}
);
note = Racute;
unicode = 0154;
},
{
glyphname = Rcaron;
layers = (
{
layerId = "8EB560C1-B0F9-428E-B807-264CC4717BB6";
name = "Bold Italic";
paths = (
{
closed = 1;
nodes = (
"537 1727 LINE",
"723 1555 LINE",
"999 1727 LINE",
"1074 1678 LINE",
"785 1385 LINE",
"634 1385 LINE",
"449 1677 LINE"
);
},
{
closed = 1;
nodes = (
"134 109 LINE",
"274 1196 LINE",
"154 1218 LINE",
"165 1309 LINE",
"417 1309 LINE SMOOTH",
"464 1309 OFFCURVE",
"520 1314 OFFCURVE",
"536 1315 CURVE",
"587 1320 OFFCURVE",
"635 1323 OFFCURVE",
"682 1323 CURVE SMOOTH",
"899 1323 OFFCURVE",
"1024 1273 OFFCURVE",
"1080 1181 CURVE SMOOTH",
"1108 1134 OFFCURVE",
"1122 1075 OFFCURVE",
"1122 1004 CURVE SMOOTH",
"1122 812 OFFCURVE",
"1008 662 OFFCURVE",
"817 601 CURVE",
"851 566 OFFCURVE",
"899 476 OFFCURVE",
"960 330 CURVE",
"984 278 LINE SMOOTH",
"1010 221 OFFCURVE",
"1030 181 OFFCURVE",
"1044 158 CURVE SMOOTH",
"1071 110 OFFCURVE",
"1105 89 OFFCURVE",
"1173 88 CURVE",
"1167 -1 LINE",
"881 1 LINE",
"865 0 OFFCURVE",
"849 15 OFFCURVE",
"832 46 CURVE SMOOTH",
"815 76 OFFCURVE",
"793 127 OFFCURVE",
"766 199 CURVE",
"760 213 OFFCURVE",
"755 226 OFFCURVE",
"751 238 CURVE",
"712 342 OFFCURVE",
"680 421 OFFCURVE",
"655 476 CURVE SMOOTH",
"630 531 OFFCURVE",
"607 563 OFFCURVE",
"586 573 CURVE",
"429 572 LINE",
"373 109 LINE",
"532 84 LINE",
"526 0 LINE",
"10 0 LINE",
"18 83 LINE"
);
},
{
closed = 1;
nodes = (
"598 681 LINE SMOOTH",
"773 686 OFFCURVE",
"870 806 OFFCURVE",
"870 994 CURVE SMOOTH",
"870 1146 OFFCURVE",
"801 1217 OFFCURVE",
"633 1217 CURVE SMOOTH",
"608 1217 OFFCURVE",
"546 1212 OFFCURVE",
"514 1207 CURVE",
"443 684 LINE",
"470 682 OFFCURVE",
"512 681 OFFCURVE",
"567 681 CURVE SMOOTH"
);
}
);
width = 1204;
}
);
note = Rcaron;
unicode = 0158;
},
{
glyphname = Rcommaaccent;
layers = (
{
layerId = "8EB560C1-B0F9-428E-B807-264CC4717BB6";
name = "Bold Italic";
paths = (
{
closed = 1;
nodes = (
"484 -410 LINE",
"517 -386 OFFCURVE",
"545 -343 OFFCURVE",
"545 -288 CURVE SMOOTH",
"545 -244 OFFCURVE",
"518 -199 OFFCURVE",
"485 -194 CURVE",
"491 -125 LINE",
"614 -37 LINE",
"687 -53 OFFCURVE",
"737 -130 OFFCURVE",
"737 -218 CURVE SMOOTH",
"737 -309 OFFCURVE",
"696 -389 OFFCURVE",
"641 -437 CURVE SMOOTH",
"613 -461 OFFCURVE",
"586 -476 OFFCURVE",
"559 -482 CURVE",
"482 -433 LINE"
);
},
{
closed = 1;
nodes = (
"134 109 LINE",
"274 1196 LINE",
"154 1218 LINE",
"165 1309 LINE",
"417 1309 LINE SMOOTH",
"464 1309 OFFCURVE",
"520 1314 OFFCURVE",
"536 1315 CURVE",
"587 1320 OFFCURVE",
"635 1323 OFFCURVE",
"682 1323 CURVE SMOOTH",
"899 1323 OFFCURVE",
"1024 1273 OFFCURVE",
"1080 1181 CURVE SMOOTH",
"1108 1134 OFFCURVE",
"1122 1075 OFFCURVE",
"1122 1004 CURVE SMOOTH",
"1122 812 OFFCURVE",
"1008 662 OFFCURVE",
"817 601 CURVE",
"851 566 OFFCURVE",
"899 476 OFFCURVE",
"960 330 CURVE",
"984 278 LINE SMOOTH",
"1010 221 OFFCURVE",
"1030 181 OFFCURVE",
"1044 158 CURVE SMOOTH",
"1071 110 OFFCURVE",
"1105 89 OFFCURVE",
"1173 88 CURVE",
"1167 -1 LINE",
"881 1 LINE",
"865 0 OFFCURVE",
"849 15 OFFCURVE",
"832 46 CURVE SMOOTH",
"815 76 OFFCURVE",
"793 127 OFFCURVE",
"766 199 CURVE",
"760 213 OFFCURVE",
"755 226 OFFCURVE",
"751 238 CURVE",
"712 342 OFFCURVE",
"680 421 OFFCURVE",
"655 476 CURVE SMOOTH",
"630 531 OFFCURVE",
"607 563 OFFCURVE",
"586 573 CURVE",
"429 572 LINE",
"373 109 LINE",
"532 84 LINE",
"526 0 LINE",
"10 0 LINE",
"18 83 LINE"
);
},
{
closed = 1;
nodes = (
"598 681 LINE SMOOTH",
"773 686 OFFCURVE",
"870 806 OFFCURVE",
"870 994 CURVE SMOOTH",
"870 1146 OFFCURVE",
"801 1217 OFFCURVE",
"633 1217 CURVE SMOOTH",
"608 1217 OFFCURVE",
"546 1212 OFFCURVE",
"514 1207 CURVE",
"443 684 LINE",
"470 682 OFFCURVE",
"512 681 OFFCURVE",
"567 681 CURVE SMOOTH"
);
}
);
width = 1204;
}
);
note = Rcommaaccent;
unicode = 0156;
},
{
glyphname = S;
layers = (
{
layerId = "8EB560C1-B0F9-428E-B807-264CC4717BB6";
name = "Bold Italic";
paths = (
{
closed = 1;
nodes = (
"216 320 LINE",
"230 144 LINE",
"277 111 OFFCURVE",
"339 87 OFFCURVE",
"408 87 CURVE SMOOTH",
"507 87 OFFCURVE",
"584 119 OFFCURVE",
"626 179 CURVE SMOOTH",
"647 209 OFFCURVE",
"657 245 OFFCURVE",
"657 286 CURVE SMOOTH",
"657 362 OFFCURVE",
"624 422 OFFCURVE",
"562 475 CURVE SMOOTH",
"531 502 OFFCURVE",
"490 531 OFFCURVE",
"439 563 CURVE SMOOTH",
"326 635 OFFCURVE",
"243 704 OFFCURVE",
"192 800 CURVE SMOOTH",
"167 847 OFFCURVE",
"154 900 OFFCURVE",
"154 958 CURVE SMOOTH",
"154 1107 OFFCURVE",
"238 1222 OFFCURVE",
"377 1281 CURVE SMOOTH",
"446 1310 OFFCURVE",
"524 1325 OFFCURVE",
"609 1325 CURVE SMOOTH",
"770 1325 OFFCURVE",
"877 1297 OFFCURVE",
"938 1258 CURVE",
"895 1013 LINE",
"763 1013 LINE",
"738 1176 LINE",
"698 1205 OFFCURVE",
"649 1220 OFFCURVE",
"591 1220 CURVE SMOOTH",
"512 1220 OFFCURVE",
"446 1194 OFFCURVE",
"409 1143 CURVE SMOOTH",
"390 1117 OFFCURVE",
"381 1086 OFFCURVE",
"381 1051 CURVE SMOOTH",
"381 966 OFFCURVE",
"418 900 OFFCURVE",
"484 844 CURVE SMOOTH",
"517 815 OFFCURVE",
"560 784 OFFCURVE",
"614 750 CURVE SMOOTH",
"726 679 OFFCURVE",
"804 616 OFFCURVE",
"853 526 CURVE SMOOTH",
"878 481 OFFCURVE",
"890 430 OFFCURVE",
"890 374 CURVE SMOOTH",
"890 225 OFFCURVE",
"812 100 OFFCURVE",
"667 32 CURVE SMOOTH",
"594 -3 OFFCURVE",
"509 -20 OFFCURVE",
"410 -20 CURVE SMOOTH",
"299 -20 OFFCURVE",
"186 0 OFFCURVE",
"108 25 CURVE SMOOTH",
"69 38 OFFCURVE",
"42 50 OFFCURVE",
"28 61 CURVE",
"72 320 LINE"
);
}
);
width = 965;
}
);
note = S;
unicode = 0053;
},
{
glyphname = Sacute;
layers = (
{
layerId = "8EB560C1-B0F9-428E-B807-264CC4717BB6";
name = "Bold Italic";
paths = (
{
closed = 1;
nodes = (
"216 320 LINE",
"230 144 LINE",
"277 111 OFFCURVE",
"339 87 OFFCURVE",
"408 87 CURVE SMOOTH",
"507 87 OFFCURVE",
"584 119 OFFCURVE",
"626 179 CURVE SMOOTH",
"647 209 OFFCURVE",
"657 245 OFFCURVE",
"657 286 CURVE SMOOTH",
"657 362 OFFCURVE",
"624 422 OFFCURVE",
"562 475 CURVE SMOOTH",
"531 502 OFFCURVE",
"490 531 OFFCURVE",
"439 563 CURVE SMOOTH",
"326 635 OFFCURVE",
"243 704 OFFCURVE",
"192 800 CURVE SMOOTH",
"167 847 OFFCURVE",
"154 900 OFFCURVE",
"154 958 CURVE SMOOTH",
"154 1107 OFFCURVE",
"238 1222 OFFCURVE",
"377 1281 CURVE SMOOTH",
"446 1310 OFFCURVE",
"524 1325 OFFCURVE",
"609 1325 CURVE SMOOTH",
"770 1325 OFFCURVE",
"877 1297 OFFCURVE",
"938 1258 CURVE",
"895 1013 LINE",
"763 1013 LINE",
"738 1176 LINE",
"698 1205 OFFCURVE",
"649 1220 OFFCURVE",
"591 1220 CURVE SMOOTH",
"512 1220 OFFCURVE",
"446 1194 OFFCURVE",
"409 1143 CURVE SMOOTH",
"390 1117 OFFCURVE",
"381 1086 OFFCURVE",
"381 1051 CURVE SMOOTH",
"381 966 OFFCURVE",
"418 900 OFFCURVE",
"484 844 CURVE SMOOTH",
"517 815 OFFCURVE",
"560 784 OFFCURVE",
"614 750 CURVE SMOOTH",
"726 679 OFFCURVE",
"804 616 OFFCURVE",
"853 526 CURVE SMOOTH",
"878 481 OFFCURVE",
"890 430 OFFCURVE",
"890 374 CURVE SMOOTH",
"890 225 OFFCURVE",
"812 100 OFFCURVE",
"667 32 CURVE SMOOTH",
"594 -3 OFFCURVE",
"509 -20 OFFCURVE",
"410 -20 CURVE SMOOTH",
"299 -20 OFFCURVE",
"186 0 OFFCURVE",
"108 25 CURVE SMOOTH",
"69 38 OFFCURVE",
"42 50 OFFCURVE",
"28 61 CURVE",
"72 320 LINE"
);
},
{
closed = 1;
nodes = (
"766 1727 LINE",
"904 1593 LINE",
"876 1537 OFFCURVE",
"798 1471 OFFCURVE",
"715 1421 CURVE SMOOTH",
"674 1396 OFFCURVE",
"638 1378 OFFCURVE",
"609 1367 CURVE",
"529 1433 LINE"
);
}
);
width = 965;
}
);
note = Sacute;
unicode = 015A;
},
{
glyphname = Scaron;
layers = (
{
layerId = "8EB560C1-B0F9-428E-B807-264CC4717BB6";
name = "Bold Italic";
paths = (
{
closed = 1;
nodes = (
"216 320 LINE",
"230 144 LINE",
"277 111 OFFCURVE",
"339 87 OFFCURVE",
"408 87 CURVE SMOOTH",
"507 87 OFFCURVE",
"584 119 OFFCURVE",
"626 179 CURVE SMOOTH",
"647 209 OFFCURVE",
"657 245 OFFCURVE",
"657 286 CURVE SMOOTH",
"657 362 OFFCURVE",
"624 422 OFFCURVE",
"562 475 CURVE SMOOTH",
"531 502 OFFCURVE",
"490 531 OFFCURVE",
"439 563 CURVE SMOOTH",
"326 635 OFFCURVE",
"243 704 OFFCURVE",
"192 800 CURVE SMOOTH",
"167 847 OFFCURVE",
"154 900 OFFCURVE",
"154 958 CURVE SMOOTH",
"154 1107 OFFCURVE",
"238 1222 OFFCURVE",
"377 1281 CURVE SMOOTH",
"446 1310 OFFCURVE",
"524 1325 OFFCURVE",
"609 1325 CURVE SMOOTH",
"770 1325 OFFCURVE",
"877 1297 OFFCURVE",
"938 1258 CURVE",
"895 1013 LINE",
"763 1013 LINE",
"738 1176 LINE",
"698 1205 OFFCURVE",
"649 1220 OFFCURVE",
"591 1220 CURVE SMOOTH",
"512 1220 OFFCURVE",
"446 1194 OFFCURVE",
"409 1143 CURVE SMOOTH",
"390 1117 OFFCURVE",
"381 1086 OFFCURVE",
"381 1051 CURVE SMOOTH",
"381 966 OFFCURVE",
"418 900 OFFCURVE",
"484 844 CURVE SMOOTH",
"517 815 OFFCURVE",
"560 784 OFFCURVE",
"614 750 CURVE SMOOTH",
"726 679 OFFCURVE",
"804 616 OFFCURVE",
"853 526 CURVE SMOOTH",
"878 481 OFFCURVE",
"890 430 OFFCURVE",
"890 374 CURVE SMOOTH",
"890 225 OFFCURVE",
"812 100 OFFCURVE",
"667 32 CURVE SMOOTH",
"594 -3 OFFCURVE",
"509 -20 OFFCURVE",
"410 -20 CURVE SMOOTH",
"299 -20 OFFCURVE",
"186 0 OFFCURVE",
"108 25 CURVE SMOOTH",
"69 38 OFFCURVE",
"42 50 OFFCURVE",
"28 61 CURVE",
"72 320 LINE"
);
},
{
closed = 1;
nodes = (
"436 1727 LINE",
"622 1555 LINE",
"898 1727 LINE",
"973 1678 LINE",
"684 1385 LINE",
"533 1385 LINE",
"348 1677 LINE"
);
}
);
width = 965;
}
);
note = Scaron;
unicode = 0160;
},
{
glyphname = Scedilla;
layers = (
{
layerId = "8EB560C1-B0F9-428E-B807-264CC4717BB6";
name = "Bold Italic";
paths = (
{
closed = 1;
nodes = (
"512 1220 OFFCURVE",
"446 1194 OFFCURVE",
"409 1143 CURVE SMOOTH",
"390 1117 OFFCURVE",
"381 1086 OFFCURVE",
"381 1051 CURVE SMOOTH",
"381 966 OFFCURVE",
"418 900 OFFCURVE",
"484 844 CURVE SMOOTH",
"517 815 OFFCURVE",
"560 784 OFFCURVE",
"614 750 CURVE SMOOTH",
"726 679 OFFCURVE",
"804 616 OFFCURVE",
"853 526 CURVE SMOOTH",
"878 481 OFFCURVE",
"890 430 OFFCURVE",
"890 374 CURVE SMOOTH",
"890 234 OFFCURVE",
"821 116 OFFCURVE",
"693 45 CURVE SMOOTH",
"629 9 OFFCURVE",
"553 -12 OFFCURVE",
"464 -18 CURVE",
"476 -57 OFFCURVE",
"483 -112 OFFCURVE",
"483 -157 CURVE SMOOTH",
"483 -320 OFFCURVE",
"397 -408 OFFCURVE",
"233 -408 CURVE SMOOTH",
"184 -408 OFFCURVE",
"108 -397 OFFCURVE",
"89 -384 CURVE",
"112 -254 LINE",
"127 -262 OFFCURVE",
"156 -267 OFFCURVE",
"184 -267 CURVE SMOOTH",
"283 -267 OFFCURVE",
"341 -202 OFFCURVE",
"341 -77 CURVE SMOOTH",
"341 -61 OFFCURVE",
"340 -41 OFFCURVE",
"338 -17 CURVE",
"199 -8 OFFCURVE",
"67 30 OFFCURVE",
"28 61 CURVE",
"72 320 LINE",
"216 320 LINE",
"230 144 LINE",
"277 111 OFFCURVE",
"339 87 OFFCURVE",
"408 87 CURVE SMOOTH",
"507 87 OFFCURVE",
"584 119 OFFCURVE",
"626 179 CURVE SMOOTH",
"647 209 OFFCURVE",
"657 245 OFFCURVE",
"657 286 CURVE SMOOTH",
"657 362 OFFCURVE",
"624 422 OFFCURVE",
"562 475 CURVE SMOOTH",
"531 502 OFFCURVE",
"490 531 OFFCURVE",
"439 563 CURVE SMOOTH",
"326 635 OFFCURVE",
"243 704 OFFCURVE",
"192 800 CURVE SMOOTH",
"167 847 OFFCURVE",
"154 900 OFFCURVE",
"154 958 CURVE SMOOTH",
"154 1107 OFFCURVE",
"238 1222 OFFCURVE",
"377 1281 CURVE SMOOTH",
"446 1310 OFFCURVE",
"524 1325 OFFCURVE",
"609 1325 CURVE SMOOTH",
"770 1325 OFFCURVE",
"877 1297 OFFCURVE",
"938 1258 CURVE",
"895 1013 LINE",
"763 1013 LINE",
"738 1176 LINE",
"698 1205 OFFCURVE",
"649 1220 OFFCURVE",
"591 1220 CURVE SMOOTH"
);
}
);
width = 965;
}
);
note = Scedilla;
unicode = 015E;
},
{
glyphname = Scircumflex;
layers = (
{
layerId = "8EB560C1-B0F9-428E-B807-264CC4717BB6";
name = "Bold Italic";
paths = (
{
closed = 1;
nodes = (
"216 320 LINE",
"230 144 LINE",
"277 111 OFFCURVE",
"339 87 OFFCURVE",
"408 87 CURVE SMOOTH",
"507 87 OFFCURVE",
"584 119 OFFCURVE",
"626 179 CURVE SMOOTH",
"647 209 OFFCURVE",
"657 245 OFFCURVE",
"657 286 CURVE SMOOTH",
"657 362 OFFCURVE",
"624 422 OFFCURVE",
"562 475 CURVE SMOOTH",
"531 502 OFFCURVE",
"490 531 OFFCURVE",
"439 563 CURVE SMOOTH",
"326 635 OFFCURVE",
"243 704 OFFCURVE",
"192 800 CURVE SMOOTH",
"167 847 OFFCURVE",
"154 900 OFFCURVE",
"154 958 CURVE SMOOTH",
"154 1107 OFFCURVE",
"238 1222 OFFCURVE",
"377 1281 CURVE SMOOTH",
"446 1310 OFFCURVE",
"524 1325 OFFCURVE",
"609 1325 CURVE SMOOTH",
"770 1325 OFFCURVE",
"877 1297 OFFCURVE",
"938 1258 CURVE",
"895 1013 LINE",
"763 1013 LINE",
"738 1176 LINE",
"698 1205 OFFCURVE",
"649 1220 OFFCURVE",
"591 1220 CURVE SMOOTH",
"512 1220 OFFCURVE",
"446 1194 OFFCURVE",
"409 1143 CURVE SMOOTH",
"390 1117 OFFCURVE",
"381 1086 OFFCURVE",
"381 1051 CURVE SMOOTH",
"381 966 OFFCURVE",
"418 900 OFFCURVE",
"484 844 CURVE SMOOTH",
"517 815 OFFCURVE",
"560 784 OFFCURVE",
"614 750 CURVE SMOOTH",
"726 679 OFFCURVE",
"804 616 OFFCURVE",
"853 526 CURVE SMOOTH",
"878 481 OFFCURVE",
"890 430 OFFCURVE",
"890 374 CURVE SMOOTH",
"890 225 OFFCURVE",
"812 100 OFFCURVE",
"667 32 CURVE SMOOTH",
"594 -3 OFFCURVE",
"509 -20 OFFCURVE",
"410 -20 CURVE SMOOTH",
"299 -20 OFFCURVE",
"186 0 OFFCURVE",
"108 25 CURVE SMOOTH",
"69 38 OFFCURVE",
"42 50 OFFCURVE",
"28 61 CURVE",
"72 320 LINE"
);
},
{
closed = 1;
nodes = (
"599 1727 LINE",
"751 1727 LINE",
"933 1434 LINE",
"847 1385 LINE",
"659 1570 LINE",
"381 1385 LINE",
"307 1434 LINE"
);
}
);
width = 965;
}
);
note = Scircumflex;
unicode = 015C;
},
{
glyphname = Scommaaccent;
layers = (
{
layerId = "8EB560C1-B0F9-428E-B807-264CC4717BB6";
name = "Bold Italic";
paths = (
{
closed = 1;
nodes = (
"285 -410 LINE",
"318 -386 OFFCURVE",
"346 -343 OFFCURVE",
"346 -288 CURVE SMOOTH",
"346 -244 OFFCURVE",
"319 -199 OFFCURVE",
"286 -194 CURVE",
"292 -125 LINE",
"415 -37 LINE",
"488 -53 OFFCURVE",
"538 -130 OFFCURVE",
"538 -218 CURVE SMOOTH",
"538 -309 OFFCURVE",
"497 -389 OFFCURVE",
"442 -437 CURVE SMOOTH",
"414 -461 OFFCURVE",
"387 -476 OFFCURVE",
"360 -482 CURVE",
"283 -433 LINE"
);
},
{
closed = 1;
nodes = (
"216 320 LINE",
"230 144 LINE",
"277 111 OFFCURVE",
"339 87 OFFCURVE",
"408 87 CURVE SMOOTH",
"507 87 OFFCURVE",
"584 119 OFFCURVE",
"626 179 CURVE SMOOTH",
"647 209 OFFCURVE",
"657 245 OFFCURVE",
"657 286 CURVE SMOOTH",
"657 362 OFFCURVE",
"624 422 OFFCURVE",
"562 475 CURVE SMOOTH",
"531 502 OFFCURVE",
"490 531 OFFCURVE",
"439 563 CURVE SMOOTH",
"326 635 OFFCURVE",
"243 704 OFFCURVE",
"192 800 CURVE SMOOTH",
"167 847 OFFCURVE",
"154 900 OFFCURVE",
"154 958 CURVE SMOOTH",
"154 1107 OFFCURVE",
"238 1222 OFFCURVE",
"377 1281 CURVE SMOOTH",
"446 1310 OFFCURVE",
"524 1325 OFFCURVE",
"609 1325 CURVE SMOOTH",
"770 1325 OFFCURVE",
"877 1297 OFFCURVE",
"938 1258 CURVE",
"895 1013 LINE",
"763 1013 LINE",
"738 1176 LINE",
"698 1205 OFFCURVE",
"649 1220 OFFCURVE",
"591 1220 CURVE SMOOTH",
"512 1220 OFFCURVE",
"446 1194 OFFCURVE",
"409 1143 CURVE SMOOTH",
"390 1117 OFFCURVE",
"381 1086 OFFCURVE",
"381 1051 CURVE SMOOTH",
"381 966 OFFCURVE",
"418 900 OFFCURVE",
"484 844 CURVE SMOOTH",
"517 815 OFFCURVE",
"560 784 OFFCURVE",
"614 750 CURVE SMOOTH",
"726 679 OFFCURVE",
"804 616 OFFCURVE",
"853 526 CURVE SMOOTH",
"878 481 OFFCURVE",
"890 430 OFFCURVE",
"890 374 CURVE SMOOTH",
"890 225 OFFCURVE",
"812 100 OFFCURVE",
"667 32 CURVE SMOOTH",
"594 -3 OFFCURVE",
"509 -20 OFFCURVE",
"410 -20 CURVE SMOOTH",
"299 -20 OFFCURVE",
"186 0 OFFCURVE",
"108 25 CURVE SMOOTH",
"69 38 OFFCURVE",
"42 50 OFFCURVE",
"28 61 CURVE",
"72 320 LINE"
);
}
);
width = 965;
}
);
note = Scommaaccent;
unicode = 0218;
},
{
glyphname = uni1E9E;
layers = (
{
layerId = "8EB560C1-B0F9-428E-B807-264CC4717BB6";
name = "Bold Italic";
paths = (
{
closed = 1;
nodes = (
"888 798 LINE",
"1083 721 OFFCURVE",
"1220 609 OFFCURVE",
"1220 405 CURVE SMOOTH",
"1220 240 OFFCURVE",
"1136 109 OFFCURVE",
"1003 40 CURVE SMOOTH",
"936 5 OFFCURVE",
"863 -12 OFFCURVE",
"783 -12 CURVE SMOOTH",
"698 -12 OFFCURVE",
"638 4 OFFCURVE",
"555 31 CURVE SMOOTH",
"520 42 OFFCURVE",
"496 49 OFFCURVE",
"483 50 CURVE",
"525 336 LINE",
"648 336 LINE",
"666 152 LINE",
"683 109 OFFCURVE",
"736 86 OFFCURVE",
"799 86 CURVE SMOOTH",
"914 86 OFFCURVE",
"981 189 OFFCURVE",
"981 353 CURVE SMOOTH",
"981 504 OFFCURVE",
"836 619 OFFCURVE",
"687 699 CURVE",
"693 745 LINE",
"954 1104 LINE",
"950 1140 OFFCURVE",
"919 1179 OFFCURVE",
"859 1203 CURVE SMOOTH",
"829 1215 OFFCURVE",
"794 1221 OFFCURVE",
"754 1221 CURVE SMOOTH",
"571 1221 OFFCURVE",
"466 1085 OFFCURVE",
"433 826 CURVE SMOOTH",
"325 -6 LINE",
"-19 -6 LINE",
"-10 83 LINE",
"98 108 LINE",
"186 792 LINE SMOOTH",
"210 989 OFFCURVE",
"322 1158 OFFCURVE",
"496 1253 CURVE SMOOTH",
"583 1300 OFFCURVE",
"680 1324 OFFCURVE",
"788 1324 CURVE SMOOTH",
"987 1324 OFFCURVE",
"1093 1275 OFFCURVE",
"1160 1208 CURVE",
"1152 1149 LINE"
);
}
);
width = 1257;
}
);
note = uni1E9E;
unicode = 1E9E;
},
{
glyphname = uni018F;
layers = (
{
layerId = "8EB560C1-B0F9-428E-B807-264CC4717BB6";
name = "Bold Italic";
paths = (
{
closed = 1;
nodes = (
"857 666 LINE",
"858 681 OFFCURVE",
"860 703 OFFCURVE",
"861 734 CURVE SMOOTH",
"861 765 LINE SMOOTH",
"861 954 OFFCURVE",
"817 1097 OFFCURVE",
"735 1171 CURVE SMOOTH",
"694 1208 OFFCURVE",
"645 1226 OFFCURVE",
"589 1226 CURVE SMOOTH",
"481 1226 OFFCURVE",
"406 1195 OFFCURVE",
"365 1133 CURVE",
"296 980 LINE",
"165 980 LINE",
"204 1249 LINE",
"233 1250 OFFCURVE",
"260 1256 OFFCURVE",
"309 1271 CURVE SMOOTH",
"417 1303 OFFCURVE",
"502 1323 OFFCURVE",
"662 1323 CURVE SMOOTH",
"841 1323 OFFCURVE",
"975 1232 OFFCURVE",
"1047 1073 CURVE SMOOTH",
"1082 994 OFFCURVE",
"1100 901 OFFCURVE",
"1100 796 CURVE SMOOTH",
"1100 489 OFFCURVE",
"977 227 OFFCURVE",
"784 86 CURVE SMOOTH",
"687 15 OFFCURVE",
"583 -20 OFFCURVE",
"470 -20 CURVE SMOOTH",
"302 -20 OFFCURVE",
"179 50 OFFCURVE",
"116 179 CURVE SMOOTH",
"84 244 OFFCURVE",
"68 321 OFFCURVE",
"68 412 CURVE SMOOTH",
"68 505 OFFCURVE",
"86 611 OFFCURVE",
"106 666 CURVE"
);
},
{
closed = 1;
nodes = (
"622 88 OFFCURVE",
"714 151 OFFCURVE",
"778 291 CURVE SMOOTH",
"810 361 OFFCURVE",
"833 450 OFFCURVE",
"847 558 CURVE",
"319 558 LINE",
"303 485 OFFCURVE",
"295 436 OFFCURVE",
"295 383 CURVE SMOOTH",
"295 272 OFFCURVE",
"327 179 OFFCURVE",
"394 127 CURVE SMOOTH",
"427 101 OFFCURVE",
"468 88 OFFCURVE",
"517 88 CURVE SMOOTH"
);
}
);
width = 1139;
}
);
note = uni018F;
unicode = 018F;
},
{
glyphname = T;
layers = (
{
layerId = "8EB560C1-B0F9-428E-B807-264CC4717BB6";
name = "Bold Italic";
paths = (
{
closed = 1;
nodes = (
"407 109 LINE",
"550 1211 LINE",
"314 1190 LINE",
"200 851 LINE",
"65 851 LINE",
"143 1309 LINE",
"1233 1309 LINE",
"1167 851 LINE",
"1039 851 LINE",
"1033 1190 LINE",
"795 1211 LINE",
"651 109 LINE",
"882 86 LINE",
"874 0 LINE",
"184 0 LINE",
"194 86 LINE"
);
}
);
width = 1160;
}
);
note = T;
unicode = 0054;
},
{
glyphname = Tbar;
layers = (
{
layerId = "8EB560C1-B0F9-428E-B807-264CC4717BB6";
name = "Bold Italic";
paths = (
{
closed = 1;
nodes = (
"486 722 LINE",
"550 1211 LINE",
"314 1190 LINE",
"200 851 LINE",
"65 851 LINE",
"143 1309 LINE",
"1233 1309 LINE",
"1167 851 LINE",
"1039 851 LINE",
"1033 1190 LINE",
"795 1211 LINE",
"731 722 LINE",
"957 722 LINE",
"943 600 LINE",
"715 600 LINE",
"651 109 LINE",
"882 86 LINE",
"874 0 LINE",
"184 0 LINE",
"194 86 LINE",
"407 109 LINE",
"470 600 LINE",
"272 600 LINE",
"286 722 LINE"
);
}
);
width = 1162;
}
);
note = Tbar;
unicode = 0166;
},
{
glyphname = Tcaron;
layers = (
{
layerId = "8EB560C1-B0F9-428E-B807-264CC4717BB6";
name = "Bold Italic";
paths = (
{
closed = 1;
nodes = (
"535 1727 LINE",
"721 1555 LINE",
"997 1727 LINE",
"1072 1678 LINE",
"783 1385 LINE",
"632 1385 LINE",
"447 1677 LINE"
);
},
{
closed = 1;
nodes = (
"407 109 LINE",
"550 1211 LINE",
"314 1190 LINE",
"200 851 LINE",
"65 851 LINE",
"143 1309 LINE",
"1233 1309 LINE",
"1167 851 LINE",
"1039 851 LINE",
"1033 1190 LINE",
"795 1211 LINE",
"651 109 LINE",
"882 86 LINE",
"874 0 LINE",
"184 0 LINE",
"194 86 LINE"
);
}
);
width = 1162;
}
);
note = Tcaron;
unicode = 0164;
},
{
glyphname = U;
layers = (
{
layerId = "8EB560C1-B0F9-428E-B807-264CC4717BB6";
name = "Bold Italic";
paths = (
{
closed = 1;
nodes = (
"227 1197 LINE",
"107 1218 LINE",
"118 1309 LINE",
"634 1309 LINE",
"624 1219 LINE",
"472 1196 LINE",
"384 531 LINE SMOOTH",
"368 384 OFFCURVE",
"353 254 OFFCURVE",
"434 157 CURVE SMOOTH",
"474 108 OFFCURVE",
"531 84 OFFCURVE",
"604 84 CURVE SMOOTH",
"801 84 OFFCURVE",
"902 235 OFFCURVE",
"942 538 CURVE SMOOTH",
"1030 1196 LINE",
"908 1219 LINE",
"918 1309 LINE",
"1305 1309 LINE",
"1294 1219 LINE",
"1185 1197 LINE",
"1099 539 LINE SMOOTH",
"1064 272 OFFCURVE",
"975 113 OFFCURVE",
"829 39 CURVE SMOOTH",
"756 2 OFFCURVE",
"667 -17 OFFCURVE",
"562 -17 CURVE SMOOTH",
"370 -17 OFFCURVE",
"241 51 OFFCURVE",
"179 167 CURVE SMOOTH",
"117 282 OFFCURVE",
"126 414 OFFCURVE",
"137 510 CURVE SMOOTH"
);
}
);
width = 1227;
}
);
note = U;
unicode = 0055;
},
{
glyphname = Uacute;
layers = (
{
layerId = "8EB560C1-B0F9-428E-B807-264CC4717BB6";
name = "Bold Italic";
paths = (
{
closed = 1;
nodes = (
"923 1727 LINE",
"1061 1593 LINE",
"1033 1537 OFFCURVE",
"955 1471 OFFCURVE",
"872 1421 CURVE SMOOTH",
"831 1396 OFFCURVE",
"795 1378 OFFCURVE",
"766 1367 CURVE",
"686 1433 LINE"
);
},
{
closed = 1;
nodes = (
"227 1197 LINE",
"107 1218 LINE",
"118 1309 LINE",
"634 1309 LINE",
"624 1219 LINE",
"472 1196 LINE",
"384 531 LINE SMOOTH",
"368 384 OFFCURVE",
"353 254 OFFCURVE",
"434 157 CURVE SMOOTH",
"474 108 OFFCURVE",
"531 84 OFFCURVE",
"604 84 CURVE SMOOTH",
"801 84 OFFCURVE",
"902 235 OFFCURVE",
"942 538 CURVE SMOOTH",
"1030 1196 LINE",
"908 1219 LINE",
"918 1309 LINE",
"1305 1309 LINE",
"1294 1219 LINE",
"1185 1197 LINE",
"1099 539 LINE SMOOTH",
"1064 272 OFFCURVE",
"975 113 OFFCURVE",
"829 39 CURVE SMOOTH",
"756 2 OFFCURVE",
"667 -17 OFFCURVE",
"562 -17 CURVE SMOOTH",
"370 -17 OFFCURVE",
"241 51 OFFCURVE",
"179 167 CURVE SMOOTH",
"117 282 OFFCURVE",
"126 414 OFFCURVE",
"137 510 CURVE SMOOTH"
);
}
);
width = 1227;
}
);
note = Uacute;
unicode = 00DA;
},
{
glyphname = Ubreve;
layers = (
{
layerId = "8EB560C1-B0F9-428E-B807-264CC4717BB6";
name = "Bold Italic";
paths = (
{
closed = 1;
nodes = (
"513 1688 OFFCURVE",
"514 1705 OFFCURVE",
"516 1719 CURVE",
"647 1719 LINE",
"650 1656 OFFCURVE",
"655 1616 OFFCURVE",
"693 1586 CURVE SMOOTH",
"712 1571 OFFCURVE",
"740 1563 OFFCURVE",
"779 1563 CURVE SMOOTH",
"872 1563 OFFCURVE",
"926 1615 OFFCURVE",
"941 1719 CURVE",
"1067 1719 LINE",
"1067 1604 OFFCURVE",
"1013 1503 OFFCURVE",
"925 1446 CURVE SMOOTH",
"880 1417 OFFCURVE",
"830 1403 OFFCURVE",
"774 1403 CURVE SMOOTH",
"583 1403 OFFCURVE",
"513 1522 OFFCURVE",
"513 1669 CURVE SMOOTH"
);
},
{
closed = 1;
nodes = (
"227 1197 LINE",
"107 1218 LINE",
"118 1309 LINE",
"634 1309 LINE",
"624 1219 LINE",
"472 1196 LINE",
"384 531 LINE SMOOTH",
"368 384 OFFCURVE",
"353 254 OFFCURVE",
"434 157 CURVE SMOOTH",
"474 108 OFFCURVE",
"531 84 OFFCURVE",
"604 84 CURVE SMOOTH",
"801 84 OFFCURVE",
"902 235 OFFCURVE",
"942 538 CURVE SMOOTH",
"1030 1196 LINE",
"908 1219 LINE",
"918 1309 LINE",
"1305 1309 LINE",
"1294 1219 LINE",
"1185 1197 LINE",
"1099 539 LINE SMOOTH",
"1064 272 OFFCURVE",
"975 113 OFFCURVE",
"829 39 CURVE SMOOTH",
"756 2 OFFCURVE",
"667 -17 OFFCURVE",
"562 -17 CURVE SMOOTH",
"370 -17 OFFCURVE",
"241 51 OFFCURVE",
"179 167 CURVE SMOOTH",
"117 282 OFFCURVE",
"126 414 OFFCURVE",
"137 510 CURVE SMOOTH"
);
}
);
width = 1227;
}
);
note = Ubreve;
unicode = 016C;
},
{
glyphname = Ucircumflex;
layers = (
{
layerId = "8EB560C1-B0F9-428E-B807-264CC4717BB6";
name = "Bold Italic";
paths = (
{
closed = 1;
nodes = (
"227 1197 LINE",
"107 1218 LINE",
"118 1309 LINE",
"634 1309 LINE",
"624 1219 LINE",
"472 1196 LINE",
"384 531 LINE SMOOTH",
"368 384 OFFCURVE",
"353 254 OFFCURVE",
"434 157 CURVE SMOOTH",
"474 108 OFFCURVE",
"531 84 OFFCURVE",
"604 84 CURVE SMOOTH",
"801 84 OFFCURVE",
"902 235 OFFCURVE",
"942 538 CURVE SMOOTH",
"1030 1196 LINE",
"908 1219 LINE",
"918 1309 LINE",
"1305 1309 LINE",
"1294 1219 LINE",
"1185 1197 LINE",
"1099 539 LINE SMOOTH",
"1064 272 OFFCURVE",
"975 113 OFFCURVE",
"829 39 CURVE SMOOTH",
"756 2 OFFCURVE",
"667 -17 OFFCURVE",
"562 -17 CURVE SMOOTH",
"370 -17 OFFCURVE",
"241 51 OFFCURVE",
"179 167 CURVE SMOOTH",
"117 282 OFFCURVE",
"126 414 OFFCURVE",
"137 510 CURVE SMOOTH"
);
},
{
closed = 1;
nodes = (
"758 1727 LINE",
"910 1727 LINE",
"1092 1434 LINE",
"1006 1385 LINE",
"818 1570 LINE",
"540 1385 LINE",
"466 1434 LINE"
);
}
);
width = 1227;
}
);
note = Ucircumflex;
unicode = 00DB;
},
{
glyphname = Udieresis;
layers = (
{
layerId = "8EB560C1-B0F9-428E-B807-264CC4717BB6";
name = "Bold Italic";
paths = (
{
closed = 1;
nodes = (
"474 1619 OFFCURVE",
"500 1666 OFFCURVE",
"541 1691 CURVE SMOOTH",
"562 1703 OFFCURVE",
"584 1709 OFFCURVE",
"609 1709 CURVE SMOOTH",
"680 1709 OFFCURVE",
"724 1664 OFFCURVE",
"724 1601 CURVE SMOOTH",
"724 1514 OFFCURVE",
"668 1453 OFFCURVE",
"583 1453 CURVE SMOOTH",
"522 1453 OFFCURVE",
"474 1503 OFFCURVE",
"474 1566 CURVE SMOOTH"
);
},
{
closed = 1;
nodes = (
"850 1621 OFFCURVE",
"877 1667 OFFCURVE",
"918 1691 CURVE SMOOTH",
"939 1703 OFFCURVE",
"961 1709 OFFCURVE",
"986 1709 CURVE SMOOTH",
"1057 1709 OFFCURVE",
"1100 1663 OFFCURVE",
"1100 1600 CURVE SMOOTH",
"1100 1515 OFFCURVE",
"1046 1453 OFFCURVE",
"958 1453 CURVE SMOOTH",
"898 1453 OFFCURVE",
"850 1504 OFFCURVE",
"850 1568 CURVE SMOOTH"
);
},
{
closed = 1;
nodes = (
"227 1197 LINE",
"107 1218 LINE",
"118 1309 LINE",
"634 1309 LINE",
"624 1219 LINE",
"472 1196 LINE",
"384 531 LINE SMOOTH",
"368 384 OFFCURVE",
"353 254 OFFCURVE",
"434 157 CURVE SMOOTH",
"474 108 OFFCURVE",
"531 84 OFFCURVE",
"604 84 CURVE SMOOTH",
"801 84 OFFCURVE",
"902 235 OFFCURVE",
"942 538 CURVE SMOOTH",
"1030 1196 LINE",
"908 1219 LINE",
"918 1309 LINE",
"1305 1309 LINE",
"1294 1219 LINE",
"1185 1197 LINE",
"1099 539 LINE SMOOTH",
"1064 272 OFFCURVE",
"975 113 OFFCURVE",
"829 39 CURVE SMOOTH",
"756 2 OFFCURVE",
"667 -17 OFFCURVE",
"562 -17 CURVE SMOOTH",
"370 -17 OFFCURVE",
"241 51 OFFCURVE",
"179 167 CURVE SMOOTH",
"117 282 OFFCURVE",
"126 414 OFFCURVE",
"137 510 CURVE SMOOTH"
);
}
);
width = 1227;
}
);
note = Udieresis;
unicode = 00DC;
},
{
glyphname = Ugrave;
layers = (
{
layerId = "8EB560C1-B0F9-428E-B807-264CC4717BB6";
name = "Bold Italic";
paths = (
{
closed = 1;
nodes = (
"614 1727 LINE",
"846 1433 LINE",
"765 1367 LINE",
"708 1388 OFFCURVE",
"616 1442 OFFCURVE",
"547 1504 CURVE SMOOTH",
"512 1535 OFFCURVE",
"488 1564 OFFCURVE",
"474 1593 CURVE"
);
},
{
closed = 1;
nodes = (
"227 1197 LINE",
"107 1218 LINE",
"118 1309 LINE",
"634 1309 LINE",
"624 1219 LINE",
"472 1196 LINE",
"384 531 LINE SMOOTH",
"368 384 OFFCURVE",
"353 254 OFFCURVE",
"434 157 CURVE SMOOTH",
"474 108 OFFCURVE",
"531 84 OFFCURVE",
"604 84 CURVE SMOOTH",
"801 84 OFFCURVE",
"902 235 OFFCURVE",
"942 538 CURVE SMOOTH",
"1030 1196 LINE",
"908 1219 LINE",
"918 1309 LINE",
"1305 1309 LINE",
"1294 1219 LINE",
"1185 1197 LINE",
"1099 539 LINE SMOOTH",
"1064 272 OFFCURVE",
"975 113 OFFCURVE",
"829 39 CURVE SMOOTH",
"756 2 OFFCURVE",
"667 -17 OFFCURVE",
"562 -17 CURVE SMOOTH",
"370 -17 OFFCURVE",
"241 51 OFFCURVE",
"179 167 CURVE SMOOTH",
"117 282 OFFCURVE",
"126 414 OFFCURVE",
"137 510 CURVE SMOOTH"
);
}
);
width = 1227;
}
);
note = Ugrave;
unicode = 00D9;
},
{
glyphname = Uhungarumlaut;
layers = (
{
layerId = "8EB560C1-B0F9-428E-B807-264CC4717BB6";
name = "Bold Italic";
paths = (
{
closed = 1;
nodes = (
"227 1197 LINE",
"107 1218 LINE",
"118 1309 LINE",
"634 1309 LINE",
"624 1219 LINE",
"472 1196 LINE",
"384 531 LINE SMOOTH",
"368 384 OFFCURVE",
"353 254 OFFCURVE",
"434 157 CURVE SMOOTH",
"474 108 OFFCURVE",
"531 84 OFFCURVE",
"604 84 CURVE SMOOTH",
"801 84 OFFCURVE",
"902 235 OFFCURVE",
"942 538 CURVE SMOOTH",
"1030 1196 LINE",
"908 1219 LINE",
"918 1309 LINE",
"1305 1309 LINE",
"1294 1219 LINE",
"1185 1197 LINE",
"1099 539 LINE SMOOTH",
"1064 272 OFFCURVE",
"975 113 OFFCURVE",
"829 39 CURVE SMOOTH",
"756 2 OFFCURVE",
"667 -17 OFFCURVE",
"562 -17 CURVE SMOOTH",
"370 -17 OFFCURVE",
"241 51 OFFCURVE",
"179 167 CURVE SMOOTH",
"117 282 OFFCURVE",
"126 414 OFFCURVE",
"137 510 CURVE SMOOTH"
);
},
{
closed = 1;
nodes = (
"725 1727 LINE",
"854 1619 LINE",
"826 1555 OFFCURVE",
"751 1480 OFFCURVE",
"671 1425 CURVE SMOOTH",
"631 1397 OFFCURVE",
"596 1378 OFFCURVE",
"566 1367 CURVE",
"485 1428 LINE"
);
},
{
closed = 1;
nodes = (
"1125 1727 LINE",
"1253 1618 LINE",
"1214 1553 OFFCURVE",
"1144 1478 OFFCURVE",
"1070 1424 CURVE SMOOTH",
"1033 1397 OFFCURVE",
"999 1378 OFFCURVE",
"968 1367 CURVE",
"885 1428 LINE"
);
}
);
width = 1227;
}
);
note = Uhungarumlaut;
unicode = 0170;
},
{
glyphname = Umacron;
layers = (
{
layerId = "8EB560C1-B0F9-428E-B807-264CC4717BB6";
name = "Bold Italic";
paths = (
{
closed = 1;
nodes = (
"1018 1633 LINE",
"1001 1477 LINE",
"533 1477 LINE",
"550 1633 LINE"
);
},
{
closed = 1;
nodes = (
"227 1197 LINE",
"107 1218 LINE",
"118 1309 LINE",
"634 1309 LINE",
"624 1219 LINE",
"472 1196 LINE",
"384 531 LINE SMOOTH",
"368 384 OFFCURVE",
"353 254 OFFCURVE",
"434 157 CURVE SMOOTH",
"474 108 OFFCURVE",
"531 84 OFFCURVE",
"604 84 CURVE SMOOTH",
"801 84 OFFCURVE",
"902 235 OFFCURVE",
"942 538 CURVE SMOOTH",
"1030 1196 LINE",
"908 1219 LINE",
"918 1309 LINE",
"1305 1309 LINE",
"1294 1219 LINE",
"1185 1197 LINE",
"1099 539 LINE SMOOTH",
"1064 272 OFFCURVE",
"975 113 OFFCURVE",
"829 39 CURVE SMOOTH",
"756 2 OFFCURVE",
"667 -17 OFFCURVE",
"562 -17 CURVE SMOOTH",
"370 -17 OFFCURVE",
"241 51 OFFCURVE",
"179 167 CURVE SMOOTH",
"117 282 OFFCURVE",
"126 414 OFFCURVE",
"137 510 CURVE SMOOTH"
);
}
);
width = 1227;
}
);
note = Umacron;
unicode = 016A;
},
{
glyphname = Uogonek;
layers = (
{
layerId = "8EB560C1-B0F9-428E-B807-264CC4717BB6";
name = "Bold Italic";
paths = (
{
closed = 1;
nodes = (
"227 1197 LINE",
"107 1218 LINE",
"118 1309 LINE",
"634 1309 LINE",
"624 1219 LINE",
"472 1196 LINE",
"384 531 LINE SMOOTH",
"368 384 OFFCURVE",
"353 254 OFFCURVE",
"434 157 CURVE SMOOTH",
"474 108 OFFCURVE",
"531 84 OFFCURVE",
"604 84 CURVE SMOOTH",
"801 84 OFFCURVE",
"902 235 OFFCURVE",
"942 538 CURVE SMOOTH",
"1030 1196 LINE",
"908 1219 LINE",
"918 1309 LINE",
"1305 1309 LINE",
"1294 1219 LINE",
"1185 1197 LINE",
"1099 539 LINE SMOOTH",
"1058 222 OFFCURVE",
"939 56 OFFCURVE",
"734 3 CURVE",
"666 -65 OFFCURVE",
"621 -131 OFFCURVE",
"621 -175 CURVE SMOOTH",
"620 -224 OFFCURVE",
"642 -247 OFFCURVE",
"673 -247 CURVE SMOOTH",
"712 -247 OFFCURVE",
"747 -228 OFFCURVE",
"796 -188 CURVE",
"823 -279 LINE",
"762 -343 OFFCURVE",
"669 -389 OFFCURVE",
"562 -389 CURVE SMOOTH",
"465 -389 OFFCURVE",
"412 -332 OFFCURVE",
"412 -255 CURVE SMOOTH",
"412 -222 OFFCURVE",
"424 -179 OFFCURVE",
"445 -151 CURVE",
"478 -101 OFFCURVE",
"521 -56 OFFCURVE",
"574 -16 CURVE",
"562 -17 LINE",
"370 -17 OFFCURVE",
"241 51 OFFCURVE",
"179 167 CURVE SMOOTH",
"117 282 OFFCURVE",
"126 414 OFFCURVE",
"137 510 CURVE SMOOTH"
);
}
);
width = 1227;
}
);
note = Uogonek;
unicode = 0172;
},
{
glyphname = Uring;
layers = (
{
layerId = "8EB560C1-B0F9-428E-B807-264CC4717BB6";
name = "Bold Italic";
paths = (
{
closed = 1;
nodes = (
"227 1197 LINE",
"107 1218 LINE",
"118 1309 LINE",
"634 1309 LINE",
"624 1219 LINE",
"472 1196 LINE",
"384 531 LINE SMOOTH",
"368 384 OFFCURVE",
"353 254 OFFCURVE",
"434 157 CURVE SMOOTH",
"474 108 OFFCURVE",
"531 84 OFFCURVE",
"604 84 CURVE SMOOTH",
"801 84 OFFCURVE",
"902 235 OFFCURVE",
"942 538 CURVE SMOOTH",
"1030 1196 LINE",
"908 1219 LINE",
"918 1309 LINE",
"1305 1309 LINE",
"1294 1219 LINE",
"1185 1197 LINE",
"1099 539 LINE SMOOTH",
"1064 272 OFFCURVE",
"975 113 OFFCURVE",
"829 39 CURVE SMOOTH",
"756 2 OFFCURVE",
"667 -17 OFFCURVE",
"562 -17 CURVE SMOOTH",
"370 -17 OFFCURVE",
"241 51 OFFCURVE",
"179 167 CURVE SMOOTH",
"117 282 OFFCURVE",
"126 414 OFFCURVE",
"137 510 CURVE SMOOTH"
);
},
{
closed = 1;
nodes = (
"505 1692 OFFCURVE",
"578 1759 OFFCURVE",
"677 1790 CURVE SMOOTH",
"726 1805 OFFCURVE",
"776 1813 OFFCURVE",
"827 1813 CURVE SMOOTH",
"980 1813 OFFCURVE",
"1083 1749 OFFCURVE",
"1083 1640 CURVE SMOOTH",
"1083 1532 OFFCURVE",
"1016 1458 OFFCURVE",
"921 1423 CURVE SMOOTH",
"873 1406 OFFCURVE",
"822 1397 OFFCURVE",
"769 1397 CURVE SMOOTH",
"605 1397 OFFCURVE",
"505 1466 OFFCURVE",
"505 1587 CURVE SMOOTH"
);
},
{
closed = 1;
nodes = (
"936 1679 OFFCURVE",
"880 1714 OFFCURVE",
"809 1714 CURVE SMOOTH",
"724 1714 OFFCURVE",
"652 1680 OFFCURVE",
"652 1601 CURVE SMOOTH",
"652 1540 OFFCURVE",
"709 1496 OFFCURVE",
"781 1496 CURVE SMOOTH",
"869 1496 OFFCURVE",
"936 1531 OFFCURVE",
"936 1623 CURVE SMOOTH"
);
}
);
width = 1227;
}
);
note = Uring;
unicode = 016E;
},
{
glyphname = Utilde;
layers = (
{
layerId = "8EB560C1-B0F9-428E-B807-264CC4717BB6";
name = "Bold Italic";
paths = (
{
closed = 1;
nodes = (
"467 1549 LINE",
"486 1600 OFFCURVE",
"526 1646 OFFCURVE",
"583 1674 CURVE SMOOTH",
"611 1687 OFFCURVE",
"642 1694 OFFCURVE",
"675 1694 CURVE SMOOTH",
"736 1694 OFFCURVE",
"773 1668 OFFCURVE",
"822 1623 CURVE SMOOTH",
"865 1584 OFFCURVE",
"886 1569 OFFCURVE",
"921 1569 CURVE SMOOTH",
"978 1569 OFFCURVE",
"1011 1601 OFFCURVE",
"1050 1650 CURVE",
"1114 1557 LINE",
"1094 1508 OFFCURVE",
"1055 1458 OFFCURVE",
"999 1428 CURVE SMOOTH",
"971 1413 OFFCURVE",
"941 1405 OFFCURVE",
"909 1405 CURVE SMOOTH",
"861 1405 OFFCURVE",
"825 1420 OFFCURVE",
"801 1439 CURVE",
"788 1448 OFFCURVE",
"773 1461 OFFCURVE",
"756 1476 CURVE SMOOTH",
"716 1512 OFFCURVE",
"691 1531 OFFCURVE",
"650 1531 CURVE SMOOTH",
"602 1531 OFFCURVE",
"564 1503 OFFCURVE",
"525 1459 CURVE"
);
},
{
closed = 1;
nodes = (
"227 1197 LINE",
"107 1218 LINE",
"118 1309 LINE",
"634 1309 LINE",
"624 1219 LINE",
"472 1196 LINE",
"384 531 LINE SMOOTH",
"368 384 OFFCURVE",
"353 254 OFFCURVE",
"434 157 CURVE SMOOTH",
"474 108 OFFCURVE",
"531 84 OFFCURVE",
"604 84 CURVE SMOOTH",
"801 84 OFFCURVE",
"902 235 OFFCURVE",
"942 538 CURVE SMOOTH",
"1030 1196 LINE",
"908 1219 LINE",
"918 1309 LINE",
"1305 1309 LINE",
"1294 1219 LINE",
"1185 1197 LINE",
"1099 539 LINE SMOOTH",
"1064 272 OFFCURVE",
"975 113 OFFCURVE",
"829 39 CURVE SMOOTH",
"756 2 OFFCURVE",
"667 -17 OFFCURVE",
"562 -17 CURVE SMOOTH",
"370 -17 OFFCURVE",
"241 51 OFFCURVE",
"179 167 CURVE SMOOTH",
"117 282 OFFCURVE",
"126 414 OFFCURVE",
"137 510 CURVE SMOOTH"
);
}
);
width = 1227;
}
);
note = Utilde;
unicode = 0168;
},
{
glyphname = V;
layers = (
{
layerId = "8EB560C1-B0F9-428E-B807-264CC4717BB6";
name = "Bold Italic";
paths = (
{
closed = 1;
nodes = (
"17 1219 LINE",
"28 1309 LINE",
"529 1309 LINE",
"520 1218 LINE",
"385 1196 LINE",
"489 415 LINE",
"509 210 LINE",
"585 415 LINE",
"935 1196 LINE",
"799 1218 LINE",
"808 1309 LINE",
"1222 1309 LINE",
"1209 1218 LINE",
"1096 1197 LINE",
"538 -9 LINE",
"328 -13 LINE",
"130 1196 LINE"
);
}
);
width = 1062;
}
);
note = V;
unicode = 0056;
},
{
glyphname = W;
layers = (
{
layerId = "8EB560C1-B0F9-428E-B807-264CC4717BB6";
name = "Bold Italic";
paths = (
{
closed = 1;
nodes = (
"0 1219 LINE",
"11 1309 LINE",
"492 1309 LINE",
"484 1218 LINE",
"359 1196 LINE",
"449 410 LINE",
"473 210 LINE",
"532 385 LINE",
"810 1082 LINE",
"798 1198 LINE",
"677 1219 LINE",
"685 1309 LINE",
"1182 1309 LINE",
"1170 1218 LINE",
"1041 1196 LINE",
"1121 410 LINE",
"1131 210 LINE",
"1201 396 LINE",
"1535 1195 LINE",
"1376 1218 LINE",
"1385 1309 LINE",
"1831 1309 LINE",
"1821 1219 LINE",
"1698 1197 LINE",
"1158 -9 LINE",
"932 -9 LINE",
"845 826 LINE",
"511 -9 LINE",
"287 -9 LINE",
"114 1196 LINE"
);
}
);
width = 1615;
}
);
note = W;
unicode = 0057;
},
{
glyphname = Wacute;
layers = (
{
layerId = "8EB560C1-B0F9-428E-B807-264CC4717BB6";
name = "Bold Italic";
paths = (
{
closed = 1;
nodes = (
"1098 1727 LINE",
"1236 1593 LINE",
"1208 1537 OFFCURVE",
"1130 1471 OFFCURVE",
"1047 1421 CURVE SMOOTH",
"1006 1396 OFFCURVE",
"970 1378 OFFCURVE",
"941 1367 CURVE",
"861 1433 LINE"
);
},
{
closed = 1;
nodes = (
"0 1219 LINE",
"11 1309 LINE",
"492 1309 LINE",
"484 1218 LINE",
"359 1196 LINE",
"449 410 LINE",
"473 210 LINE",
"532 385 LINE",
"810 1082 LINE",
"798 1198 LINE",
"677 1219 LINE",
"685 1309 LINE",
"1182 1309 LINE",
"1170 1218 LINE",
"1041 1196 LINE",
"1121 410 LINE",
"1131 210 LINE",
"1201 396 LINE",
"1535 1195 LINE",
"1376 1218 LINE",
"1385 1309 LINE",
"1831 1309 LINE",
"1821 1219 LINE",
"1698 1197 LINE",
"1158 -9 LINE",
"932 -9 LINE",
"845 826 LINE",
"511 -9 LINE",
"287 -9 LINE",
"114 1196 LINE"
);
}
);
width = 1615;
}
);
note = Wacute;
unicode = 1E82;
},
{
glyphname = Wcircumflex;
layers = (
{
layerId = "8EB560C1-B0F9-428E-B807-264CC4717BB6";
name = "Bold Italic";
paths = (
{
closed = 1;
nodes = (
"0 1219 LINE",
"11 1309 LINE",
"492 1309 LINE",
"484 1218 LINE",
"359 1196 LINE",
"449 410 LINE",
"473 210 LINE",
"532 385 LINE",
"810 1082 LINE",
"798 1198 LINE",
"677 1219 LINE",
"685 1309 LINE",
"1182 1309 LINE",
"1170 1218 LINE",
"1041 1196 LINE",
"1121 410 LINE",
"1131 210 LINE",
"1201 396 LINE",
"1535 1195 LINE",
"1376 1218 LINE",
"1385 1309 LINE",
"1831 1309 LINE",
"1821 1219 LINE",
"1698 1197 LINE",
"1158 -9 LINE",
"932 -9 LINE",
"845 826 LINE",
"511 -9 LINE",
"287 -9 LINE",
"114 1196 LINE"
);
},
{
closed = 1;
nodes = (
"932 1727 LINE",
"1084 1727 LINE",
"1266 1434 LINE",
"1180 1385 LINE",
"992 1570 LINE",
"714 1385 LINE",
"640 1434 LINE"
);
}
);
width = 1615;
}
);
note = Wcircumflex;
unicode = 0174;
},
{
glyphname = Wdieresis;
layers = (
{
layerId = "8EB560C1-B0F9-428E-B807-264CC4717BB6";
name = "Bold Italic";
paths = (
{
closed = 1;
nodes = (
"648 1619 OFFCURVE",
"674 1666 OFFCURVE",
"715 1691 CURVE SMOOTH",
"736 1703 OFFCURVE",
"758 1709 OFFCURVE",
"783 1709 CURVE SMOOTH",
"854 1709 OFFCURVE",
"898 1664 OFFCURVE",
"898 1601 CURVE SMOOTH",
"898 1514 OFFCURVE",
"842 1453 OFFCURVE",
"757 1453 CURVE SMOOTH",
"696 1453 OFFCURVE",
"648 1503 OFFCURVE",
"648 1566 CURVE SMOOTH"
);
},
{
closed = 1;
nodes = (
"1024 1621 OFFCURVE",
"1051 1667 OFFCURVE",
"1092 1691 CURVE SMOOTH",
"1113 1703 OFFCURVE",
"1135 1709 OFFCURVE",
"1160 1709 CURVE SMOOTH",
"1231 1709 OFFCURVE",
"1274 1663 OFFCURVE",
"1274 1600 CURVE SMOOTH",
"1274 1515 OFFCURVE",
"1220 1453 OFFCURVE",
"1132 1453 CURVE SMOOTH",
"1072 1453 OFFCURVE",
"1024 1504 OFFCURVE",
"1024 1568 CURVE SMOOTH"
);
},
{
closed = 1;
nodes = (
"0 1219 LINE",
"11 1309 LINE",
"492 1309 LINE",
"484 1218 LINE",
"359 1196 LINE",
"449 410 LINE",
"473 210 LINE",
"532 385 LINE",
"810 1082 LINE",
"798 1198 LINE",
"677 1219 LINE",
"685 1309 LINE",
"1182 1309 LINE",
"1170 1218 LINE",
"1041 1196 LINE",
"1121 410 LINE",
"1131 210 LINE",
"1201 396 LINE",
"1535 1195 LINE",
"1376 1218 LINE",
"1385 1309 LINE",
"1831 1309 LINE",
"1821 1219 LINE",
"1698 1197 LINE",
"1158 -9 LINE",
"932 -9 LINE",
"845 826 LINE",
"511 -9 LINE",
"287 -9 LINE",
"114 1196 LINE"
);
}
);
width = 1615;
}
);
note = Wdieresis;
unicode = 1E84;
},
{
glyphname = Wgrave;
layers = (
{
layerId = "8EB560C1-B0F9-428E-B807-264CC4717BB6";
name = "Bold Italic";
paths = (
{
closed = 1;
nodes = (
"789 1727 LINE",
"1021 1433 LINE",
"940 1367 LINE",
"883 1388 OFFCURVE",
"791 1442 OFFCURVE",
"722 1504 CURVE SMOOTH",
"687 1535 OFFCURVE",
"663 1564 OFFCURVE",
"649 1593 CURVE"
);
},
{
closed = 1;
nodes = (
"0 1219 LINE",
"11 1309 LINE",
"492 1309 LINE",
"484 1218 LINE",
"359 1196 LINE",
"449 410 LINE",
"473 210 LINE",
"532 385 LINE",
"810 1082 LINE",
"798 1198 LINE",
"677 1219 LINE",
"685 1309 LINE",
"1182 1309 LINE",
"1170 1218 LINE",
"1041 1196 LINE",
"1121 410 LINE",
"1131 210 LINE",
"1201 396 LINE",
"1535 1195 LINE",
"1376 1218 LINE",
"1385 1309 LINE",
"1831 1309 LINE",
"1821 1219 LINE",
"1698 1197 LINE",
"1158 -9 LINE",
"932 -9 LINE",
"845 826 LINE",
"511 -9 LINE",
"287 -9 LINE",
"114 1196 LINE"
);
}
);
width = 1615;
}
);
note = Wgrave;
unicode = 1E80;
},
{
glyphname = X;
layers = (
{
layerId = "8EB560C1-B0F9-428E-B807-264CC4717BB6";
name = "Bold Italic";
paths = (
{
closed = 1;
nodes = (
"51 109 LINE",
"477 648 LINE",
"218 1195 LINE",
"108 1218 LINE",
"117 1309 LINE",
"630 1309 LINE",
"623 1219 LINE",
"498 1197 LINE",
"654 793 LINE",
"926 1196 LINE",
"808 1218 LINE",
"816 1309 LINE",
"1245 1309 LINE",
"1237 1218 LINE",
"1119 1197 LINE",
"714 677 LINE",
"998 109 LINE",
"1117 84 LINE",
"1109 0 LINE",
"574 0 LINE",
"580 84 LINE",
"708 109 LINE",
"535 525 LINE",
"249 109 LINE",
"378 83 LINE",
"371 0 LINE",
"-60 0 LINE",
"-51 84 LINE"
);
}
);
width = 1154;
}
);
note = X;
unicode = 0058;
},
{
glyphname = Y;
layers = (
{
layerId = "8EB560C1-B0F9-428E-B807-264CC4717BB6";
name = "Bold Italic";
paths = (
{
closed = 1;
nodes = (
"382 109 LINE",
"433 514 LINE",
"136 1196 LINE",
"34 1218 LINE",
"43 1309 LINE",
"568 1309 LINE",
"555 1218 LINE",
"412 1196 LINE",
"576 754 LINE",
"611 636 LINE",
"669 741 LINE",
"943 1196 LINE",
"811 1218 LINE",
"820 1309 LINE",
"1232 1309 LINE",
"1221 1218 LINE",
"1121 1197 LINE",
"675 514 LINE",
"623 109 LINE",
"814 84 LINE",
"806 0 LINE",
"181 0 LINE",
"190 84 LINE"
);
}
);
width = 1070;
}
);
note = Y;
unicode = 0059;
},
{
glyphname = Yacute;
layers = (
{
layerId = "8EB560C1-B0F9-428E-B807-264CC4717BB6";
name = "Bold Italic";
paths = (
{
closed = 1;
nodes = (
"382 109 LINE",
"433 514 LINE",
"136 1196 LINE",
"34 1218 LINE",
"43 1309 LINE",
"568 1309 LINE",
"555 1218 LINE",
"412 1196 LINE",
"576 754 LINE",
"611 636 LINE",
"669 741 LINE",
"943 1196 LINE",
"811 1218 LINE",
"820 1309 LINE",
"1232 1309 LINE",
"1221 1218 LINE",
"1121 1197 LINE",
"675 514 LINE",
"623 109 LINE",
"814 84 LINE",
"806 0 LINE",
"181 0 LINE",
"190 84 LINE"
);
},
{
closed = 1;
nodes = (
"847 1727 LINE",
"985 1593 LINE",
"957 1537 OFFCURVE",
"879 1471 OFFCURVE",
"796 1421 CURVE SMOOTH",
"755 1396 OFFCURVE",
"719 1378 OFFCURVE",
"690 1367 CURVE",
"610 1433 LINE"
);
}
);
width = 1070;
}
);
note = Yacute;
unicode = 00DD;
},
{
glyphname = Ycircumflex;
layers = (
{
layerId = "8EB560C1-B0F9-428E-B807-264CC4717BB6";
name = "Bold Italic";
paths = (
{
closed = 1;
nodes = (
"382 109 LINE",
"433 514 LINE",
"136 1196 LINE",
"34 1218 LINE",
"43 1309 LINE",
"568 1309 LINE",
"555 1218 LINE",
"412 1196 LINE",
"576 754 LINE",
"611 636 LINE",
"669 741 LINE",
"943 1196 LINE",
"811 1218 LINE",
"820 1309 LINE",
"1232 1309 LINE",
"1221 1218 LINE",
"1121 1197 LINE",
"675 514 LINE",
"623 109 LINE",
"814 84 LINE",
"806 0 LINE",
"181 0 LINE",
"190 84 LINE"
);
},
{
closed = 1;
nodes = (
"680 1727 LINE",
"832 1727 LINE",
"1014 1434 LINE",
"928 1385 LINE",
"740 1570 LINE",
"462 1385 LINE",
"388 1434 LINE"
);
}
);
width = 1070;
}
);
note = Ycircumflex;
unicode = 0176;
},
{
glyphname = Ydieresis;
layers = (
{
layerId = "8EB560C1-B0F9-428E-B807-264CC4717BB6";
name = "Bold Italic";
paths = (
{
closed = 1;
nodes = (
"382 109 LINE",
"433 514 LINE",
"136 1196 LINE",
"34 1218 LINE",
"43 1309 LINE",
"568 1309 LINE",
"555 1218 LINE",
"412 1196 LINE",
"576 754 LINE",
"611 636 LINE",
"669 741 LINE",
"943 1196 LINE",
"811 1218 LINE",
"820 1309 LINE",
"1232 1309 LINE",
"1221 1218 LINE",
"1121 1197 LINE",
"675 514 LINE",
"623 109 LINE",
"814 84 LINE",
"806 0 LINE",
"181 0 LINE",
"190 84 LINE"
);
},
{
closed = 1;
nodes = (
"397 1619 OFFCURVE",
"423 1666 OFFCURVE",
"464 1691 CURVE SMOOTH",
"485 1703 OFFCURVE",
"507 1709 OFFCURVE",
"532 1709 CURVE SMOOTH",
"603 1709 OFFCURVE",
"647 1664 OFFCURVE",
"647 1601 CURVE SMOOTH",
"647 1514 OFFCURVE",
"591 1453 OFFCURVE",
"506 1453 CURVE SMOOTH",
"445 1453 OFFCURVE",
"397 1503 OFFCURVE",
"397 1566 CURVE SMOOTH"
);
},
{
closed = 1;
nodes = (
"773 1621 OFFCURVE",
"800 1667 OFFCURVE",
"841 1691 CURVE SMOOTH",
"862 1703 OFFCURVE",
"884 1709 OFFCURVE",
"909 1709 CURVE SMOOTH",
"980 1709 OFFCURVE",
"1023 1663 OFFCURVE",
"1023 1600 CURVE SMOOTH",
"1023 1515 OFFCURVE",
"969 1453 OFFCURVE",
"881 1453 CURVE SMOOTH",
"821 1453 OFFCURVE",
"773 1504 OFFCURVE",
"773 1568 CURVE SMOOTH"
);
}
);
width = 1070;
}
);
note = Ydieresis;
unicode = 0178;
},
{
glyphname = Ygrave;
layers = (
{
layerId = "8EB560C1-B0F9-428E-B807-264CC4717BB6";
name = "Bold Italic";
paths = (
{
closed = 1;
nodes = (
"382 109 LINE",
"433 514 LINE",
"136 1196 LINE",
"34 1218 LINE",
"43 1309 LINE",
"568 1309 LINE",
"555 1218 LINE",
"412 1196 LINE",
"576 754 LINE",
"611 636 LINE",
"669 741 LINE",
"943 1196 LINE",
"811 1218 LINE",
"820 1309 LINE",
"1232 1309 LINE",
"1221 1218 LINE",
"1121 1197 LINE",
"675 514 LINE",
"623 109 LINE",
"814 84 LINE",
"806 0 LINE",
"181 0 LINE",
"190 84 LINE"
);
},
{
closed = 1;
nodes = (
"537 1727 LINE",
"769 1433 LINE",
"688 1367 LINE",
"631 1388 OFFCURVE",
"539 1442 OFFCURVE",
"470 1504 CURVE SMOOTH",
"435 1535 OFFCURVE",
"411 1564 OFFCURVE",
"397 1593 CURVE"
);
}
);
width = 1070;
}
);
note = Ygrave;
unicode = 1EF2;
},
{
glyphname = Z;
layers = (
{
layerId = "8EB560C1-B0F9-428E-B807-264CC4717BB6";
name = "Bold Italic";
paths = (
{
closed = 1;
nodes = (
"694 1082 LINE",
"817 1204 LINE",
"386 1193 LINE",
"281 969 LINE",
"152 989 LINE",
"205 1309 LINE",
"1060 1309 LINE",
"1084 1235 LINE",
"368 228 LINE",
"256 107 LINE",
"732 126 LINE",
"875 378 LINE",
"1004 343 LINE",
"920 0 LINE",
"-1 0 LINE",
"-28 77 LINE"
);
}
);
width = 1041;
}
);
note = Z;
unicode = 005A;
},
{
glyphname = Zacute;
layers = (
{
layerId = "8EB560C1-B0F9-428E-B807-264CC4717BB6";
name = "Bold Italic";
paths = (
{
closed = 1;
nodes = (
"694 1082 LINE",
"817 1204 LINE",
"386 1193 LINE",
"281 969 LINE",
"152 989 LINE",
"205 1309 LINE",
"1060 1309 LINE",
"1084 1235 LINE",
"368 228 LINE",
"256 107 LINE",
"732 126 LINE",
"875 378 LINE",
"1004 343 LINE",
"920 0 LINE",
"-1 0 LINE",
"-28 77 LINE"
);
},
{
closed = 1;
nodes = (
"804 1727 LINE",
"942 1593 LINE",
"914 1537 OFFCURVE",
"836 1471 OFFCURVE",
"753 1421 CURVE SMOOTH",
"712 1396 OFFCURVE",
"676 1378 OFFCURVE",
"647 1367 CURVE",
"567 1433 LINE"
);
}
);
width = 1041;
}
);
note = Zacute;
unicode = 0179;
},
{
glyphname = Zcaron;
layers = (
{
layerId = "8EB560C1-B0F9-428E-B807-264CC4717BB6";
name = "Bold Italic";
paths = (
{
closed = 1;
nodes = (
"473 1727 LINE",
"659 1555 LINE",
"935 1727 LINE",
"1010 1678 LINE",
"721 1385 LINE",
"570 1385 LINE",
"385 1677 LINE"
);
},
{
closed = 1;
nodes = (
"694 1082 LINE",
"817 1204 LINE",
"386 1193 LINE",
"281 969 LINE",
"152 989 LINE",
"205 1309 LINE",
"1060 1309 LINE",
"1084 1235 LINE",
"368 228 LINE",
"256 107 LINE",
"732 126 LINE",
"875 378 LINE",
"1004 343 LINE",
"920 0 LINE",
"-1 0 LINE",
"-28 77 LINE"
);
}
);
width = 1041;
}
);
note = Zcaron;
unicode = 017D;
},
{
glyphname = Zdotaccent;
layers = (
{
layerId = "8EB560C1-B0F9-428E-B807-264CC4717BB6";
name = "Bold Italic";
paths = (
{
closed = 1;
nodes = (
"518 1593 OFFCURVE",
"548 1642 OFFCURVE",
"596 1670 CURVE SMOOTH",
"619 1684 OFFCURVE",
"645 1691 OFFCURVE",
"673 1691 CURVE SMOOTH",
"724 1691 OFFCURVE",
"766 1666 OFFCURVE",
"789 1630 CURVE SMOOTH",
"800 1612 OFFCURVE",
"806 1593 OFFCURVE",
"806 1573 CURVE SMOOTH",
"806 1517 OFFCURVE",
"779 1466 OFFCURVE",
"730 1438 CURVE SMOOTH",
"705 1423 OFFCURVE",
"677 1416 OFFCURVE",
"645 1416 CURVE SMOOTH",
"602 1416 OFFCURVE",
"560 1442 OFFCURVE",
"536 1480 CURVE SMOOTH",
"524 1499 OFFCURVE",
"518 1518 OFFCURVE",
"518 1538 CURVE SMOOTH"
);
},
{
closed = 1;
nodes = (
"694 1082 LINE",
"817 1204 LINE",
"386 1193 LINE",
"281 969 LINE",
"152 989 LINE",
"205 1309 LINE",
"1060 1309 LINE",
"1084 1235 LINE",
"368 228 LINE",
"256 107 LINE",
"732 126 LINE",
"875 378 LINE",
"1004 343 LINE",
"920 0 LINE",
"-1 0 LINE",
"-28 77 LINE"
);
}
);
width = 1041;
}
);
note = Zdotaccent;
unicode = 017B;
},
{
glyphname = uni0162;
layers = (
{
layerId = "8EB560C1-B0F9-428E-B807-264CC4717BB6";
name = "Bold Italic";
paths = (
{
closed = 1;
nodes = (
"1233 1309 LINE",
"1167 851 LINE",
"1039 851 LINE",
"1033 1190 LINE",
"795 1211 LINE",
"651 109 LINE",
"882 86 LINE",
"874 0 LINE",
"596 0 LINE",
"611 -40 OFFCURVE",
"621 -104 OFFCURVE",
"621 -157 CURVE SMOOTH",
"621 -320 OFFCURVE",
"535 -408 OFFCURVE",
"371 -408 CURVE SMOOTH",
"322 -408 OFFCURVE",
"246 -397 OFFCURVE",
"227 -384 CURVE",
"249 -254 LINE",
"265 -262 OFFCURVE",
"294 -267 OFFCURVE",
"322 -267 CURVE SMOOTH",
"419 -267 OFFCURVE",
"479 -204 OFFCURVE",
"479 -81 CURVE SMOOTH",
"479 -52 OFFCURVE",
"477 -25 OFFCURVE",
"473 0 CURVE",
"184 0 LINE",
"194 86 LINE",
"407 109 LINE",
"550 1211 LINE",
"314 1190 LINE",
"200 851 LINE",
"65 851 LINE",
"143 1309 LINE"
);
}
);
width = 1160;
}
);
note = uni0162;
unicode = 0162;
},
{
glyphname = uni01C4;
layers = (
{
layerId = "8EB560C1-B0F9-428E-B807-264CC4717BB6";
name = "Bold Italic";
paths = (
{
closed = 1;
nodes = (
"135 109 LINE",
"278 1196 LINE",
"158 1218 LINE",
"168 1309 LINE",
"433 1309 LINE SMOOTH",
"460 1309 OFFCURVE",
"502 1311 OFFCURVE",
"561 1316 CURVE SMOOTH",
"625 1321 OFFCURVE",
"674 1323 OFFCURVE",
"708 1323 CURVE SMOOTH",
"1079 1323 OFFCURVE",
"1238 1117 OFFCURVE",
"1238 780 CURVE SMOOTH",
"1238 472 OFFCURVE",
"1128 224 OFFCURVE",
"913 88 CURVE SMOOTH",
"805 20 OFFCURVE",
"674 -14 OFFCURVE",
"519 -14 CURVE SMOOTH",
"499 -14 OFFCURVE",
"456 -11 OFFCURVE",
"432 -8 CURVE SMOOTH",
"381 -3 OFFCURVE",
"301 0 OFFCURVE",
"252 0 CURVE SMOOTH",
"-6 0 LINE",
"3 83 LINE"
);
},
{
closed = 1;
nodes = (
"380 115 LINE",
"420 102 OFFCURVE",
"496 92 OFFCURVE",
"541 92 CURVE",
"741 99 OFFCURVE",
"873 245 OFFCURVE",
"934 446 CURVE SMOOTH",
"965 546 OFFCURVE",
"980 651 OFFCURVE",
"980 760 CURVE SMOOTH",
"980 984 OFFCURVE",
"938 1113 OFFCURVE",
"847 1173 CURVE SMOOTH",
"801 1203 OFFCURVE",
"741 1218 OFFCURVE",
"666 1218 CURVE SMOOTH",
"613 1218 OFFCURVE",
"549 1208 OFFCURVE",
"520 1199 CURVE"
);
},
{
closed = 1;
nodes = (
"1962 1082 LINE",
"2085 1204 LINE",
"1654 1193 LINE",
"1549 969 LINE",
"1420 989 LINE",
"1473 1309 LINE",
"2328 1309 LINE",
"2352 1235 LINE",
"1636 228 LINE",
"1524 107 LINE",
"2000 126 LINE",
"2143 378 LINE",
"2272 343 LINE",
"2188 0 LINE",
"1267 0 LINE",
"1240 77 LINE"
);
},
{
closed = 1;
nodes = (
"1742 1727 LINE",
"1928 1555 LINE",
"2204 1727 LINE",
"2279 1678 LINE",
"1990 1385 LINE",
"1839 1385 LINE",
"1654 1677 LINE"
);
}
);
width = 2309;
}
);
note = uni01C4;
unicode = 01C4;
},
{
glyphname = uni01C5;
layers = (
{
layerId = "8EB560C1-B0F9-428E-B807-264CC4717BB6";
name = "Bold Italic";
paths = (
{
closed = 1;
nodes = (
"135 109 LINE",
"278 1196 LINE",
"158 1218 LINE",
"168 1309 LINE",
"433 1309 LINE SMOOTH",
"460 1309 OFFCURVE",
"502 1311 OFFCURVE",
"561 1316 CURVE SMOOTH",
"625 1321 OFFCURVE",
"674 1323 OFFCURVE",
"708 1323 CURVE SMOOTH",
"1079 1323 OFFCURVE",
"1238 1117 OFFCURVE",
"1238 780 CURVE SMOOTH",
"1238 472 OFFCURVE",
"1128 224 OFFCURVE",
"913 88 CURVE SMOOTH",
"805 20 OFFCURVE",
"674 -14 OFFCURVE",
"519 -14 CURVE SMOOTH",
"499 -14 OFFCURVE",
"456 -11 OFFCURVE",
"432 -8 CURVE SMOOTH",
"381 -3 OFFCURVE",
"301 0 OFFCURVE",
"252 0 CURVE SMOOTH",
"-6 0 LINE",
"3 83 LINE"
);
},
{
closed = 1;
nodes = (
"380 115 LINE",
"420 102 OFFCURVE",
"496 92 OFFCURVE",
"541 92 CURVE",
"741 99 OFFCURVE",
"873 245 OFFCURVE",
"934 446 CURVE SMOOTH",
"965 546 OFFCURVE",
"980 651 OFFCURVE",
"980 760 CURVE SMOOTH",
"980 984 OFFCURVE",
"938 1113 OFFCURVE",
"847 1173 CURVE SMOOTH",
"801 1203 OFFCURVE",
"741 1218 OFFCURVE",
"666 1218 CURVE SMOOTH",
"613 1218 OFFCURVE",
"549 1208 OFFCURVE",
"520 1199 CURVE"
);
},
{
closed = 1;
nodes = (
"1474 995 OFFCURVE",
"1500 1001 OFFCURVE",
"1530 1001 CURVE SMOOTH",
"1593 1001 OFFCURVE",
"1707 994 OFFCURVE",
"1806 986 CURVE SMOOTH",
"1918 978 OFFCURVE",
"1993 974 OFFCURVE",
"2032 974 CURVE SMOOTH",
"2069 974 OFFCURVE",
"2093 979 OFFCURVE",
"2117 998 CURVE",
"2119 1000 LINE",
"2166 948 LINE",
"1608 256 LINE",
"1520 181 LINE",
"1838 181 LINE SMOOTH",
"1925 181 OFFCURVE",
"1983 241 OFFCURVE",
"1994 321 CURVE",
"2065 321 LINE",
"2066 304 OFFCURVE",
"2067 288 OFFCURVE",
"2067 273 CURVE SMOOTH",
"2067 157 OFFCURVE",
"2046 30 OFFCURVE",
"1998 -3 CURVE SMOOTH",
"1982 -14 OFFCURVE",
"1953 -20 OFFCURVE",
"1910 -20 CURVE SMOOTH",
"1859 -20 OFFCURVE",
"1765 -15 OFFCURVE",
"1626 -4 CURVE SMOOTH",
"1510 5 OFFCURVE",
"1433 9 OFFCURVE",
"1394 9 CURVE SMOOTH",
"1365 9 OFFCURVE",
"1328 1 OFFCURVE",
"1308 -16 CURVE",
"1304 -20 LINE",
"1248 34 LINE",
"1803 713 LINE",
"1906 799 LINE",
"1599 800 LINE SMOOTH",
"1522 800 OFFCURVE",
"1471 742 OFFCURVE",
"1462 663 CURVE",
"1388 663 LINE",
"1387 680 OFFCURVE",
"1386 702 OFFCURVE",
"1386 728 CURVE SMOOTH",
"1386 843 OFFCURVE",
"1406 959 OFFCURVE",
"1451 982 CURVE"
);
},
{
closed = 1;
nodes = (
"1615 1428 LINE",
"1806 1235 LINE",
"2074 1428 LINE",
"2153 1379 LINE",
"1864 1075 LINE",
"1712 1075 LINE",
"1527 1379 LINE"
);
}
);
width = 2142;
}
);
note = uni01C5;
unicode = 01C5;
},
{
glyphname = uni01C7;
layers = (
{
layerId = "8EB560C1-B0F9-428E-B807-264CC4717BB6";
name = "Bold Italic";
paths = (
{
closed = 1;
nodes = (
"137 109 LINE",
"277 1196 LINE",
"157 1218 LINE",
"168 1309 LINE",
"691 1309 LINE",
"680 1218 LINE",
"521 1196 LINE",
"381 106 LINE",
"731 120 LINE",
"884 461 LINE",
"1015 441 LINE",
"929 0 LINE",
"5 0 LINE",
"15 84 LINE"
);
},
{
closed = 1;
nodes = (
"1223 1218 LINE",
"1236 1309 LINE",
"1725 1309 LINE",
"1716 1218 LINE",
"1588 1197 LINE",
"1584 1164 LINE SMOOTH",
"1544 819 OFFCURVE",
"1513 559 OFFCURVE",
"1491 383 CURVE SMOOTH",
"1447 30 OFFCURVE",
"1430 -14 OFFCURVE",
"1331 -114 CURVE SMOOTH",
"1231 -215 OFFCURVE",
"1095 -274 OFFCURVE",
"948 -297 CURVE",
"910 -212 LINE",
"1021 -179 OFFCURVE",
"1103 -114 OFFCURVE",
"1151 -40 CURVE SMOOTH",
"1175 -3 OFFCURVE",
"1191 35 OFFCURVE",
"1199 74 CURVE SMOOTH",
"1247 313 OFFCURVE",
"1275 538 OFFCURVE",
"1323 973 CURVE SMOOTH",
"1330 1037 OFFCURVE",
"1337 1112 OFFCURVE",
"1348 1196 CURVE"
);
}
);
width = 1687;
}
);
note = uni01C7;
unicode = 01C7;
},
{
glyphname = uni01C8;
layers = (
{
layerId = "8EB560C1-B0F9-428E-B807-264CC4717BB6";
name = "Bold Italic";
paths = (
{
closed = 1;
nodes = (
"137 109 LINE",
"277 1196 LINE",
"157 1218 LINE",
"168 1309 LINE",
"691 1309 LINE",
"680 1218 LINE",
"521 1196 LINE",
"381 106 LINE",
"731 120 LINE",
"884 461 LINE",
"1015 441 LINE",
"929 0 LINE",
"5 0 LINE",
"15 84 LINE"
);
},
{
closed = 1;
nodes = (
"890 -329 LINE",
"903 -336 OFFCURVE",
"940 -340 OFFCURVE",
"952 -340 CURVE SMOOTH",
"1055 -340 OFFCURVE",
"1116 -261 OFFCURVE",
"1148 -148 CURVE SMOOTH",
"1163 -91 OFFCURVE",
"1175 -23 OFFCURVE",
"1184 56 CURVE SMOOTH",
"1272 843 LINE",
"1134 887 LINE",
"1150 956 LINE",
"1485 1000 LINE",
"1528 980 LINE",
"1413 0 LINE SMOOTH",
"1390 -192 OFFCURVE",
"1306 -330 OFFCURVE",
"1187 -399 CURVE SMOOTH",
"1128 -434 OFFCURVE",
"1063 -451 OFFCURVE",
"994 -451 CURVE SMOOTH",
"930 -451 OFFCURVE",
"879 -439 OFFCURVE",
"858 -419 CURVE"
);
},
{
closed = 1;
nodes = (
"1310 1347 OFFCURVE",
"1339 1396 OFFCURVE",
"1385 1424 CURVE SMOOTH",
"1408 1437 OFFCURVE",
"1433 1444 OFFCURVE",
"1460 1444 CURVE SMOOTH",
"1511 1444 OFFCURVE",
"1551 1420 OFFCURVE",
"1572 1384 CURVE SMOOTH",
"1583 1366 OFFCURVE",
"1588 1347 OFFCURVE",
"1588 1326 CURVE SMOOTH",
"1588 1269 OFFCURVE",
"1563 1219 OFFCURVE",
"1516 1191 CURVE SMOOTH",
"1492 1177 OFFCURVE",
"1464 1170 OFFCURVE",
"1432 1170 CURVE SMOOTH",
"1389 1170 OFFCURVE",
"1350 1195 OFFCURVE",
"1327 1233 CURVE SMOOTH",
"1316 1252 OFFCURVE",
"1310 1271 OFFCURVE",
"1310 1292 CURVE SMOOTH"
);
}
);
width = 1615;
}
);
note = uni01C8;
unicode = 01C8;
},
{
glyphname = uni01CA;
layers = (
{
layerId = "8EB560C1-B0F9-428E-B807-264CC4717BB6";
name = "Bold Italic";
paths = (
{
closed = 1;
nodes = (
"134 108 LINE",
"287 1196 LINE",
"150 1218 LINE",
"164 1309 LINE",
"561 1309 LINE",
"917 416 LINE",
"981 217 LINE",
"1101 1197 LINE",
"961 1218 LINE",
"971 1309 LINE",
"1384 1309 LINE",
"1374 1218 LINE",
"1260 1196 LINE",
"1081 0 LINE",
"838 0 LINE",
"470 910 LINE",
"409 1116 LINE",
"302 109 LINE",
"453 84 LINE",
"445 0 LINE",
"3 0 LINE",
"10 83 LINE"
);
},
{
closed = 1;
nodes = (
"1489 1218 LINE",
"1502 1309 LINE",
"1991 1309 LINE",
"1982 1218 LINE",
"1854 1197 LINE",
"1850 1164 LINE SMOOTH",
"1810 819 OFFCURVE",
"1779 559 OFFCURVE",
"1757 383 CURVE SMOOTH",
"1713 30 OFFCURVE",
"1696 -14 OFFCURVE",
"1597 -114 CURVE SMOOTH",
"1497 -215 OFFCURVE",
"1361 -274 OFFCURVE",
"1214 -297 CURVE",
"1176 -212 LINE",
"1287 -179 OFFCURVE",
"1369 -114 OFFCURVE",
"1417 -40 CURVE SMOOTH",
"1441 -3 OFFCURVE",
"1457 35 OFFCURVE",
"1465 74 CURVE SMOOTH",
"1513 313 OFFCURVE",
"1541 538 OFFCURVE",
"1589 973 CURVE SMOOTH",
"1596 1037 OFFCURVE",
"1603 1112 OFFCURVE",
"1614 1196 CURVE"
);
}
);
width = 1953;
}
);
note = uni01CA;
unicode = 01CA;
},
{
glyphname = uni01CB;
layers = (
{
layerId = "8EB560C1-B0F9-428E-B807-264CC4717BB6";
name = "Bold Italic";
paths = (
{
closed = 1;
nodes = (
"134 108 LINE",
"287 1196 LINE",
"150 1218 LINE",
"164 1309 LINE",
"561 1309 LINE",
"917 416 LINE",
"981 217 LINE",
"1101 1197 LINE",
"961 1218 LINE",
"971 1309 LINE",
"1384 1309 LINE",
"1374 1218 LINE",
"1260 1196 LINE",
"1081 0 LINE",
"838 0 LINE",
"470 910 LINE",
"409 1116 LINE",
"302 109 LINE",
"453 84 LINE",
"445 0 LINE",
"3 0 LINE",
"10 83 LINE"
);
},
{
closed = 1;
nodes = (
"1156 -329 LINE",
"1169 -336 OFFCURVE",
"1206 -340 OFFCURVE",
"1218 -340 CURVE SMOOTH",
"1321 -340 OFFCURVE",
"1382 -261 OFFCURVE",
"1414 -148 CURVE SMOOTH",
"1429 -91 OFFCURVE",
"1441 -23 OFFCURVE",
"1450 56 CURVE SMOOTH",
"1538 843 LINE",
"1400 887 LINE",
"1416 956 LINE",
"1751 1000 LINE",
"1794 980 LINE",
"1679 0 LINE SMOOTH",
"1656 -192 OFFCURVE",
"1572 -330 OFFCURVE",
"1453 -399 CURVE SMOOTH",
"1394 -434 OFFCURVE",
"1329 -451 OFFCURVE",
"1260 -451 CURVE SMOOTH",
"1196 -451 OFFCURVE",
"1145 -439 OFFCURVE",
"1124 -419 CURVE"
);
},
{
closed = 1;
nodes = (
"1576 1347 OFFCURVE",
"1605 1396 OFFCURVE",
"1651 1424 CURVE SMOOTH",
"1674 1437 OFFCURVE",
"1699 1444 OFFCURVE",
"1726 1444 CURVE SMOOTH",
"1777 1444 OFFCURVE",
"1817 1420 OFFCURVE",
"1838 1384 CURVE SMOOTH",
"1849 1366 OFFCURVE",
"1854 1347 OFFCURVE",
"1854 1326 CURVE SMOOTH",
"1854 1269 OFFCURVE",
"1829 1219 OFFCURVE",
"1782 1191 CURVE SMOOTH",
"1758 1177 OFFCURVE",
"1730 1170 OFFCURVE",
"1698 1170 CURVE SMOOTH",
"1655 1170 OFFCURVE",
"1616 1195 OFFCURVE",
"1593 1233 CURVE SMOOTH",
"1582 1252 OFFCURVE",
"1576 1271 OFFCURVE",
"1576 1292 CURVE SMOOTH"
);
}
);
width = 1881;
}
);
note = uni01CB;
unicode = 01CB;
},
{
glyphname = uni01CD;
layers = (
{
layerId = "8EB560C1-B0F9-428E-B807-264CC4717BB6";
name = "Bold Italic";
paths = (
{
closed = 1;
nodes = (
"822 1309 LINE",
"1037 111 LINE",
"1174 83 LINE",
"1168 0 LINE",
"644 0 LINE",
"648 83 LINE",
"783 108 LINE",
"745 366 LINE",
"295 366 LINE",
"181 109 LINE",
"331 83 LINE",
"325 0 LINE",
"-122 0 LINE",
"-115 83 LINE",
"-3 108 LINE",
"580 1309 LINE"
);
},
{
closed = 1;
nodes = (
"727 484 LINE",
"650 1006 LINE",
"642 1143 LINE",
"347 484 LINE"
);
},
{
closed = 1;
nodes = (
"702 1727 LINE",
"854 1727 LINE",
"1036 1434 LINE",
"950 1385 LINE",
"762 1570 LINE",
"484 1385 LINE",
"410 1434 LINE"
);
}
);
width = 1158;
}
);
note = uni01CD;
unicode = 01CD;
},
{
glyphname = uni01F1;
layers = (
{
layerId = "8EB560C1-B0F9-428E-B807-264CC4717BB6";
name = "Bold Italic";
paths = (
{
closed = 1;
nodes = (
"135 109 LINE",
"278 1196 LINE",
"158 1218 LINE",
"168 1309 LINE",
"433 1309 LINE SMOOTH",
"460 1309 OFFCURVE",
"502 1311 OFFCURVE",
"561 1316 CURVE SMOOTH",
"625 1321 OFFCURVE",
"674 1323 OFFCURVE",
"708 1323 CURVE SMOOTH",
"1079 1323 OFFCURVE",
"1238 1117 OFFCURVE",
"1238 780 CURVE SMOOTH",
"1238 472 OFFCURVE",
"1128 224 OFFCURVE",
"913 88 CURVE SMOOTH",
"805 20 OFFCURVE",
"674 -14 OFFCURVE",
"519 -14 CURVE SMOOTH",
"499 -14 OFFCURVE",
"456 -11 OFFCURVE",
"432 -8 CURVE SMOOTH",
"381 -3 OFFCURVE",
"301 0 OFFCURVE",
"252 0 CURVE SMOOTH",
"-6 0 LINE",
"3 83 LINE"
);
},
{
closed = 1;
nodes = (
"380 115 LINE",
"420 102 OFFCURVE",
"496 92 OFFCURVE",
"541 92 CURVE",
"741 99 OFFCURVE",
"873 245 OFFCURVE",
"934 446 CURVE SMOOTH",
"965 546 OFFCURVE",
"980 651 OFFCURVE",
"980 760 CURVE SMOOTH",
"980 984 OFFCURVE",
"938 1113 OFFCURVE",
"847 1173 CURVE SMOOTH",
"801 1203 OFFCURVE",
"741 1218 OFFCURVE",
"666 1218 CURVE SMOOTH",
"613 1218 OFFCURVE",
"549 1208 OFFCURVE",
"520 1199 CURVE"
);
},
{
closed = 1;
nodes = (
"1962 1082 LINE",
"2085 1204 LINE",
"1654 1193 LINE",
"1549 969 LINE",
"1420 989 LINE",
"1473 1309 LINE",
"2328 1309 LINE",
"2352 1235 LINE",
"1636 228 LINE",
"1524 107 LINE",
"2000 126 LINE",
"2143 378 LINE",
"2272 343 LINE",
"2188 0 LINE",
"1267 0 LINE",
"1240 77 LINE"
);
}
);
width = 2309;
}
);
note = uni01F1;
unicode = 01F1;
},
{
glyphname = uni01F2;
layers = (
{
layerId = "8EB560C1-B0F9-428E-B807-264CC4717BB6";
name = "Bold Italic";
paths = (
{
closed = 1;
nodes = (
"135 109 LINE",
"278 1196 LINE",
"158 1218 LINE",
"168 1309 LINE",
"433 1309 LINE SMOOTH",
"460 1309 OFFCURVE",
"502 1311 OFFCURVE",
"561 1316 CURVE SMOOTH",
"625 1321 OFFCURVE",
"674 1323 OFFCURVE",
"708 1323 CURVE SMOOTH",
"1079 1323 OFFCURVE",
"1238 1117 OFFCURVE",
"1238 780 CURVE SMOOTH",
"1238 472 OFFCURVE",
"1128 224 OFFCURVE",
"913 88 CURVE SMOOTH",
"805 20 OFFCURVE",
"674 -14 OFFCURVE",
"519 -14 CURVE SMOOTH",
"499 -14 OFFCURVE",
"456 -11 OFFCURVE",
"432 -8 CURVE SMOOTH",
"381 -3 OFFCURVE",
"301 0 OFFCURVE",
"252 0 CURVE SMOOTH",
"-6 0 LINE",
"3 83 LINE"
);
},
{
closed = 1;
nodes = (
"380 115 LINE",
"420 102 OFFCURVE",
"496 92 OFFCURVE",
"541 92 CURVE",
"741 99 OFFCURVE",
"873 245 OFFCURVE",
"934 446 CURVE SMOOTH",
"965 546 OFFCURVE",
"980 651 OFFCURVE",
"980 760 CURVE SMOOTH",
"980 984 OFFCURVE",
"938 1113 OFFCURVE",
"847 1173 CURVE SMOOTH",
"801 1203 OFFCURVE",
"741 1218 OFFCURVE",
"666 1218 CURVE SMOOTH",
"613 1218 OFFCURVE",
"549 1208 OFFCURVE",
"520 1199 CURVE"
);
},
{
closed = 1;
nodes = (
"1474 995 OFFCURVE",
"1500 1001 OFFCURVE",
"1530 1001 CURVE SMOOTH",
"1593 1001 OFFCURVE",
"1707 994 OFFCURVE",
"1806 986 CURVE SMOOTH",
"1918 978 OFFCURVE",
"1993 974 OFFCURVE",
"2032 974 CURVE SMOOTH",
"2069 974 OFFCURVE",
"2093 979 OFFCURVE",
"2117 998 CURVE",
"2119 1000 LINE",
"2166 948 LINE",
"1608 256 LINE",
"1520 181 LINE",
"1838 181 LINE SMOOTH",
"1925 181 OFFCURVE",
"1983 241 OFFCURVE",
"1994 321 CURVE",
"2065 321 LINE",
"2066 304 OFFCURVE",
"2067 288 OFFCURVE",
"2067 273 CURVE SMOOTH",
"2067 157 OFFCURVE",
"2046 30 OFFCURVE",
"1998 -3 CURVE SMOOTH",
"1982 -14 OFFCURVE",
"1953 -20 OFFCURVE",
"1910 -20 CURVE SMOOTH",
"1859 -20 OFFCURVE",
"1765 -15 OFFCURVE",
"1626 -4 CURVE SMOOTH",
"1510 5 OFFCURVE",
"1433 9 OFFCURVE",
"1394 9 CURVE SMOOTH",
"1365 9 OFFCURVE",
"1328 1 OFFCURVE",
"1308 -16 CURVE",
"1304 -20 LINE",
"1248 34 LINE",
"1803 713 LINE",
"1906 799 LINE",
"1599 800 LINE SMOOTH",
"1522 800 OFFCURVE",
"1471 742 OFFCURVE",
"1462 663 CURVE",
"1388 663 LINE",
"1387 680 OFFCURVE",
"1386 702 OFFCURVE",
"1386 728 CURVE SMOOTH",
"1386 843 OFFCURVE",
"1406 959 OFFCURVE",
"1451 982 CURVE"
);
}
);
width = 2142;
}
);
note = uni01F2;
unicode = 01F2;
},
{
glyphname = uni01F4;
layers = (
{
layerId = "8EB560C1-B0F9-428E-B807-264CC4717BB6";
name = "Bold Italic";
paths = (
{
closed = 1;
nodes = (
"906 1324 OFFCURVE",
"992 1306 OFFCURVE",
"1088 1281 CURVE SMOOTH",
"1111 1275 LINE",
"1155 1265 LINE",
"1103 992 LINE",
"938 992 LINE",
"925 1173 LINE",
"878 1203 OFFCURVE",
"818 1218 OFFCURVE",
"743 1218 CURVE SMOOTH",
"542 1218 OFFCURVE",
"419 1080 OFFCURVE",
"366 886 CURVE SMOOTH",
"339 789 OFFCURVE",
"326 683 OFFCURVE",
"326 570 CURVE SMOOTH",
"326 399 OFFCURVE",
"361 252 OFFCURVE",
"440 167 CURVE SMOOTH",
"479 124 OFFCURVE",
"529 103 OFFCURVE",
"589 103 CURVE SMOOTH",
"681 103 OFFCURVE",
"749 113 OFFCURVE",
"805 144 CURVE",
"853 507 LINE",
"667 522 LINE",
"681 636 LINE",
"1116 636 LINE",
"1039 76 LINE",
"1000 72 OFFCURVE",
"953 62 OFFCURVE",
"900 47 CURVE SMOOTH",
"800 20 OFFCURVE",
"753 7 OFFCURVE",
"668 -5 CURVE SMOOTH",
"625 -11 OFFCURVE",
"581 -14 OFFCURVE",
"534 -14 CURVE SMOOTH",
"318 -14 OFFCURVE",
"179 104 OFFCURVE",
"115 278 CURVE SMOOTH",
"83 365 OFFCURVE",
"67 459 OFFCURVE",
"67 561 CURVE SMOOTH",
"67 865 OFFCURVE",
"184 1102 OFFCURVE",
"391 1229 CURVE SMOOTH",
"494 1292 OFFCURVE",
"614 1324 OFFCURVE",
"751 1324 CURVE SMOOTH"
);
},
{
closed = 1;
nodes = (
"909 1727 LINE",
"1047 1593 LINE",
"1019 1537 OFFCURVE",
"941 1471 OFFCURVE",
"858 1421 CURVE SMOOTH",
"817 1396 OFFCURVE",
"781 1378 OFFCURVE",
"752 1367 CURVE",
"672 1433 LINE"
);
}
);
width = 1189;
}
);
note = uni01F4;
unicode = 01F4;
},
{
glyphname = uni021A;
layers = (
{
layerId = "8EB560C1-B0F9-428E-B807-264CC4717BB6";
name = "Bold Italic";
paths = (
{
closed = 1;
nodes = (
"399 -410 LINE",
"432 -386 OFFCURVE",
"460 -343 OFFCURVE",
"460 -288 CURVE SMOOTH",
"460 -244 OFFCURVE",
"433 -199 OFFCURVE",
"400 -194 CURVE",
"406 -125 LINE",
"529 -37 LINE",
"602 -53 OFFCURVE",
"652 -130 OFFCURVE",
"652 -218 CURVE SMOOTH",
"652 -309 OFFCURVE",
"611 -389 OFFCURVE",
"556 -437 CURVE SMOOTH",
"528 -461 OFFCURVE",
"501 -476 OFFCURVE",
"474 -482 CURVE",
"397 -433 LINE"
);
},
{
closed = 1;
nodes = (
"407 109 LINE",
"550 1211 LINE",
"314 1190 LINE",
"200 851 LINE",
"65 851 LINE",
"143 1309 LINE",
"1233 1309 LINE",
"1167 851 LINE",
"1039 851 LINE",
"1033 1190 LINE",
"795 1211 LINE",
"651 109 LINE",
"882 86 LINE",
"874 0 LINE",
"184 0 LINE",
"194 86 LINE"
);
}
);
width = 1162;
}
);
note = uni021A;
unicode = 021A;
},
{
glyphname = uni1E02;
layers = (
{
layerId = "8EB560C1-B0F9-428E-B807-264CC4717BB6";
name = "Bold Italic";
paths = (
{
closed = 1;
nodes = (
"514 1593 OFFCURVE",
"544 1642 OFFCURVE",
"592 1670 CURVE SMOOTH",
"615 1684 OFFCURVE",
"641 1691 OFFCURVE",
"669 1691 CURVE SMOOTH",
"720 1691 OFFCURVE",
"762 1666 OFFCURVE",
"785 1630 CURVE SMOOTH",
"796 1612 OFFCURVE",
"802 1593 OFFCURVE",
"802 1573 CURVE SMOOTH",
"802 1517 OFFCURVE",
"775 1466 OFFCURVE",
"726 1438 CURVE SMOOTH",
"701 1423 OFFCURVE",
"673 1416 OFFCURVE",
"641 1416 CURVE SMOOTH",
"598 1416 OFFCURVE",
"556 1442 OFFCURVE",
"532 1480 CURVE SMOOTH",
"520 1499 OFFCURVE",
"514 1518 OFFCURVE",
"514 1538 CURVE SMOOTH"
);
},
{
closed = 1;
nodes = (
"133 109 LINE",
"275 1196 LINE",
"154 1218 LINE",
"166 1309 LINE",
"418 1309 LINE SMOOTH",
"447 1309 OFFCURVE",
"490 1311 OFFCURVE",
"547 1316 CURVE SMOOTH",
"612 1321 OFFCURVE",
"663 1323 OFFCURVE",
"700 1323 CURVE SMOOTH",
"989 1323 OFFCURVE",
"1098 1200 OFFCURVE",
"1098 1031 CURVE SMOOTH",
"1098 856 OFFCURVE",
"997 748 OFFCURVE",
"805 693 CURVE",
"918 689 OFFCURVE",
"1008 637 OFFCURVE",
"1056 556 CURVE SMOOTH",
"1079 515 OFFCURVE",
"1091 471 OFFCURVE",
"1091 423 CURVE SMOOTH",
"1091 119 OFFCURVE",
"869 -15 OFFCURVE",
"485 -15 CURVE SMOOTH",
"452 -15 OFFCURVE",
"409 -12 OFFCURVE",
"356 -7 CURVE SMOOTH",
"297 -2 OFFCURVE",
"257 0 OFFCURVE",
"234 0 CURVE SMOOTH",
"2 0 LINE",
"10 83 LINE"
);
},
{
closed = 1;
nodes = (
"450 735 LINE",
"474 734 OFFCURVE",
"492 734 OFFCURVE",
"504 734 CURVE SMOOTH",
"577 734 LINE SMOOTH",
"685 734 OFFCURVE",
"775 771 OFFCURVE",
"827 854 CURVE SMOOTH",
"852 895 OFFCURVE",
"865 947 OFFCURVE",
"865 1010 CURVE SMOOTH",
"865 1150 OFFCURVE",
"796 1218 OFFCURVE",
"645 1218 CURVE SMOOTH",
"613 1218 OFFCURVE",
"549 1214 OFFCURVE",
"512 1207 CURVE"
);
},
{
closed = 1;
nodes = (
"369 109 LINE",
"408 98 OFFCURVE",
"481 91 OFFCURVE",
"522 91 CURVE SMOOTH",
"730 91 OFFCURVE",
"834 189 OFFCURVE",
"834 384 CURVE SMOOTH",
"834 548 OFFCURVE",
"761 621 OFFCURVE",
"581 621 CURVE SMOOTH",
"525 621 OFFCURVE",
"476 619 OFFCURVE",
"435 616 CURVE"
);
}
);
width = 1161;
}
);
note = uni1E02;
unicode = 1E02;
},
{
glyphname = uni1E0A;
layers = (
{
layerId = "8EB560C1-B0F9-428E-B807-264CC4717BB6";
name = "Bold Italic";
paths = (
{
closed = 1;
nodes = (
"607 1593 OFFCURVE",
"637 1642 OFFCURVE",
"685 1670 CURVE SMOOTH",
"708 1684 OFFCURVE",
"734 1691 OFFCURVE",
"762 1691 CURVE SMOOTH",
"813 1691 OFFCURVE",
"855 1666 OFFCURVE",
"878 1630 CURVE SMOOTH",
"889 1612 OFFCURVE",
"895 1593 OFFCURVE",
"895 1573 CURVE SMOOTH",
"895 1517 OFFCURVE",
"868 1466 OFFCURVE",
"819 1438 CURVE SMOOTH",
"794 1423 OFFCURVE",
"766 1416 OFFCURVE",
"734 1416 CURVE SMOOTH",
"691 1416 OFFCURVE",
"649 1442 OFFCURVE",
"625 1480 CURVE SMOOTH",
"613 1499 OFFCURVE",
"607 1518 OFFCURVE",
"607 1538 CURVE SMOOTH"
);
},
{
closed = 1;
nodes = (
"132 109 LINE",
"275 1196 LINE",
"155 1218 LINE",
"165 1309 LINE",
"430 1309 LINE SMOOTH",
"457 1309 OFFCURVE",
"499 1311 OFFCURVE",
"558 1316 CURVE SMOOTH",
"622 1321 OFFCURVE",
"671 1323 OFFCURVE",
"705 1323 CURVE SMOOTH",
"1076 1323 OFFCURVE",
"1235 1117 OFFCURVE",
"1235 780 CURVE SMOOTH",
"1235 472 OFFCURVE",
"1125 224 OFFCURVE",
"910 88 CURVE SMOOTH",
"802 20 OFFCURVE",
"671 -14 OFFCURVE",
"516 -14 CURVE SMOOTH",
"496 -14 OFFCURVE",
"453 -11 OFFCURVE",
"429 -8 CURVE SMOOTH",
"378 -3 OFFCURVE",
"298 0 OFFCURVE",
"249 0 CURVE SMOOTH",
"-9 0 LINE",
"0 83 LINE"
);
},
{
closed = 1;
nodes = (
"377 115 LINE",
"417 102 OFFCURVE",
"493 92 OFFCURVE",
"538 92 CURVE",
"738 99 OFFCURVE",
"870 245 OFFCURVE",
"931 446 CURVE SMOOTH",
"962 546 OFFCURVE",
"977 651 OFFCURVE",
"977 760 CURVE SMOOTH",
"977 984 OFFCURVE",
"935 1113 OFFCURVE",
"844 1173 CURVE SMOOTH",
"798 1203 OFFCURVE",
"738 1218 OFFCURVE",
"663 1218 CURVE SMOOTH",
"610 1218 OFFCURVE",
"546 1208 OFFCURVE",
"517 1199 CURVE"
);
}
);
width = 1270;
}
);
note = uni1E0A;
unicode = 1E0A;
},
{
glyphname = uni1E1E;
layers = (
{
layerId = "8EB560C1-B0F9-428E-B807-264CC4717BB6";
name = "Bold Italic";
paths = (
{
closed = 1;
nodes = (
"559 1593 OFFCURVE",
"589 1642 OFFCURVE",
"637 1670 CURVE SMOOTH",
"660 1684 OFFCURVE",
"686 1691 OFFCURVE",
"714 1691 CURVE SMOOTH",
"765 1691 OFFCURVE",
"807 1666 OFFCURVE",
"830 1630 CURVE SMOOTH",
"841 1612 OFFCURVE",
"847 1593 OFFCURVE",
"847 1573 CURVE SMOOTH",
"847 1517 OFFCURVE",
"820 1466 OFFCURVE",
"771 1438 CURVE SMOOTH",
"746 1423 OFFCURVE",
"718 1416 OFFCURVE",
"686 1416 CURVE SMOOTH",
"643 1416 OFFCURVE",
"601 1442 OFFCURVE",
"577 1480 CURVE SMOOTH",
"565 1499 OFFCURVE",
"559 1518 OFFCURVE",
"559 1538 CURVE SMOOTH"
);
},
{
closed = 1;
nodes = (
"137 109 LINE",
"276 1196 LINE",
"157 1218 LINE",
"168 1309 LINE",
"1080 1309 LINE",
"1052 1007 LINE",
"900 1007 LINE",
"874 1190 LINE",
"523 1209 LINE",
"461 737 LINE",
"870 752 LINE",
"851 585 LINE",
"447 611 LINE",
"381 110 LINE",
"617 84 LINE",
"610 0 LINE",
"5 0 LINE",
"14 84 LINE"
);
}
);
width = 1029;
}
);
note = uni1E1E;
unicode = 1E1E;
},
{
glyphname = uni1E20;
layers = (
{
layerId = "8EB560C1-B0F9-428E-B807-264CC4717BB6";
name = "Bold Italic";
paths = (
{
closed = 1;
nodes = (
"906 1324 OFFCURVE",
"992 1306 OFFCURVE",
"1088 1281 CURVE SMOOTH",
"1111 1275 LINE",
"1155 1265 LINE",
"1103 992 LINE",
"938 992 LINE",
"925 1173 LINE",
"878 1203 OFFCURVE",
"818 1218 OFFCURVE",
"743 1218 CURVE SMOOTH",
"542 1218 OFFCURVE",
"419 1080 OFFCURVE",
"366 886 CURVE SMOOTH",
"339 789 OFFCURVE",
"326 683 OFFCURVE",
"326 570 CURVE SMOOTH",
"326 399 OFFCURVE",
"361 252 OFFCURVE",
"440 167 CURVE SMOOTH",
"479 124 OFFCURVE",
"529 103 OFFCURVE",
"589 103 CURVE SMOOTH",
"681 103 OFFCURVE",
"749 113 OFFCURVE",
"805 144 CURVE",
"853 507 LINE",
"667 522 LINE",
"681 636 LINE",
"1116 636 LINE",
"1039 76 LINE",
"1000 72 OFFCURVE",
"953 62 OFFCURVE",
"900 47 CURVE SMOOTH",
"800 20 OFFCURVE",
"753 7 OFFCURVE",
"668 -5 CURVE SMOOTH",
"625 -11 OFFCURVE",
"581 -14 OFFCURVE",
"534 -14 CURVE SMOOTH",
"318 -14 OFFCURVE",
"179 104 OFFCURVE",
"115 278 CURVE SMOOTH",
"83 365 OFFCURVE",
"67 459 OFFCURVE",
"67 561 CURVE SMOOTH",
"67 865 OFFCURVE",
"184 1102 OFFCURVE",
"391 1229 CURVE SMOOTH",
"494 1292 OFFCURVE",
"614 1324 OFFCURVE",
"751 1324 CURVE SMOOTH"
);
},
{
closed = 1;
nodes = (
"1004 1633 LINE",
"987 1477 LINE",
"519 1477 LINE",
"536 1633 LINE"
);
}
);
width = 1189;
}
);
note = uni1E20;
unicode = 1E20;
},
{
glyphname = uni1E40;
layers = (
{
layerId = "8EB560C1-B0F9-428E-B807-264CC4717BB6";
name = "Bold Italic";
paths = (
{
closed = 1;
nodes = (
"845 1593 OFFCURVE",
"875 1642 OFFCURVE",
"923 1670 CURVE SMOOTH",
"946 1684 OFFCURVE",
"972 1691 OFFCURVE",
"1000 1691 CURVE SMOOTH",
"1051 1691 OFFCURVE",
"1093 1666 OFFCURVE",
"1116 1630 CURVE SMOOTH",
"1127 1612 OFFCURVE",
"1133 1593 OFFCURVE",
"1133 1573 CURVE SMOOTH",
"1133 1517 OFFCURVE",
"1106 1466 OFFCURVE",
"1057 1438 CURVE SMOOTH",
"1032 1423 OFFCURVE",
"1004 1416 OFFCURVE",
"972 1416 CURVE SMOOTH",
"929 1416 OFFCURVE",
"887 1442 OFFCURVE",
"863 1480 CURVE SMOOTH",
"851 1499 OFFCURVE",
"845 1518 OFFCURVE",
"845 1538 CURVE SMOOTH"
);
},
{
closed = 1;
nodes = (
"85 109 LINE",
"362 1196 LINE",
"208 1218 LINE",
"220 1309 LINE",
"719 1309 LINE",
"829 506 LINE",
"845 359 LINE",
"896 506 LINE",
"998 749 LINE",
"1232 1309 LINE",
"1682 1309 LINE",
"1672 1218 LINE",
"1525 1196 LINE",
"1496 110 LINE",
"1642 84 LINE",
"1634 0 LINE",
"1091 0 LINE",
"1099 85 LINE",
"1256 109 LINE",
"1298 861 LINE",
"1319 1205 LINE",
"1199 902 LINE",
"808 -3 LINE",
"685 -15 LINE",
"554 882 LINE",
"505 1205 LINE",
"436 873 LINE",
"255 109 LINE",
"433 84 LINE",
"426 0 LINE",
"-63 0 LINE",
"-52 84 LINE"
);
}
);
width = 1678;
}
);
note = uni1E40;
unicode = 1E40;
},
{
glyphname = uni1E44;
layers = (
{
layerId = "8EB560C1-B0F9-428E-B807-264CC4717BB6";
name = "Bold Italic";
paths = (
{
closed = 1;
nodes = (
"134 108 LINE",
"287 1196 LINE",
"150 1218 LINE",
"164 1309 LINE",
"561 1309 LINE",
"917 416 LINE",
"981 217 LINE",
"1101 1197 LINE",
"961 1218 LINE",
"971 1309 LINE",
"1384 1309 LINE",
"1374 1218 LINE",
"1260 1196 LINE",
"1081 0 LINE",
"838 0 LINE",
"470 910 LINE",
"409 1116 LINE",
"302 109 LINE",
"453 84 LINE",
"445 0 LINE",
"3 0 LINE",
"10 83 LINE"
);
},
{
closed = 1;
nodes = (
"653 1593 OFFCURVE",
"683 1642 OFFCURVE",
"731 1670 CURVE SMOOTH",
"754 1684 OFFCURVE",
"780 1691 OFFCURVE",
"808 1691 CURVE SMOOTH",
"859 1691 OFFCURVE",
"901 1666 OFFCURVE",
"924 1630 CURVE SMOOTH",
"935 1612 OFFCURVE",
"941 1593 OFFCURVE",
"941 1573 CURVE SMOOTH",
"941 1517 OFFCURVE",
"914 1466 OFFCURVE",
"865 1438 CURVE SMOOTH",
"840 1423 OFFCURVE",
"812 1416 OFFCURVE",
"780 1416 CURVE SMOOTH",
"737 1416 OFFCURVE",
"695 1442 OFFCURVE",
"671 1480 CURVE SMOOTH",
"659 1499 OFFCURVE",
"653 1518 OFFCURVE",
"653 1538 CURVE SMOOTH"
);
}
);
width = 1322;
}
);
note = uni1E44;
unicode = 1E44;
},
{
glyphname = uni1E56;
layers = (
{
layerId = "8EB560C1-B0F9-428E-B807-264CC4717BB6";
name = "Bold Italic";
paths = (
{
closed = 1;
nodes = (
"605 1593 OFFCURVE",
"635 1642 OFFCURVE",
"683 1670 CURVE SMOOTH",
"706 1684 OFFCURVE",
"732 1691 OFFCURVE",
"760 1691 CURVE SMOOTH",
"811 1691 OFFCURVE",
"853 1666 OFFCURVE",
"876 1630 CURVE SMOOTH",
"887 1612 OFFCURVE",
"893 1593 OFFCURVE",
"893 1573 CURVE SMOOTH",
"893 1517 OFFCURVE",
"866 1466 OFFCURVE",
"817 1438 CURVE SMOOTH",
"792 1423 OFFCURVE",
"764 1416 OFFCURVE",
"732 1416 CURVE SMOOTH",
"689 1416 OFFCURVE",
"647 1442 OFFCURVE",
"623 1480 CURVE SMOOTH",
"611 1499 OFFCURVE",
"605 1518 OFFCURVE",
"605 1538 CURVE SMOOTH"
);
},
{
closed = 1;
nodes = (
"136 109 LINE",
"278 1196 LINE",
"157 1218 LINE",
"168 1309 LINE",
"415 1309 LINE SMOOTH",
"448 1309 OFFCURVE",
"493 1311 OFFCURVE",
"552 1316 CURVE SMOOTH",
"609 1321 OFFCURVE",
"652 1323 OFFCURVE",
"681 1323 CURVE SMOOTH",
"989 1323 OFFCURVE",
"1123 1206 OFFCURVE",
"1123 962 CURVE SMOOTH",
"1123 749 OFFCURVE",
"1019 593 OFFCURVE",
"846 513 CURVE SMOOTH",
"759 473 OFFCURVE",
"660 453 OFFCURVE",
"547 453 CURVE SMOOTH",
"489 453 OFFCURVE",
"449 454 OFFCURVE",
"426 457 CURVE",
"384 109 LINE",
"593 84 LINE",
"586 0 LINE",
"5 0 LINE",
"14 83 LINE"
);
},
{
closed = 1;
nodes = (
"766 565 OFFCURVE",
"870 714 OFFCURVE",
"870 975 CURVE SMOOTH",
"870 1139 OFFCURVE",
"798 1218 OFFCURVE",
"645 1218 CURVE SMOOTH",
"606 1218 OFFCURVE",
"565 1214 OFFCURVE",
"524 1205 CURVE",
"439 572 LINE",
"476 565 OFFCURVE",
"514 561 OFFCURVE",
"555 562 CURVE SMOOTH"
);
}
);
width = 1113;
}
);
note = uni1E56;
unicode = 1E56;
},
{
glyphname = uni1E60;
layers = (
{
layerId = "8EB560C1-B0F9-428E-B807-264CC4717BB6";
name = "Bold Italic";
paths = (
{
closed = 1;
nodes = (
"481 1593 OFFCURVE",
"511 1642 OFFCURVE",
"559 1670 CURVE SMOOTH",
"582 1684 OFFCURVE",
"608 1691 OFFCURVE",
"636 1691 CURVE SMOOTH",
"687 1691 OFFCURVE",
"729 1666 OFFCURVE",
"752 1630 CURVE SMOOTH",
"763 1612 OFFCURVE",
"769 1593 OFFCURVE",
"769 1573 CURVE SMOOTH",
"769 1517 OFFCURVE",
"742 1466 OFFCURVE",
"693 1438 CURVE SMOOTH",
"668 1423 OFFCURVE",
"640 1416 OFFCURVE",
"608 1416 CURVE SMOOTH",
"565 1416 OFFCURVE",
"523 1442 OFFCURVE",
"499 1480 CURVE SMOOTH",
"487 1499 OFFCURVE",
"481 1518 OFFCURVE",
"481 1538 CURVE SMOOTH"
);
},
{
closed = 1;
nodes = (
"216 320 LINE",
"230 144 LINE",
"277 111 OFFCURVE",
"339 87 OFFCURVE",
"408 87 CURVE SMOOTH",
"507 87 OFFCURVE",
"584 119 OFFCURVE",
"626 179 CURVE SMOOTH",
"647 209 OFFCURVE",
"657 245 OFFCURVE",
"657 286 CURVE SMOOTH",
"657 362 OFFCURVE",
"624 422 OFFCURVE",
"562 475 CURVE SMOOTH",
"531 502 OFFCURVE",
"490 531 OFFCURVE",
"439 563 CURVE SMOOTH",
"326 635 OFFCURVE",
"243 704 OFFCURVE",
"192 800 CURVE SMOOTH",
"167 847 OFFCURVE",
"154 900 OFFCURVE",
"154 958 CURVE SMOOTH",
"154 1107 OFFCURVE",
"238 1222 OFFCURVE",
"377 1281 CURVE SMOOTH",
"446 1310 OFFCURVE",
"524 1325 OFFCURVE",
"609 1325 CURVE SMOOTH",
"770 1325 OFFCURVE",
"877 1297 OFFCURVE",
"938 1258 CURVE",
"895 1013 LINE",
"763 1013 LINE",
"738 1176 LINE",
"698 1205 OFFCURVE",
"649 1220 OFFCURVE",
"591 1220 CURVE SMOOTH",
"512 1220 OFFCURVE",
"446 1194 OFFCURVE",
"409 1143 CURVE SMOOTH",
"390 1117 OFFCURVE",
"381 1086 OFFCURVE",
"381 1051 CURVE SMOOTH",
"381 966 OFFCURVE",
"418 900 OFFCURVE",
"484 844 CURVE SMOOTH",
"517 815 OFFCURVE",
"560 784 OFFCURVE",
"614 750 CURVE SMOOTH",
"726 679 OFFCURVE",
"804 616 OFFCURVE",
"853 526 CURVE SMOOTH",
"878 481 OFFCURVE",
"890 430 OFFCURVE",
"890 374 CURVE SMOOTH",
"890 225 OFFCURVE",
"812 100 OFFCURVE",
"667 32 CURVE SMOOTH",
"594 -3 OFFCURVE",
"509 -20 OFFCURVE",
"410 -20 CURVE SMOOTH",
"299 -20 OFFCURVE",
"186 0 OFFCURVE",
"108 25 CURVE SMOOTH",
"69 38 OFFCURVE",
"42 50 OFFCURVE",
"28 61 CURVE",
"72 320 LINE"
);
}
);
width = 965;
}
);
note = uni1E60;
unicode = 1E60;
},
{
glyphname = uni1E6A;
layers = (
{
layerId = "8EB560C1-B0F9-428E-B807-264CC4717BB6";
name = "Bold Italic";
paths = (
{
closed = 1;
nodes = (
"580 1593 OFFCURVE",
"610 1642 OFFCURVE",
"658 1670 CURVE SMOOTH",
"681 1684 OFFCURVE",
"707 1691 OFFCURVE",
"735 1691 CURVE SMOOTH",
"786 1691 OFFCURVE",
"828 1666 OFFCURVE",
"851 1630 CURVE SMOOTH",
"862 1612 OFFCURVE",
"868 1593 OFFCURVE",
"868 1573 CURVE SMOOTH",
"868 1517 OFFCURVE",
"841 1466 OFFCURVE",
"792 1438 CURVE SMOOTH",
"767 1423 OFFCURVE",
"739 1416 OFFCURVE",
"707 1416 CURVE SMOOTH",
"664 1416 OFFCURVE",
"622 1442 OFFCURVE",
"598 1480 CURVE SMOOTH",
"586 1499 OFFCURVE",
"580 1518 OFFCURVE",
"580 1538 CURVE SMOOTH"
);
},
{
closed = 1;
nodes = (
"407 109 LINE",
"550 1211 LINE",
"314 1190 LINE",
"200 851 LINE",
"65 851 LINE",
"143 1309 LINE",
"1233 1309 LINE",
"1167 851 LINE",
"1039 851 LINE",
"1033 1190 LINE",
"795 1211 LINE",
"651 109 LINE",
"882 86 LINE",
"874 0 LINE",
"184 0 LINE",
"194 86 LINE"
);
}
);
width = 1162;
}
);
note = uni1E6A;
unicode = 1E6A;
},
{
glyphname = uni1E8E;
layers = (
{
layerId = "8EB560C1-B0F9-428E-B807-264CC4717BB6";
name = "Bold Italic";
paths = (
{
closed = 1;
nodes = (
"382 109 LINE",
"433 514 LINE",
"136 1196 LINE",
"34 1218 LINE",
"43 1309 LINE",
"568 1309 LINE",
"555 1218 LINE",
"412 1196 LINE",
"576 754 LINE",
"611 636 LINE",
"669 741 LINE",
"943 1196 LINE",
"811 1218 LINE",
"820 1309 LINE",
"1232 1309 LINE",
"1221 1218 LINE",
"1121 1197 LINE",
"675 514 LINE",
"623 109 LINE",
"814 84 LINE",
"806 0 LINE",
"181 0 LINE",
"190 84 LINE"
);
},
{
closed = 1;
nodes = (
"562 1593 OFFCURVE",
"592 1642 OFFCURVE",
"640 1670 CURVE SMOOTH",
"663 1684 OFFCURVE",
"689 1691 OFFCURVE",
"717 1691 CURVE SMOOTH",
"768 1691 OFFCURVE",
"810 1666 OFFCURVE",
"833 1630 CURVE SMOOTH",
"844 1612 OFFCURVE",
"850 1593 OFFCURVE",
"850 1573 CURVE SMOOTH",
"850 1517 OFFCURVE",
"823 1466 OFFCURVE",
"774 1438 CURVE SMOOTH",
"749 1423 OFFCURVE",
"721 1416 OFFCURVE",
"689 1416 CURVE SMOOTH",
"646 1416 OFFCURVE",
"604 1442 OFFCURVE",
"580 1480 CURVE SMOOTH",
"568 1499 OFFCURVE",
"562 1518 OFFCURVE",
"562 1538 CURVE SMOOTH"
);
}
);
width = 1070;
}
);
note = uni1E8E;
unicode = 1E8E;
},
{
glyphname = a;
layers = (
{
layerId = "8EB560C1-B0F9-428E-B807-264CC4717BB6";
name = "Bold Italic";
paths = (
{
closed = 1;
nodes = (
"693 1000 OFFCURVE",
"769 984 OFFCURVE",
"826 967 CURVE",
"943 1000 LINE",
"832 180 LINE",
"831 176 OFFCURVE",
"831 170 OFFCURVE",
"831 163 CURVE SMOOTH",
"831 130 OFFCURVE",
"843 114 OFFCURVE",
"862 114 CURVE SMOOTH",
"881 114 OFFCURVE",
"907 127 OFFCURVE",
"940 154 CURVE",
"966 99 LINE",
"950 74 OFFCURVE",
"909 33 OFFCURVE",
"847 5 CURVE SMOOTH",
"816 -10 OFFCURVE",
"782 -17 OFFCURVE",
"746 -17 CURVE SMOOTH",
"665 -17 OFFCURVE",
"613 23 OFFCURVE",
"617 99 CURVE",
"610 110 LINE",
"541 35 OFFCURVE",
"451 -17 OFFCURVE",
"347 -17 CURVE SMOOTH",
"152 -17 OFFCURVE",
"60 130 OFFCURVE",
"60 349 CURVE SMOOTH",
"60 560 OFFCURVE",
"154 776 OFFCURVE",
"328 904 CURVE SMOOTH",
"415 968 OFFCURVE",
"517 1000 OFFCURVE",
"636 1000 CURVE SMOOTH"
);
},
{
closed = 1;
nodes = (
"696 875 LINE",
"672 883 OFFCURVE",
"644 887 OFFCURVE",
"612 887 CURVE SMOOTH",
"472 887 OFFCURVE",
"379 766 OFFCURVE",
"336 606 CURVE SMOOTH",
"315 526 OFFCURVE",
"304 445 OFFCURVE",
"304 364 CURVE SMOOTH",
"304 209 OFFCURVE",
"348 120 OFFCURVE",
"429 120 CURVE SMOOTH",
"492 120 OFFCURVE",
"555 166 OFFCURVE",
"610 230 CURVE"
);
}
);
width = 1029;
}
);
note = a;
unicode = 0061;
},
{
glyphname = aacute;
layers = (
{
layerId = "8EB560C1-B0F9-428E-B807-264CC4717BB6";
name = "Bold Italic";
paths = (
{
closed = 1;
nodes = (
"693 1000 OFFCURVE",
"769 984 OFFCURVE",
"826 967 CURVE",
"943 1000 LINE",
"832 180 LINE",
"831 176 OFFCURVE",
"831 170 OFFCURVE",
"831 163 CURVE SMOOTH",
"831 130 OFFCURVE",
"843 114 OFFCURVE",
"862 114 CURVE SMOOTH",
"881 114 OFFCURVE",
"907 127 OFFCURVE",
"940 154 CURVE",
"966 99 LINE",
"950 74 OFFCURVE",
"909 33 OFFCURVE",
"847 5 CURVE SMOOTH",
"816 -10 OFFCURVE",
"782 -17 OFFCURVE",
"746 -17 CURVE SMOOTH",
"665 -17 OFFCURVE",
"613 23 OFFCURVE",
"617 99 CURVE",
"610 110 LINE",
"541 35 OFFCURVE",
"451 -17 OFFCURVE",
"347 -17 CURVE SMOOTH",
"152 -17 OFFCURVE",
"60 130 OFFCURVE",
"60 349 CURVE SMOOTH",
"60 560 OFFCURVE",
"154 776 OFFCURVE",
"328 904 CURVE SMOOTH",
"415 968 OFFCURVE",
"517 1000 OFFCURVE",
"636 1000 CURVE SMOOTH"
);
},
{
closed = 1;
nodes = (
"696 875 LINE",
"672 883 OFFCURVE",
"644 887 OFFCURVE",
"612 887 CURVE SMOOTH",
"472 887 OFFCURVE",
"379 766 OFFCURVE",
"336 606 CURVE SMOOTH",
"315 526 OFFCURVE",
"304 445 OFFCURVE",
"304 364 CURVE SMOOTH",
"304 209 OFFCURVE",
"348 120 OFFCURVE",
"429 120 CURVE SMOOTH",
"492 120 OFFCURVE",
"555 166 OFFCURVE",
"610 230 CURVE"
);
},
{
closed = 1;
nodes = (
"818 1499 LINE",
"964 1357 LINE",
"943 1318 OFFCURVE",
"843 1220 OFFCURVE",
"742 1143 CURVE SMOOTH",
"691 1104 OFFCURVE",
"650 1079 OFFCURVE",
"618 1066 CURVE",
"545 1128 LINE"
);
}
);
width = 1029;
}
);
note = aacute;
unicode = 00E1;
},
{
glyphname = abreve;
layers = (
{
layerId = "8EB560C1-B0F9-428E-B807-264CC4717BB6";
name = "Bold Italic";
paths = (
{
closed = 1;
nodes = (
"693 1000 OFFCURVE",
"769 984 OFFCURVE",
"826 967 CURVE",
"943 1000 LINE",
"832 180 LINE",
"831 176 OFFCURVE",
"831 170 OFFCURVE",
"831 163 CURVE SMOOTH",
"831 130 OFFCURVE",
"843 114 OFFCURVE",
"862 114 CURVE SMOOTH",
"881 114 OFFCURVE",
"907 127 OFFCURVE",
"940 154 CURVE",
"966 99 LINE",
"950 74 OFFCURVE",
"909 33 OFFCURVE",
"847 5 CURVE SMOOTH",
"816 -10 OFFCURVE",
"782 -17 OFFCURVE",
"746 -17 CURVE SMOOTH",
"665 -17 OFFCURVE",
"613 23 OFFCURVE",
"617 99 CURVE",
"610 110 LINE",
"541 35 OFFCURVE",
"451 -17 OFFCURVE",
"347 -17 CURVE SMOOTH",
"152 -17 OFFCURVE",
"60 130 OFFCURVE",
"60 349 CURVE SMOOTH",
"60 560 OFFCURVE",
"154 776 OFFCURVE",
"328 904 CURVE SMOOTH",
"415 968 OFFCURVE",
"517 1000 OFFCURVE",
"636 1000 CURVE SMOOTH"
);
},
{
closed = 1;
nodes = (
"696 875 LINE",
"672 883 OFFCURVE",
"644 887 OFFCURVE",
"612 887 CURVE SMOOTH",
"472 887 OFFCURVE",
"379 766 OFFCURVE",
"336 606 CURVE SMOOTH",
"315 526 OFFCURVE",
"304 445 OFFCURVE",
"304 364 CURVE SMOOTH",
"304 209 OFFCURVE",
"348 120 OFFCURVE",
"429 120 CURVE SMOOTH",
"492 120 OFFCURVE",
"555 166 OFFCURVE",
"610 230 CURVE"
);
},
{
closed = 1;
nodes = (
"389 1409 OFFCURVE",
"390 1422 OFFCURVE",
"392 1434 CURVE",
"520 1434 LINE",
"520 1420 OFFCURVE",
"520 1409 OFFCURVE",
"521 1401 CURVE SMOOTH",
"529 1330 OFFCURVE",
"560 1278 OFFCURVE",
"652 1278 CURVE SMOOTH",
"764 1278 OFFCURVE",
"800 1347 OFFCURVE",
"815 1434 CURVE",
"941 1434 LINE",
"941 1421 OFFCURVE",
"941 1412 OFFCURVE",
"941 1405 CURVE",
"934 1312 OFFCURVE",
"888 1216 OFFCURVE",
"801 1160 CURVE SMOOTH",
"758 1132 OFFCURVE",
"707 1118 OFFCURVE",
"648 1118 CURVE SMOOTH",
"531 1118 OFFCURVE",
"453 1176 OFFCURVE",
"417 1261 CURVE SMOOTH",
"398 1303 OFFCURVE",
"389 1347 OFFCURVE",
"389 1394 CURVE SMOOTH"
);
}
);
width = 1029;
}
);
note = abreve;
unicode = 0103;
},
{
glyphname = acircumflex;
layers = (
{
layerId = "8EB560C1-B0F9-428E-B807-264CC4717BB6";
name = "Bold Italic";
paths = (
{
closed = 1;
nodes = (
"693 1000 OFFCURVE",
"769 984 OFFCURVE",
"826 967 CURVE",
"943 1000 LINE",
"832 180 LINE",
"831 176 OFFCURVE",
"831 170 OFFCURVE",
"831 163 CURVE SMOOTH",
"831 130 OFFCURVE",
"843 114 OFFCURVE",
"862 114 CURVE SMOOTH",
"881 114 OFFCURVE",
"907 127 OFFCURVE",
"940 154 CURVE",
"966 99 LINE",
"950 74 OFFCURVE",
"909 33 OFFCURVE",
"847 5 CURVE SMOOTH",
"816 -10 OFFCURVE",
"782 -17 OFFCURVE",
"746 -17 CURVE SMOOTH",
"665 -17 OFFCURVE",
"613 23 OFFCURVE",
"617 99 CURVE",
"610 110 LINE",
"541 35 OFFCURVE",
"451 -17 OFFCURVE",
"347 -17 CURVE SMOOTH",
"152 -17 OFFCURVE",
"60 130 OFFCURVE",
"60 349 CURVE SMOOTH",
"60 560 OFFCURVE",
"154 776 OFFCURVE",
"328 904 CURVE SMOOTH",
"415 968 OFFCURVE",
"517 1000 OFFCURVE",
"636 1000 CURVE SMOOTH"
);
},
{
closed = 1;
nodes = (
"696 875 LINE",
"672 883 OFFCURVE",
"644 887 OFFCURVE",
"612 887 CURVE SMOOTH",
"472 887 OFFCURVE",
"379 766 OFFCURVE",
"336 606 CURVE SMOOTH",
"315 526 OFFCURVE",
"304 445 OFFCURVE",
"304 364 CURVE SMOOTH",
"304 209 OFFCURVE",
"348 120 OFFCURVE",
"429 120 CURVE SMOOTH",
"492 120 OFFCURVE",
"555 166 OFFCURVE",
"610 230 CURVE"
);
},
{
closed = 1;
nodes = (
"626 1428 LINE",
"779 1428 LINE",
"953 1111 LINE",
"865 1061 LINE",
"680 1258 LINE",
"399 1062 LINE",
"326 1111 LINE"
);
}
);
width = 1029;
}
);
note = acircumflex;
unicode = 00E2;
},
{
glyphname = adieresis;
layers = (
{
layerId = "8EB560C1-B0F9-428E-B807-264CC4717BB6";
name = "Bold Italic";
paths = (
{
closed = 1;
nodes = (
"693 1000 OFFCURVE",
"769 984 OFFCURVE",
"826 967 CURVE",
"943 1000 LINE",
"832 180 LINE",
"831 176 OFFCURVE",
"831 170 OFFCURVE",
"831 163 CURVE SMOOTH",
"831 130 OFFCURVE",
"843 114 OFFCURVE",
"862 114 CURVE SMOOTH",
"881 114 OFFCURVE",
"907 127 OFFCURVE",
"940 154 CURVE",
"966 99 LINE",
"950 74 OFFCURVE",
"909 33 OFFCURVE",
"847 5 CURVE SMOOTH",
"816 -10 OFFCURVE",
"782 -17 OFFCURVE",
"746 -17 CURVE SMOOTH",
"665 -17 OFFCURVE",
"613 23 OFFCURVE",
"617 99 CURVE",
"610 110 LINE",
"541 35 OFFCURVE",
"451 -17 OFFCURVE",
"347 -17 CURVE SMOOTH",
"152 -17 OFFCURVE",
"60 130 OFFCURVE",
"60 349 CURVE SMOOTH",
"60 560 OFFCURVE",
"154 776 OFFCURVE",
"328 904 CURVE SMOOTH",
"415 968 OFFCURVE",
"517 1000 OFFCURVE",
"636 1000 CURVE SMOOTH"
);
},
{
closed = 1;
nodes = (
"696 875 LINE",
"672 883 OFFCURVE",
"644 887 OFFCURVE",
"612 887 CURVE SMOOTH",
"472 887 OFFCURVE",
"379 766 OFFCURVE",
"336 606 CURVE SMOOTH",
"315 526 OFFCURVE",
"304 445 OFFCURVE",
"304 364 CURVE SMOOTH",
"304 209 OFFCURVE",
"348 120 OFFCURVE",
"429 120 CURVE SMOOTH",
"492 120 OFFCURVE",
"555 166 OFFCURVE",
"610 230 CURVE"
);
},
{
closed = 1;
nodes = (
"343 1347 OFFCURVE",
"367 1396 OFFCURVE",
"411 1424 CURVE SMOOTH",
"432 1437 OFFCURVE",
"456 1444 OFFCURVE",
"483 1444 CURVE SMOOTH",
"530 1444 OFFCURVE",
"567 1420 OFFCURVE",
"587 1385 CURVE",
"596 1367 OFFCURVE",
"601 1348 OFFCURVE",
"601 1328 CURVE SMOOTH",
"601 1271 OFFCURVE",
"578 1220 OFFCURVE",
"534 1192 CURVE SMOOTH",
"512 1177 OFFCURVE",
"486 1170 OFFCURVE",
"456 1170 CURVE SMOOTH",
"416 1170 OFFCURVE",
"379 1195 OFFCURVE",
"359 1233 CURVE",
"348 1252 OFFCURVE",
"343 1271 OFFCURVE",
"343 1292 CURVE SMOOTH"
);
},
{
closed = 1;
nodes = (
"720 1347 OFFCURVE",
"744 1396 OFFCURVE",
"787 1424 CURVE SMOOTH",
"808 1437 OFFCURVE",
"833 1444 OFFCURVE",
"860 1444 CURVE SMOOTH",
"907 1444 OFFCURVE",
"943 1420 OFFCURVE",
"963 1384 CURVE SMOOTH",
"973 1366 OFFCURVE",
"978 1347 OFFCURVE",
"978 1326 CURVE SMOOTH",
"978 1269 OFFCURVE",
"954 1219 OFFCURVE",
"911 1191 CURVE SMOOTH",
"889 1177 OFFCURVE",
"863 1170 OFFCURVE",
"832 1170 CURVE SMOOTH",
"792 1170 OFFCURVE",
"756 1195 OFFCURVE",
"736 1233 CURVE",
"725 1252 OFFCURVE",
"720 1271 OFFCURVE",
"720 1292 CURVE SMOOTH"
);
}
);
width = 1029;
}
);
note = adieresis;
unicode = 00E4;
},
{
glyphname = agrave;
layers = (
{
layerId = "8EB560C1-B0F9-428E-B807-264CC4717BB6";
name = "Bold Italic";
paths = (
{
closed = 1;
nodes = (
"693 1000 OFFCURVE",
"769 984 OFFCURVE",
"826 967 CURVE",
"943 1000 LINE",
"832 180 LINE",
"831 176 OFFCURVE",
"831 170 OFFCURVE",
"831 163 CURVE SMOOTH",
"831 130 OFFCURVE",
"843 114 OFFCURVE",
"862 114 CURVE SMOOTH",
"881 114 OFFCURVE",
"907 127 OFFCURVE",
"940 154 CURVE",
"966 99 LINE",
"950 74 OFFCURVE",
"909 33 OFFCURVE",
"847 5 CURVE SMOOTH",
"816 -10 OFFCURVE",
"782 -17 OFFCURVE",
"746 -17 CURVE SMOOTH",
"665 -17 OFFCURVE",
"613 23 OFFCURVE",
"617 99 CURVE",
"610 110 LINE",
"541 35 OFFCURVE",
"451 -17 OFFCURVE",
"347 -17 CURVE SMOOTH",
"152 -17 OFFCURVE",
"60 130 OFFCURVE",
"60 349 CURVE SMOOTH",
"60 560 OFFCURVE",
"154 776 OFFCURVE",
"328 904 CURVE SMOOTH",
"415 968 OFFCURVE",
"517 1000 OFFCURVE",
"636 1000 CURVE SMOOTH"
);
},
{
closed = 1;
nodes = (
"696 875 LINE",
"672 883 OFFCURVE",
"644 887 OFFCURVE",
"612 887 CURVE SMOOTH",
"472 887 OFFCURVE",
"379 766 OFFCURVE",
"336 606 CURVE SMOOTH",
"315 526 OFFCURVE",
"304 445 OFFCURVE",
"304 364 CURVE SMOOTH",
"304 209 OFFCURVE",
"348 120 OFFCURVE",
"429 120 CURVE SMOOTH",
"492 120 OFFCURVE",
"555 166 OFFCURVE",
"610 230 CURVE"
);
},
{
closed = 1;
nodes = (
"438 1499 LINE",
"685 1127 LINE",
"610 1071 LINE",
"562 1091 OFFCURVE",
"457 1169 OFFCURVE",
"372 1251 CURVE SMOOTH",
"329 1292 OFFCURVE",
"299 1327 OFFCURVE",
"282 1358 CURVE"
);
}
);
width = 1029;
}
);
note = agrave;
unicode = 00E0;
},
{
glyphname = amacron;
layers = (
{
layerId = "8EB560C1-B0F9-428E-B807-264CC4717BB6";
name = "Bold Italic";
paths = (
{
closed = 1;
nodes = (
"693 1000 OFFCURVE",
"769 984 OFFCURVE",
"826 967 CURVE",
"943 1000 LINE",
"832 180 LINE",
"831 176 OFFCURVE",
"831 170 OFFCURVE",
"831 163 CURVE SMOOTH",
"831 130 OFFCURVE",
"843 114 OFFCURVE",
"862 114 CURVE SMOOTH",
"881 114 OFFCURVE",
"907 127 OFFCURVE",
"940 154 CURVE",
"966 99 LINE",
"950 74 OFFCURVE",
"909 33 OFFCURVE",
"847 5 CURVE SMOOTH",
"816 -10 OFFCURVE",
"782 -17 OFFCURVE",
"746 -17 CURVE SMOOTH",
"665 -17 OFFCURVE",
"613 23 OFFCURVE",
"617 99 CURVE",
"610 110 LINE",
"541 35 OFFCURVE",
"451 -17 OFFCURVE",
"347 -17 CURVE SMOOTH",
"152 -17 OFFCURVE",
"60 130 OFFCURVE",
"60 349 CURVE SMOOTH",
"60 560 OFFCURVE",
"154 776 OFFCURVE",
"328 904 CURVE SMOOTH",
"415 968 OFFCURVE",
"517 1000 OFFCURVE",
"636 1000 CURVE SMOOTH"
);
},
{
closed = 1;
nodes = (
"696 875 LINE",
"672 883 OFFCURVE",
"644 887 OFFCURVE",
"612 887 CURVE SMOOTH",
"472 887 OFFCURVE",
"379 766 OFFCURVE",
"336 606 CURVE SMOOTH",
"315 526 OFFCURVE",
"304 445 OFFCURVE",
"304 364 CURVE SMOOTH",
"304 209 OFFCURVE",
"348 120 OFFCURVE",
"429 120 CURVE SMOOTH",
"492 120 OFFCURVE",
"555 166 OFFCURVE",
"610 230 CURVE"
);
},
{
closed = 1;
nodes = (
"874 1373 LINE",
"857 1216 LINE",
"390 1216 LINE",
"406 1373 LINE"
);
}
);
width = 1029;
}
);
note = amacron;
unicode = 0101;
},
{
glyphname = aogonek;
layers = (
{
layerId = "8EB560C1-B0F9-428E-B807-264CC4717BB6";
name = "Bold Italic";
paths = (
{
closed = 1;
nodes = (
"693 1000 OFFCURVE",
"769 984 OFFCURVE",
"826 967 CURVE",
"943 1000 LINE",
"832 180 LINE",
"831 176 OFFCURVE",
"831 170 OFFCURVE",
"831 163 CURVE SMOOTH",
"831 130 OFFCURVE",
"843 114 OFFCURVE",
"862 114 CURVE SMOOTH",
"881 114 OFFCURVE",
"907 127 OFFCURVE",
"940 154 CURVE",
"966 99 LINE",
"951 78 OFFCURVE",
"916 40 OFFCURVE",
"869 15 CURVE",
"758 -62 OFFCURVE",
"694 -124 OFFCURVE",
"693 -180 CURVE SMOOTH",
"692 -228 OFFCURVE",
"714 -247 OFFCURVE",
"746 -247 CURVE SMOOTH",
"783 -247 OFFCURVE",
"817 -229 OFFCURVE",
"869 -188 CURVE",
"895 -279 LINE",
"830 -344 OFFCURVE",
"741 -389 OFFCURVE",
"636 -389 CURVE SMOOTH",
"537 -389 OFFCURVE",
"484 -332 OFFCURVE",
"484 -255 CURVE SMOOTH",
"484 -222 OFFCURVE",
"499 -176 OFFCURVE",
"522 -147 CURVE",
"569 -79 OFFCURVE",
"620 -43 OFFCURVE",
"685 -8 CURVE",
"638 8 OFFCURVE",
"614 44 OFFCURVE",
"617 99 CURVE",
"610 110 LINE",
"541 35 OFFCURVE",
"451 -17 OFFCURVE",
"347 -17 CURVE SMOOTH",
"152 -17 OFFCURVE",
"60 130 OFFCURVE",
"60 349 CURVE SMOOTH",
"60 560 OFFCURVE",
"154 776 OFFCURVE",
"328 904 CURVE SMOOTH",
"415 968 OFFCURVE",
"517 1000 OFFCURVE",
"636 1000 CURVE SMOOTH"
);
},
{
closed = 1;
nodes = (
"696 875 LINE",
"672 883 OFFCURVE",
"644 887 OFFCURVE",
"612 887 CURVE SMOOTH",
"472 887 OFFCURVE",
"379 766 OFFCURVE",
"336 606 CURVE SMOOTH",
"315 526 OFFCURVE",
"304 445 OFFCURVE",
"304 364 CURVE SMOOTH",
"304 209 OFFCURVE",
"348 120 OFFCURVE",
"429 120 CURVE SMOOTH",
"492 120 OFFCURVE",
"555 166 OFFCURVE",
"610 230 CURVE"
);
}
);
width = 1029;
}
);
note = aogonek;
unicode = 0105;
},
{
glyphname = aring;
layers = (
{
layerId = "8EB560C1-B0F9-428E-B807-264CC4717BB6";
name = "Bold Italic";
paths = (
{
closed = 1;
nodes = (
"693 1000 OFFCURVE",
"769 984 OFFCURVE",
"826 967 CURVE",
"943 1000 LINE",
"832 180 LINE",
"831 176 OFFCURVE",
"831 170 OFFCURVE",
"831 163 CURVE SMOOTH",
"831 130 OFFCURVE",
"843 114 OFFCURVE",
"862 114 CURVE SMOOTH",
"881 114 OFFCURVE",
"907 127 OFFCURVE",
"940 154 CURVE",
"966 99 LINE",
"950 74 OFFCURVE",
"909 33 OFFCURVE",
"847 5 CURVE SMOOTH",
"816 -10 OFFCURVE",
"782 -17 OFFCURVE",
"746 -17 CURVE SMOOTH",
"665 -17 OFFCURVE",
"613 23 OFFCURVE",
"617 99 CURVE",
"610 110 LINE",
"541 35 OFFCURVE",
"451 -17 OFFCURVE",
"347 -17 CURVE SMOOTH",
"152 -17 OFFCURVE",
"60 130 OFFCURVE",
"60 349 CURVE SMOOTH",
"60 560 OFFCURVE",
"154 776 OFFCURVE",
"328 904 CURVE SMOOTH",
"415 968 OFFCURVE",
"517 1000 OFFCURVE",
"636 1000 CURVE SMOOTH"
);
},
{
closed = 1;
nodes = (
"696 875 LINE",
"672 883 OFFCURVE",
"644 887 OFFCURVE",
"612 887 CURVE SMOOTH",
"472 887 OFFCURVE",
"379 766 OFFCURVE",
"336 606 CURVE SMOOTH",
"315 526 OFFCURVE",
"304 445 OFFCURVE",
"304 364 CURVE SMOOTH",
"304 209 OFFCURVE",
"348 120 OFFCURVE",
"429 120 CURVE SMOOTH",
"492 120 OFFCURVE",
"555 166 OFFCURVE",
"610 230 CURVE"
);
},
{
closed = 1;
nodes = (
"394 1403 OFFCURVE",
"467 1482 OFFCURVE",
"564 1518 CURVE SMOOTH",
"613 1536 OFFCURVE",
"662 1545 OFFCURVE",
"712 1545 CURVE SMOOTH",
"812 1545 OFFCURVE",
"890 1512 OFFCURVE",
"931 1452 CURVE SMOOTH",
"952 1421 OFFCURVE",
"962 1385 OFFCURVE",
"962 1344 CURVE SMOOTH",
"962 1228 OFFCURVE",
"895 1147 OFFCURVE",
"800 1108 CURVE SMOOTH",
"752 1088 OFFCURVE",
"702 1078 OFFCURVE",
"649 1078 CURVE SMOOTH",
"488 1078 OFFCURVE",
"394 1154 OFFCURVE",
"394 1283 CURVE SMOOTH"
);
},
{
closed = 1;
nodes = (
"816 1369 OFFCURVE",
"793 1408 OFFCURVE",
"756 1429 CURVE SMOOTH",
"737 1439 OFFCURVE",
"717 1444 OFFCURVE",
"694 1444 CURVE SMOOTH",
"610 1444 OFFCURVE",
"541 1400 OFFCURVE",
"541 1301 CURVE SMOOTH",
"541 1257 OFFCURVE",
"567 1218 OFFCURVE",
"604 1196 CURVE SMOOTH",
"623 1185 OFFCURVE",
"643 1179 OFFCURVE",
"665 1179 CURVE SMOOTH",
"753 1179 OFFCURVE",
"816 1217 OFFCURVE",
"816 1324 CURVE SMOOTH"
);
}
);
width = 1029;
}
);
note = aring;
unicode = 00E5;
},
{
glyphname = atilde;
layers = (
{
layerId = "8EB560C1-B0F9-428E-B807-264CC4717BB6";
name = "Bold Italic";
paths = (
{
closed = 1;
nodes = (
"693 1000 OFFCURVE",
"769 984 OFFCURVE",
"826 967 CURVE",
"943 1000 LINE",
"832 180 LINE",
"831 176 OFFCURVE",
"831 170 OFFCURVE",
"831 163 CURVE SMOOTH",
"831 130 OFFCURVE",
"843 114 OFFCURVE",
"862 114 CURVE SMOOTH",
"881 114 OFFCURVE",
"907 127 OFFCURVE",
"940 154 CURVE",
"966 99 LINE",
"950 74 OFFCURVE",
"909 33 OFFCURVE",
"847 5 CURVE SMOOTH",
"816 -10 OFFCURVE",
"782 -17 OFFCURVE",
"746 -17 CURVE SMOOTH",
"665 -17 OFFCURVE",
"613 23 OFFCURVE",
"617 99 CURVE",
"610 110 LINE",
"541 35 OFFCURVE",
"451 -17 OFFCURVE",
"347 -17 CURVE SMOOTH",
"152 -17 OFFCURVE",
"60 130 OFFCURVE",
"60 349 CURVE SMOOTH",
"60 560 OFFCURVE",
"154 776 OFFCURVE",
"328 904 CURVE SMOOTH",
"415 968 OFFCURVE",
"517 1000 OFFCURVE",
"636 1000 CURVE SMOOTH"
);
},
{
closed = 1;
nodes = (
"696 875 LINE",
"672 883 OFFCURVE",
"644 887 OFFCURVE",
"612 887 CURVE SMOOTH",
"472 887 OFFCURVE",
"379 766 OFFCURVE",
"336 606 CURVE SMOOTH",
"315 526 OFFCURVE",
"304 445 OFFCURVE",
"304 364 CURVE SMOOTH",
"304 209 OFFCURVE",
"348 120 OFFCURVE",
"429 120 CURVE SMOOTH",
"492 120 OFFCURVE",
"555 166 OFFCURVE",
"610 230 CURVE"
);
},
{
closed = 1;
nodes = (
"329 1288 LINE",
"353 1337 OFFCURVE",
"404 1385 OFFCURVE",
"462 1413 CURVE SMOOTH",
"491 1427 OFFCURVE",
"519 1434 OFFCURVE",
"547 1434 CURVE SMOOTH",
"608 1434 OFFCURVE",
"641 1409 OFFCURVE",
"688 1361 CURVE SMOOTH",
"725 1325 OFFCURVE",
"745 1308 OFFCURVE",
"778 1308 CURVE SMOOTH",
"818 1308 OFFCURVE",
"849 1329 OFFCURVE",
"870 1351 CURVE SMOOTH",
"880 1362 OFFCURVE",
"893 1377 OFFCURVE",
"910 1398 CURVE",
"974 1300 LINE",
"955 1247 OFFCURVE",
"908 1196 OFFCURVE",
"848 1167 CURVE SMOOTH",
"818 1152 OFFCURVE",
"788 1145 OFFCURVE",
"759 1145 CURVE SMOOTH",
"708 1145 OFFCURVE",
"672 1159 OFFCURVE",
"648 1179 CURVE",
"636 1188 OFFCURVE",
"623 1201 OFFCURVE",
"608 1216 CURVE SMOOTH",
"572 1253 OFFCURVE",
"550 1270 OFFCURVE",
"509 1270 CURVE SMOOTH",
"473 1270 OFFCURVE",
"431 1245 OFFCURVE",
"384 1196 CURVE"
);
}
);
width = 1029;
}
);
note = atilde;
unicode = 00E3;
},
{
glyphname = ae;
layers = (
{
layerId = "8EB560C1-B0F9-428E-B807-264CC4717BB6";
name = "Bold Italic";
paths = (
{
closed = 1;
nodes = (
"60 554 OFFCURVE",
"162 774 OFFCURVE",
"347 903 CURVE SMOOTH",
"440 968 OFFCURVE",
"547 1000 OFFCURVE",
"670 1000 CURVE SMOOTH",
"722 1000 OFFCURVE",
"788 989 OFFCURVE",
"843 973 CURVE",
"930 1000 LINE",
"919 923 LINE",
"998 974 OFFCURVE",
"1083 1000 OFFCURVE",
"1175 1000 CURVE SMOOTH",
"1291 1000 OFFCURVE",
"1369 959 OFFCURVE",
"1405 892 CURVE SMOOTH",
"1423 858 OFFCURVE",
"1432 820 OFFCURVE",
"1432 777 CURVE SMOOTH",
"1432 610 OFFCURVE",
"1293 494 OFFCURVE",
"1125 438 CURVE SMOOTH",
"1040 410 OFFCURVE",
"961 395 OFFCURVE",
"888 393 CURVE",
"884 220 OFFCURVE",
"931 121 OFFCURVE",
"1048 121 CURVE SMOOTH",
"1150 121 OFFCURVE",
"1243 165 OFFCURVE",
"1328 252 CURVE",
"1376 171 LINE",
"1339 116 OFFCURVE",
"1264 53 OFFCURVE",
"1159 13 CURVE SMOOTH",
"1106 -7 OFFCURVE",
"1049 -17 OFFCURVE",
"987 -17 CURVE SMOOTH",
"802 -17 OFFCURVE",
"695 74 OFFCURVE",
"656 225 CURVE",
"579 93 OFFCURVE",
"460 -17 OFFCURVE",
"329 -17 CURVE SMOOTH",
"140 -17 OFFCURVE",
"60 124 OFFCURVE",
"60 345 CURVE SMOOTH"
);
},
{
closed = 1;
nodes = (
"1200 846 OFFCURVE",
"1170 889 OFFCURVE",
"1115 889 CURVE SMOOTH",
"1023 889 OFFCURVE",
"958 794 OFFCURVE",
"923 672 CURVE SMOOTH",
"906 611 OFFCURVE",
"895 551 OFFCURVE",
"890 493 CURVE",
"974 497 OFFCURVE",
"1081 542 OFFCURVE",
"1149 622 CURVE SMOOTH",
"1183 662 OFFCURVE",
"1200 708 OFFCURVE",
"1200 761 CURVE SMOOTH"
);
},
{
closed = 1;
nodes = (
"708 882 LINE",
"691 885 OFFCURVE",
"673 887 OFFCURVE",
"654 887 CURVE SMOOTH",
"503 887 OFFCURVE",
"396 766 OFFCURVE",
"344 604 CURVE SMOOTH",
"317 523 OFFCURVE",
"304 443 OFFCURVE",
"304 364 CURVE SMOOTH",
"304 294 OFFCURVE",
"312 238 OFFCURVE",
"328 196 CURVE SMOOTH",
"344 153 OFFCURVE",
"368 132 OFFCURVE",
"400 132 CURVE SMOOTH",
"484 132 OFFCURVE",
"572 233 OFFCURVE",
"641 346 CURVE",
"641 349 LINE",
"622 329 LINE"
);
}
);
width = 1486;
}
);
note = ae;
unicode = 00E6;
},
{
glyphname = aeacute;
layers = (
{
layerId = "8EB560C1-B0F9-428E-B807-264CC4717BB6";
name = "Bold Italic";
paths = (
{
closed = 1;
nodes = (
"986 1499 LINE",
"1132 1357 LINE",
"1111 1318 OFFCURVE",
"1011 1220 OFFCURVE",
"910 1143 CURVE SMOOTH",
"859 1104 OFFCURVE",
"818 1079 OFFCURVE",
"786 1066 CURVE",
"713 1128 LINE"
);
},
{
closed = 1;
nodes = (
"60 554 OFFCURVE",
"162 774 OFFCURVE",
"347 903 CURVE SMOOTH",
"440 968 OFFCURVE",
"547 1000 OFFCURVE",
"670 1000 CURVE SMOOTH",
"722 1000 OFFCURVE",
"788 989 OFFCURVE",
"843 973 CURVE",
"930 1000 LINE",
"919 923 LINE",
"998 974 OFFCURVE",
"1083 1000 OFFCURVE",
"1175 1000 CURVE SMOOTH",
"1291 1000 OFFCURVE",
"1369 959 OFFCURVE",
"1405 892 CURVE SMOOTH",
"1423 858 OFFCURVE",
"1432 820 OFFCURVE",
"1432 777 CURVE SMOOTH",
"1432 610 OFFCURVE",
"1293 494 OFFCURVE",
"1125 438 CURVE SMOOTH",
"1040 410 OFFCURVE",
"961 395 OFFCURVE",
"888 393 CURVE",
"884 220 OFFCURVE",
"931 121 OFFCURVE",
"1048 121 CURVE SMOOTH",
"1150 121 OFFCURVE",
"1243 165 OFFCURVE",
"1328 252 CURVE",
"1376 171 LINE",
"1339 116 OFFCURVE",
"1264 53 OFFCURVE",
"1159 13 CURVE SMOOTH",
"1106 -7 OFFCURVE",
"1049 -17 OFFCURVE",
"987 -17 CURVE SMOOTH",
"802 -17 OFFCURVE",
"695 74 OFFCURVE",
"656 225 CURVE",
"579 93 OFFCURVE",
"460 -17 OFFCURVE",
"329 -17 CURVE SMOOTH",
"140 -17 OFFCURVE",
"60 124 OFFCURVE",
"60 345 CURVE SMOOTH"
);
},
{
closed = 1;
nodes = (
"1200 846 OFFCURVE",
"1170 889 OFFCURVE",
"1115 889 CURVE SMOOTH",
"1023 889 OFFCURVE",
"958 794 OFFCURVE",
"923 672 CURVE SMOOTH",
"906 611 OFFCURVE",
"895 551 OFFCURVE",
"890 493 CURVE",
"974 497 OFFCURVE",
"1081 542 OFFCURVE",
"1149 622 CURVE SMOOTH",
"1183 662 OFFCURVE",
"1200 708 OFFCURVE",
"1200 761 CURVE SMOOTH"
);
},
{
closed = 1;
nodes = (
"708 882 LINE",
"691 885 OFFCURVE",
"673 887 OFFCURVE",
"654 887 CURVE SMOOTH",
"503 887 OFFCURVE",
"396 766 OFFCURVE",
"344 604 CURVE SMOOTH",
"317 523 OFFCURVE",
"304 443 OFFCURVE",
"304 364 CURVE SMOOTH",
"304 294 OFFCURVE",
"312 238 OFFCURVE",
"328 196 CURVE SMOOTH",
"344 153 OFFCURVE",
"368 132 OFFCURVE",
"400 132 CURVE SMOOTH",
"484 132 OFFCURVE",
"572 233 OFFCURVE",
"641 346 CURVE",
"641 349 LINE",
"622 329 LINE"
);
}
);
width = 1486;
}
);
note = aeacute;
unicode = 01FD;
},
{
glyphname = b;
layers = (
{
layerId = "8EB560C1-B0F9-428E-B807-264CC4717BB6";
name = "Bold Italic";
paths = (
{
closed = 1;
nodes = (
"158 1313 LINE",
"176 1385 LINE",
"441 1419 LINE",
"487 1396 LINE",
"420 891 LINE",
"483 955 OFFCURVE",
"568 1000 OFFCURVE",
"669 1000 CURVE SMOOTH",
"862 1000 OFFCURVE",
"964 860 OFFCURVE",
"964 628 CURVE SMOOTH",
"964 411 OFFCURVE",
"868 199 OFFCURVE",
"695 76 CURVE SMOOTH",
"608 14 OFFCURVE",
"508 -17 OFFCURVE",
"394 -17 CURVE SMOOTH",
"329 -17 OFFCURVE",
"250 -1 OFFCURVE",
"186 20 CURVE",
"79 -17 LINE",
"244 1276 LINE"
);
},
{
closed = 1;
nodes = (
"316 113 LINE",
"341 101 OFFCURVE",
"375 95 OFFCURVE",
"418 95 CURVE SMOOTH",
"554 95 OFFCURVE",
"646 212 OFFCURVE",
"690 373 CURVE SMOOTH",
"711 454 OFFCURVE",
"722 537 OFFCURVE",
"722 622 CURVE SMOOTH",
"722 766 OFFCURVE",
"674 862 OFFCURVE",
"589 862 CURVE SMOOTH",
"518 862 OFFCURVE",
"452 812 OFFCURVE",
"401 747 CURVE"
);
}
);
width = 1028;
}
);
note = b;
unicode = 0062;
},
{
glyphname = c;
layers = (
{
layerId = "8EB560C1-B0F9-428E-B807-264CC4717BB6";
name = "Bold Italic";
paths = (
{
closed = 1;
nodes = (
"58 581 OFFCURVE",
"141 785 OFFCURVE",
"302 908 CURVE SMOOTH",
"383 969 OFFCURVE",
"479 1000 OFFCURVE",
"592 1000 CURVE SMOOTH",
"660 1000 OFFCURVE",
"746 987 OFFCURVE",
"798 964 CURVE",
"736 735 LINE",
"735 736 OFFCURVE",
"726 738 OFFCURVE",
"711 739 CURVE SMOOTH",
"700 740 OFFCURVE",
"694 740 OFFCURVE",
"693 741 CURVE",
"628 818 OFFCURVE",
"579 869 OFFCURVE",
"539 869 CURVE SMOOTH",
"455 869 OFFCURVE",
"377 791 OFFCURVE",
"334 652 CURVE SMOOTH",
"312 583 OFFCURVE",
"301 502 OFFCURVE",
"301 411 CURVE SMOOTH",
"301 212 OFFCURVE",
"355 126 OFFCURVE",
"463 126 CURVE SMOOTH",
"554 126 OFFCURVE",
"611 159 OFFCURVE",
"686 230 CURVE",
"732 150 LINE",
"696 101 OFFCURVE",
"633 45 OFFCURVE",
"538 10 CURVE SMOOTH",
"490 -8 OFFCURVE",
"437 -17 OFFCURVE",
"380 -17 CURVE SMOOTH",
"247 -17 OFFCURVE",
"148 46 OFFCURVE",
"97 166 CURVE SMOOTH",
"71 226 OFFCURVE",
"58 299 OFFCURVE",
"58 385 CURVE SMOOTH"
);
}
);
width = 795;
}
);
note = c;
unicode = 0063;
},
{
glyphname = cacute;
layers = (
{
layerId = "8EB560C1-B0F9-428E-B807-264CC4717BB6";
name = "Bold Italic";
paths = (
{
closed = 1;
nodes = (
"748 1499 LINE",
"894 1357 LINE",
"873 1318 OFFCURVE",
"773 1220 OFFCURVE",
"672 1143 CURVE SMOOTH",
"621 1104 OFFCURVE",
"580 1079 OFFCURVE",
"548 1066 CURVE",
"475 1128 LINE"
);
},
{
closed = 1;
nodes = (
"58 581 OFFCURVE",
"141 785 OFFCURVE",
"302 908 CURVE SMOOTH",
"383 969 OFFCURVE",
"479 1000 OFFCURVE",
"592 1000 CURVE SMOOTH",
"660 1000 OFFCURVE",
"746 987 OFFCURVE",
"798 964 CURVE",
"736 735 LINE",
"735 736 OFFCURVE",
"726 738 OFFCURVE",
"711 739 CURVE SMOOTH",
"700 740 OFFCURVE",
"694 740 OFFCURVE",
"693 741 CURVE",
"628 818 OFFCURVE",
"579 869 OFFCURVE",
"539 869 CURVE SMOOTH",
"455 869 OFFCURVE",
"377 791 OFFCURVE",
"334 652 CURVE SMOOTH",
"312 583 OFFCURVE",
"301 502 OFFCURVE",
"301 411 CURVE SMOOTH",
"301 212 OFFCURVE",
"355 126 OFFCURVE",
"463 126 CURVE SMOOTH",
"554 126 OFFCURVE",
"611 159 OFFCURVE",
"686 230 CURVE",
"732 150 LINE",
"696 101 OFFCURVE",
"633 45 OFFCURVE",
"538 10 CURVE SMOOTH",
"490 -8 OFFCURVE",
"437 -17 OFFCURVE",
"380 -17 CURVE SMOOTH",
"247 -17 OFFCURVE",
"148 46 OFFCURVE",
"97 166 CURVE SMOOTH",
"71 226 OFFCURVE",
"58 299 OFFCURVE",
"58 385 CURVE SMOOTH"
);
}
);
width = 795;
}
);
note = cacute;
unicode = 0107;
},
{
glyphname = ccaron;
layers = (
{
layerId = "8EB560C1-B0F9-428E-B807-264CC4717BB6";
name = "Bold Italic";
paths = (
{
closed = 1;
nodes = (
"375 1428 LINE",
"566 1235 LINE",
"834 1428 LINE",
"913 1379 LINE",
"624 1075 LINE",
"472 1075 LINE",
"287 1379 LINE"
);
},
{
closed = 1;
nodes = (
"58 581 OFFCURVE",
"141 785 OFFCURVE",
"302 908 CURVE SMOOTH",
"383 969 OFFCURVE",
"479 1000 OFFCURVE",
"592 1000 CURVE SMOOTH",
"660 1000 OFFCURVE",
"746 987 OFFCURVE",
"798 964 CURVE",
"736 735 LINE",
"735 736 OFFCURVE",
"726 738 OFFCURVE",
"711 739 CURVE SMOOTH",
"700 740 OFFCURVE",
"694 740 OFFCURVE",
"693 741 CURVE",
"628 818 OFFCURVE",
"579 869 OFFCURVE",
"539 869 CURVE SMOOTH",
"455 869 OFFCURVE",
"377 791 OFFCURVE",
"334 652 CURVE SMOOTH",
"312 583 OFFCURVE",
"301 502 OFFCURVE",
"301 411 CURVE SMOOTH",
"301 212 OFFCURVE",
"355 126 OFFCURVE",
"463 126 CURVE SMOOTH",
"554 126 OFFCURVE",
"611 159 OFFCURVE",
"686 230 CURVE",
"732 150 LINE",
"696 101 OFFCURVE",
"633 45 OFFCURVE",
"538 10 CURVE SMOOTH",
"490 -8 OFFCURVE",
"437 -17 OFFCURVE",
"380 -17 CURVE SMOOTH",
"247 -17 OFFCURVE",
"148 46 OFFCURVE",
"97 166 CURVE SMOOTH",
"71 226 OFFCURVE",
"58 299 OFFCURVE",
"58 385 CURVE SMOOTH"
);
}
);
width = 795;
}
);
note = ccaron;
unicode = 010D;
},
